SplineFontDB: 3.0
FontName: AdabiyBold
FullName: Adabiy Bold:001.001
FamilyName: Adabiy
Weight: Bold
Copyright: 
Version: 001.001
ItalicAngle: 0
UnderlinePosition: -135
UnderlineWidth: 73
Ascent: 800
Descent: 200
InvalidEm: 0
sfntRevision: 0x00010000
LayerCount: 2
Layer: 0 1 "Back" 1
Layer: 1 1 "Fore" 0
XUID: [1021 70 1549315292 1506703]
StyleMap: 0x0020
FSType: 0
OS2Version: 0
OS2_WeightWidthSlopeOnly: 0
OS2_UseTypoMetrics: 0
CreationTime: -2082844800
ModificationTime: 1483065933
PfmFamily: 17
TTFWeight: 700
TTFWidth: 5
LineGap: 0
VLineGap: 0
Panose: 2 11 6 4 2 2 2 2 2 4
OS2TypoAscent: 670
OS2TypoAOffset: 0
OS2TypoDescent: -215
OS2TypoDOffset: 0
OS2TypoLinegap: 153
OS2WinAscent: 927
OS2WinAOffset: 0
OS2WinDescent: 217
OS2WinDOffset: 0
HheadAscent: 925
HheadAOffset: 0
HheadDescent: -500
HheadDOffset: 0
OS2SubXSize: 717
OS2SubYSize: 688
OS2SubXOff: 0
OS2SubYOff: 139
OS2SupXSize: 717
OS2SupYSize: 688
OS2SupXOff: 0
OS2SupYOff: 495
OS2StrikeYSize: 54
OS2StrikeYPos: 264
OS2FamilyClass: 2053
OS2Vendor: '!22!'
OS2UnicodeRanges: 00000000.00000000.00000000.00000000
MarkAttachClasses: 1
DEI: 91125
TtTable: prep
NPUSHB
 66
 64
 65
 61
 5
 60
 55
 56
 4
 54
 49
 50
 4
 48
 23
 44
 4
 22
 23
 5
 22
 14
 22
 4
 13
 14
 5
 0
 50
 164
 145
 5
 144
 126
 142
 4
 125
 126
 5
 125
 121
 122
 4
 120
 66
 116
 4
 65
 66
 5
 0
 142
 0
 13
 12
 11
 10
 9
 8
 7
 6
 8
 6
 73
 0
 48
 0
SCANTYPE
PUSHW_1
 1023
SCANCTRL
SCVTCI
SZPS
SVTCA[y-axis]
SROUND
LOOPCALL
SMD
RTG
MIAP[rnd]
CALL
CALL
CALL
CALL
CALL
CALL
RTG
MIAP[rnd]
CALL
CALL
CALL
CALL
CALL
CALL
CALL
SMD
RTG
EndTTInstrs
TtTable: fpgm
NPUSHB
 16
 15
 14
 13
 12
 11
 10
 9
 8
 7
 6
 5
 4
 3
 2
 1
 0
FDEF
PUSHB_2
 1
 3
CINDEX
WS
DUP
GC[cur]
DUP
ROUND[Grey]
SUB
ABS
PUSHB_1
 3
CINDEX
GC[cur]
DUP
ROUND[Grey]
SUB
ABS
GTEQ
IF
SWAP
MDAP[rnd]
SWAP
MIRP[rp0,min,rnd,black]
ELSE
MDAP[rnd]
SWAP
MIRP[min,rnd,black]
EIF
SLOOP
IP
SLOOP
ALIGNRP
PUSHB_1
 3
LOOPCALL
PUSHB_1
 1
RS
SRP0
SLOOP
ALIGNRP
PUSHB_1
 3
LOOPCALL
ENDF
FDEF
SRP1
SRP2
SLOOP
IP
ENDF
FDEF

StartChar: .notdef
Encoding: 65536 -1 0
Width: 500
Flags: W
LayerCount: 2
Fore
SplineSet
40 667 m 1,0,-1
 460 667 l 1,1,-1
 460 0 l 1,2,-1
 40 0 l 1,3,-1
 40 667 l 1,0,-1
60 647 m 1,4,-1
 60 20 l 1,5,-1
 440 20 l 1,6,-1
 440 647 l 1,7,-1
 60 647 l 1,4,-1
EndSplineSet
Validated: 1
EndChar

StartChar: exclam
Encoding: 33 33 3
Width: 270
Flags: W
LayerCount: 2
Fore
SplineSet
104 331 m 2,0,-1
 60 598 l 2,1,2
 49 668 49 668 75.5 695.5 c 128,-1,3
 102 723 102 723 135 723 c 256,4,5
 168 723 168 723 194.5 695 c 128,-1,6
 221 667 221 667 209 598 c 2,7,-1
 165 331 l 2,8,9
 164 323 164 323 161 302 c 128,-1,10
 158 281 158 281 157 273 c 0,11,12
 156 261 156 261 155 249 c 128,-1,13
 154 237 154 237 151 225 c 0,14,15
 151 215 151 215 147 195 c 1,16,-1
 123 195 l 1,17,18
 117 248 117 248 112 273 c 0,19,20
 112 280 112 280 111 286.5 c 128,-1,21
 110 293 110 293 109.5 300 c 128,-1,22
 109 307 109 307 108 313 c 0,23,24
 104 325 104 325 104 331 c 2,0,-1
63 63 m 0,25,26
 63 94 63 94 85.5 115.5 c 128,-1,27
 108 137 108 137 137 137 c 0,28,29
 163 137 163 137 185.5 115.5 c 128,-1,30
 208 94 208 94 208 63 c 0,31,32
 208 34 208 34 186 13.5 c 128,-1,33
 164 -7 164 -7 137 -7 c 0,34,35
 107 -7 107 -7 85 13.5 c 128,-1,36
 63 34 63 34 63 63 c 0,25,26
EndSplineSet
Validated: 33
EndChar

StartChar: quotedbl
Encoding: 34 34 4
Width: 453
Flags: W
LayerCount: 2
Fore
SplineSet
198 688 m 1,0,-1
 155 462 l 1,1,-1
 115 462 l 1,2,-1
 71 688 l 1,3,-1
 198 688 l 1,0,-1
381 688 m 1,4,-1
 339 462 l 1,5,-1
 297 462 l 1,6,-1
 254 688 l 1,7,-1
 381 688 l 1,4,-1
EndSplineSet
Validated: 1
EndChar

StartChar: numbersign
Encoding: 35 35 5
Width: 720
Flags: W
LayerCount: 2
Fore
SplineSet
461 0 m 1,0,-1
 381 0 l 1,1,-1
 413 171 l 1,2,-1
 243 171 l 1,3,-1
 212 0 l 1,4,-1
 133 0 l 1,5,-1
 163 171 l 1,6,-1
 6 171 l 1,7,-1
 20 259 l 1,8,-1
 180 259 l 1,9,-1
 211 443 l 1,10,-1
 54 443 l 1,11,-1
 69 529 l 1,12,-1
 226 529 l 1,13,-1
 259 703 l 1,14,-1
 339 703 l 1,15,-1
 306 529 l 1,16,-1
 476 529 l 1,17,-1
 507 703 l 1,18,-1
 586 703 l 1,19,-1
 556 529 l 1,20,-1
 713 529 l 1,21,-1
 698 443 l 1,22,-1
 541 443 l 1,23,-1
 507 259 l 1,24,-1
 666 259 l 1,25,-1
 650 171 l 1,26,-1
 493 171 l 1,27,-1
 461 0 l 1,0,-1
427 259 m 1,28,-1
 461 443 l 1,29,-1
 292 443 l 1,30,-1
 259 259 l 1,31,-1
 427 259 l 1,28,-1
EndSplineSet
Validated: 1
EndChar

StartChar: dollar
Encoding: 36 36 6
Width: 723
Flags: W
LayerCount: 2
Fore
SplineSet
351 32 m 1,0,-1
 351 294 l 1,1,2
 255 339 255 339 200 391.5 c 128,-1,3
 145 444 145 444 144 524 c 0,4,5
 144 579 144 579 169 621 c 128,-1,6
 194 663 194 663 243 691 c 128,-1,7
 292 719 292 719 351 723 c 1,8,-1
 351 795 l 1,9,-1
 402 795 l 1,10,-1
 402 723 l 1,11,12
 445 721 445 721 490 702 c 128,-1,13
 535 683 535 683 565.5 652.5 c 128,-1,14
 596 622 596 622 596 588 c 0,15,16
 599 545 599 545 550 537 c 0,17,18
 525 534 525 534 513 545.5 c 128,-1,19
 501 557 501 557 487 583 c 0,20,21
 473 614 473 614 468 621 c 0,22,23
 449 664 449 664 402 674 c 1,24,-1
 402 427 l 1,25,26
 517 368 517 368 571 314.5 c 128,-1,27
 625 261 625 261 621 183 c 0,28,29
 618 125 618 125 587 82 c 128,-1,30
 556 39 556 39 505 14.5 c 128,-1,31
 454 -10 454 -10 402 -14 c 1,32,-1
 402 -115 l 1,33,-1
 351 -115 l 1,34,-1
 351 -14 l 1,35,36
 245 -2 245 -2 174.5 43 c 128,-1,37
 104 88 104 88 104 141 c 0,38,39
 104 167 104 167 120.5 182.5 c 128,-1,40
 137 198 137 198 157 198 c 0,41,42
 202 201 202 201 225 141 c 0,43,44
 242 104 242 104 245 100 c 0,45,46
 280 41 280 41 351 32 c 1,0,-1
351 674 m 1,47,48
 301 673 301 673 272 642.5 c 128,-1,49
 243 612 243 612 245 575 c 0,50,51
 245 540 245 540 271.5 513.5 c 128,-1,52
 298 487 298 487 351 454 c 1,53,-1
 351 674 l 1,47,48
402 32 m 1,54,55
 450 35 450 35 480.5 64.5 c 128,-1,56
 511 94 511 94 513 130 c 0,57,58
 516 173 516 173 486 205 c 128,-1,59
 456 237 456 237 402 265 c 1,60,-1
 402 32 l 1,54,55
EndSplineSet
Validated: 33
EndChar

StartChar: percent
Encoding: 37 37 7
Width: 1084
Flags: W
LayerCount: 2
Fore
SplineSet
135 533 m 0,0,1
 134 619 134 619 191 673.5 c 128,-1,2
 248 728 248 728 330 728 c 0,3,4
 385 728 385 728 431 703 c 128,-1,5
 477 678 477 678 503.5 634.5 c 128,-1,6
 530 591 530 591 530 533 c 0,7,8
 530 450 530 450 472 395 c 128,-1,9
 414 340 414 340 330 342 c 0,10,11
 248 344 248 344 191.5 397.5 c 128,-1,12
 135 451 135 451 135 533 c 0,0,1
573 92 m 0,13,14
 573 175 573 175 631 230.5 c 128,-1,15
 689 286 689 286 769 286 c 0,16,17
 820 287 820 287 867 263 c 128,-1,18
 914 239 914 239 941.5 194 c 128,-1,19
 969 149 969 149 969 92 c 0,20,21
 969 9 969 9 910 -46 c 128,-1,22
 851 -101 851 -101 769 -101 c 0,23,24
 688 -99 688 -99 630.5 -44.5 c 128,-1,25
 573 10 573 10 573 92 c 0,13,14
277 -184 m 1,26,-1
 245 -166 l 1,27,-1
 825 809 l 1,28,-1
 857 792 l 1,29,-1
 277 -184 l 1,26,-1
701 90 m 0,30,31
 701 -5 701 -5 713 -44 c 128,-1,32
 725 -83 725 -83 771 -83 c 0,33,34
 802 -83 802 -83 817 -65.5 c 128,-1,35
 832 -48 832 -48 837 -10.5 c 128,-1,36
 842 27 842 27 844 89 c 0,37,38
 846 171 846 171 832.5 218.5 c 128,-1,39
 819 266 819 266 771 265 c 256,40,41
 723 264 723 264 711 217 c 128,-1,42
 699 170 699 170 701 90 c 0,30,31
260 532 m 0,43,44
 262 436 262 436 273 397.5 c 128,-1,45
 284 359 284 359 331 359 c 0,46,47
 376 360 376 360 389.5 398 c 128,-1,48
 403 436 403 436 403 530 c 0,49,50
 405 617 405 617 393 662.5 c 128,-1,51
 381 708 381 708 331 707 c 0,52,53
 283 707 283 707 271.5 662.5 c 128,-1,54
 260 618 260 618 260 532 c 0,43,44
EndSplineSet
Validated: 33
EndChar

StartChar: ampersand
Encoding: 38 38 8
Width: 723
Flags: W
LayerCount: 2
Fore
SplineSet
482 257 m 1,0,1
 496 272 496 272 509.5 300 c 128,-1,2
 523 328 523 328 524 348 c 0,3,4
 526 377 526 377 494 405 c 1,5,-1
 663 405 l 1,6,7
 631 386 631 386 610 364.5 c 128,-1,8
 589 343 589 343 562 303 c 0,9,10
 548 281 548 281 543.5 273 c 128,-1,11
 539 265 539 265 530 251 c 0,12,13
 525 244 525 244 520 235 c 128,-1,14
 515 226 515 226 508 216 c 1,15,-1
 566 125 l 2,16,17
 630 26 630 26 695 0 c 1,18,-1
 468 0 l 1,19,20
 481 19 481 19 454 60 c 2,21,-1
 428 100 l 1,22,23
 335 -10 335 -10 223 -14 c 0,24,25
 137 -16 137 -16 83.5 37.5 c 128,-1,26
 30 91 30 91 30 177 c 0,27,28
 31 263 31 263 82 319 c 128,-1,29
 133 375 133 375 222 421 c 1,30,31
 173 501 173 501 169 559 c 1,32,33
 169 630 169 630 213 684 c 128,-1,34
 257 738 257 738 346 737 c 0,35,36
 415 736 415 736 452.5 697.5 c 128,-1,37
 490 659 490 659 488 601 c 0,38,39
 488 543 488 543 448 505.5 c 128,-1,40
 408 468 408 468 359 448 c 1,41,-1
 482 257 l 1,0,1
331 482 m 1,42,43
 426 530 426 530 428 607 c 0,44,45
 431 643 431 643 409.5 669.5 c 128,-1,46
 388 696 388 696 349 695 c 0,47,48
 310 695 310 695 289 667.5 c 128,-1,49
 268 640 268 640 270 605 c 0,50,51
 272 574 272 574 291 548 c 2,52,-1
 331 482 l 1,42,43
246 386 m 1,53,54
 155 334 155 334 155 232 c 0,55,56
 155 169 155 169 193.5 124.5 c 128,-1,57
 232 80 232 80 286 81 c 0,58,59
 318 84 318 84 349 100.5 c 128,-1,60
 380 117 380 117 399 144 c 1,61,-1
 246 386 l 1,53,54
EndSplineSet
Validated: 33
EndChar

StartChar: quotesingle
Encoding: 39 39 9
Width: 270
Flags: W
LayerCount: 2
Fore
SplineSet
114 400 m 2,0,-1
 90 400 l 1,1,2
 129 463 129 463 130 499 c 0,3,4
 133 533 133 533 108 558 c 0,5,6
 103 564 103 564 94.5 571.5 c 128,-1,7
 86 579 86 579 78 586 c 0,8,9
 57 608 57 608 57 639 c 0,10,11
 59 666 59 666 77.5 687 c 128,-1,12
 96 708 96 708 129 707 c 0,13,14
 159 707 159 707 180 683 c 128,-1,15
 201 659 201 659 201 616 c 0,16,17
 203 538 203 538 140 439 c 0,18,19
 138 436 138 436 131 426.5 c 128,-1,20
 124 417 124 417 120 411 c 0,21,22
 115 401 115 401 114 400 c 2,0,-1
EndSplineSet
Validated: 33
EndChar

StartChar: parenleft
Encoding: 40 40 10
Width: 542
Flags: W
LayerCount: 2
Fore
SplineSet
410 728 m 1,0,-1
 410 690 l 1,1,2
 274 585 274 585 274 240 c 0,3,4
 274 29 274 29 316.5 -71 c 128,-1,5
 359 -171 359 -171 410 -209 c 1,6,-1
 410 -248 l 1,7,8
 333 -211 333 -211 270 -133 c 128,-1,9
 207 -55 207 -55 171 44.5 c 128,-1,10
 135 144 135 144 135 240 c 0,11,12
 135 335 135 335 171 435.5 c 128,-1,13
 207 536 207 536 270 614.5 c 128,-1,14
 333 693 333 693 410 728 c 1,0,-1
EndSplineSet
Validated: 1
EndChar

StartChar: parenright
Encoding: 41 41 11
Width: 542
Flags: W
LayerCount: 2
Fore
SplineSet
132 728 m 1,0,1
 209 693 209 693 272 614.5 c 128,-1,2
 335 536 335 536 371 435.5 c 128,-1,3
 407 335 407 335 407 240 c 0,4,5
 407 144 407 144 371 44.5 c 128,-1,6
 335 -55 335 -55 272 -133 c 128,-1,7
 209 -211 209 -211 132 -248 c 1,8,-1
 132 -209 l 1,9,10
 181 -172 181 -172 223.5 -70.5 c 128,-1,11
 266 31 266 31 266 240 c 0,12,13
 266 391 266 391 242.5 484.5 c 128,-1,14
 219 578 219 578 189 623.5 c 128,-1,15
 159 669 159 669 132 690 c 1,16,-1
 132 728 l 1,0,1
EndSplineSet
Validated: 1
EndChar

StartChar: asterisk
Encoding: 42 42 12
Width: 542
Flags: W
LayerCount: 2
Fore
SplineSet
292 548 m 0,0,1
 305 544 305 544 329 557.5 c 128,-1,2
 353 571 353 571 365 583 c 0,3,4
 370 588 370 588 377 597 c 128,-1,5
 384 606 384 606 389 610 c 0,6,7
 406 627 406 627 428 632 c 0,8,9
 457 636 457 636 476 616.5 c 128,-1,10
 495 597 495 597 491 570 c 0,11,12
 487 550 487 550 468.5 536.5 c 128,-1,13
 450 523 450 523 416 527 c 0,14,15
 385 533 385 533 381 533 c 0,16,17
 370 537 370 537 348 537 c 0,18,19
 299 532 299 532 299 515 c 0,20,21
 298 503 298 503 318.5 484 c 128,-1,22
 339 465 339 465 356 457 c 0,23,24
 365 453 365 453 375.5 448.5 c 128,-1,25
 386 444 386 444 389 442 c 0,26,27
 427 420 427 420 427 388 c 0,28,29
 429 370 429 370 416 354.5 c 128,-1,30
 403 339 403 339 382 335 c 0,31,32
 358 332 358 332 340.5 345 c 128,-1,33
 323 358 323 358 317 391 c 0,34,35
 317 397 317 397 315.5 407.5 c 128,-1,36
 314 418 314 418 313 427 c 0,37,38
 311 445 311 445 299 470.5 c 128,-1,39
 287 496 287 496 274 499 c 2,40,-1
 268 499 l 2,41,42
 255 496 255 496 245.5 474 c 128,-1,43
 236 452 236 452 231 427 c 0,44,45
 230 418 230 418 229 410.5 c 128,-1,46
 228 403 228 403 226 391 c 0,47,48
 222 360 222 360 204 346 c 128,-1,49
 186 332 186 332 162 335 c 0,50,51
 139 340 139 340 127 355 c 128,-1,52
 115 370 115 370 115 388 c 0,53,54
 115 421 115 421 155 442 c 0,55,56
 163 446 163 446 172.5 450 c 128,-1,57
 182 454 182 454 189 457 c 0,58,59
 203 463 203 463 225 483 c 128,-1,60
 247 503 247 503 246 515 c 0,61,62
 245 531 245 531 197 537 c 0,63,64
 174 537 174 537 163 533 c 0,65,66
 154 533 154 533 143.5 530.5 c 128,-1,67
 133 528 133 528 126 527 c 0,68,69
 96 523 96 523 77 536 c 128,-1,70
 58 549 58 549 54 570 c 0,71,72
 51 596 51 596 69.5 616 c 128,-1,73
 88 636 88 636 114 632 c 0,74,75
 137 628 137 628 155 610 c 0,76,77
 159 606 159 606 166.5 598 c 128,-1,78
 174 590 174 590 180 583 c 0,79,80
 192 571 192 571 216 557.5 c 128,-1,81
 240 544 240 544 252 548 c 0,82,83
 262 551 262 551 262 570 c 0,84,85
 262 604 262 604 246 630 c 0,86,87
 240 642 240 642 236.5 648.5 c 128,-1,88
 233 655 233 655 228 663 c 0,89,90
 216 682 216 682 219 707 c 0,91,92
 222 725 222 725 236.5 738.5 c 128,-1,93
 251 752 251 752 271 752 c 0,94,95
 293 752 293 752 307.5 738.5 c 128,-1,96
 322 725 322 725 325 707 c 0,97,98
 328 686 328 686 316 663 c 0,99,100
 315 660 315 660 308.5 649 c 128,-1,101
 302 638 302 638 299 630 c 0,102,103
 283 604 283 604 283 570 c 1,104,105
 276 552 276 552 292 548 c 0,0,1
EndSplineSet
Validated: 33
EndChar

StartChar: plus
Encoding: 43 43 13
Width: 723
Flags: W
LayerCount: 2
Fore
SplineSet
322 635 m 1,0,-1
 400 635 l 1,1,-1
 400 365 l 1,2,-1
 670 365 l 1,3,-1
 670 288 l 1,4,-1
 400 288 l 1,5,-1
 400 17 l 1,6,-1
 322 17 l 1,7,-1
 322 288 l 1,8,-1
 52 288 l 1,9,-1
 52 365 l 1,10,-1
 322 365 l 1,11,-1
 322 635 l 1,0,-1
EndSplineSet
Validated: 1
EndChar

StartChar: comma
Encoding: 44 44 14
Width: 271
Flags: W
LayerCount: 2
Fore
SplineSet
120 -154 m 1,0,-1
 95 -154 l 1,1,2
 132 -98 132 -98 137 -55 c 0,3,4
 138 -23 138 -23 114 3 c 0,5,6
 109 8 109 8 99.5 16 c 128,-1,7
 90 24 90 24 84 32 c 0,8,9
 59 55 59 55 63 84 c 0,10,11
 65 111 65 111 83.5 132 c 128,-1,12
 102 153 102 153 133 152 c 0,13,14
 165 152 165 152 186 128.5 c 128,-1,15
 207 105 207 105 208 61 c 0,16,17
 209 10 209 10 180 -49 c 128,-1,18
 151 -108 151 -108 120 -154 c 1,0,-1
EndSplineSet
Validated: 33
EndChar

StartChar: hyphen
Encoding: 45 45 15
Width: 360
Flags: W
LayerCount: 2
Fore
SplineSet
64 197 m 1,0,-1
 64 310 l 1,1,-1
 295 310 l 1,2,-1
 295 197 l 1,3,-1
 64 197 l 1,0,-1
EndSplineSet
Validated: 1
EndChar

StartChar: period
Encoding: 46 46 16
Width: 271
Flags: W
LayerCount: 2
Fore
SplineSet
63 57 m 0,0,1
 63 85 63 85 84 107.5 c 128,-1,2
 105 130 105 130 135 130 c 256,3,4
 165 130 165 130 186.5 109.5 c 128,-1,5
 208 89 208 89 208 57 c 0,6,7
 208 26 208 26 186.5 6 c 128,-1,8
 165 -14 165 -14 135 -14 c 0,9,10
 107 -14 107 -14 85 6 c 128,-1,11
 63 26 63 26 63 57 c 0,0,1
EndSplineSet
Validated: 1
EndChar

StartChar: slash
Encoding: 47 47 17
Width: 497
Flags: W
LayerCount: 2
Fore
SplineSet
55 -214 m 1,0,-1
 0 -191 l 1,1,-1
 440 811 l 1,2,-1
 496 788 l 1,3,-1
 55 -214 l 1,0,-1
EndSplineSet
Validated: 1
EndChar

StartChar: zero
Encoding: 48 48 18
Width: 542
Flags: W
LayerCount: 2
Fore
SplineSet
41 354 m 0,0,1
 41 429 41 429 61.5 514 c 128,-1,2
 82 599 82 599 132.5 660.5 c 128,-1,3
 183 722 183 722 268 723 c 0,4,5
 355 723 355 723 407.5 661 c 128,-1,6
 460 599 460 599 480.5 513 c 128,-1,7
 501 427 501 427 501 354 c 0,8,9
 501 272 501 272 479 188 c 128,-1,10
 457 104 457 104 405.5 45 c 128,-1,11
 354 -14 354 -14 268 -14 c 0,12,13
 183 -13 183 -13 132.5 47.5 c 128,-1,14
 82 108 82 108 61.5 193 c 128,-1,15
 41 278 41 278 41 354 c 0,0,1
169 353 m 0,16,17
 169 235 169 235 171.5 178 c 128,-1,18
 174 121 174 121 196 68.5 c 128,-1,19
 218 16 218 16 270 15 c 0,20,21
 321 15 321 15 343 66 c 128,-1,22
 365 117 365 117 368 173.5 c 128,-1,23
 371 230 371 230 371 353 c 0,24,25
 371 521 371 521 357 605 c 128,-1,26
 343 689 343 689 270 688 c 0,27,28
 198 688 198 688 183.5 603 c 128,-1,29
 169 518 169 518 169 353 c 0,16,17
EndSplineSet
Validated: 33
EndChar

StartChar: one
Encoding: 49 49 19
Width: 542
Flags: W
LayerCount: 2
Fore
SplineSet
149 591 m 1,0,-1
 149 609 l 1,1,2
 198 612 198 612 246 639 c 128,-1,3
 294 666 294 666 314 707 c 1,4,-1
 353 707 l 1,5,-1
 353 93 l 2,6,7
 353 59 353 59 361.5 38.5 c 128,-1,8
 370 18 370 18 393 0 c 1,9,-1
 353 0 l 1,10,-1
 232 0 l 1,11,-1
 192 0 l 1,12,13
 215 18 215 18 223.5 38.5 c 128,-1,14
 232 59 232 59 232 93 c 2,15,-1
 232 507 l 1,16,-1
 232 522 l 2,17,18
 229 544 229 544 228 547 c 0,19,20
 221 574 221 574 202 582.5 c 128,-1,21
 183 591 183 591 149 591 c 1,0,-1
EndSplineSet
Validated: 1
EndChar

StartChar: two
Encoding: 50 50 20
Width: 542
Flags: W
LayerCount: 2
Fore
SplineSet
454 157 m 1,0,-1
 468 157 l 1,1,-1
 433 0 l 1,2,-1
 33 0 l 1,3,4
 90 122 90 122 154 195 c 0,5,6
 178 223 178 223 197 243.5 c 128,-1,7
 216 264 216 264 226 276 c 0,8,9
 286 342 286 342 321.5 401 c 128,-1,10
 357 460 357 460 357 524 c 0,11,12
 359 580 359 580 333 630 c 128,-1,13
 307 680 307 680 246 683 c 0,14,15
 210 686 210 686 183.5 670.5 c 128,-1,16
 157 655 157 655 144.5 630.5 c 128,-1,17
 132 606 132 606 135 588 c 0,18,19
 138 573 138 573 146 562 c 0,20,21
 152 554 152 554 157.5 548.5 c 128,-1,22
 163 543 163 543 166 539 c 0,23,24
 182 514 182 514 184 488 c 0,25,26
 185 461 185 461 167 444.5 c 128,-1,27
 149 428 149 428 129 428 c 0,28,29
 105 428 105 428 82.5 453 c 128,-1,30
 60 478 60 478 57 526 c 0,31,32
 56 611 56 611 122 666 c 128,-1,33
 188 721 188 721 271 723 c 0,34,35
 325 723 325 723 375 699 c 128,-1,36
 425 675 425 675 457 628 c 128,-1,37
 489 581 489 581 488 518 c 0,38,39
 488 442 488 442 451.5 393 c 128,-1,40
 415 344 415 344 351 295 c 0,41,42
 337 284 337 284 307 262 c 128,-1,43
 277 240 277 240 262 228 c 0,44,45
 208 190 208 190 186 166 c 0,46,47
 182 162 182 162 177 157 c 128,-1,48
 172 152 172 152 167.5 147.5 c 128,-1,49
 163 143 163 143 158 138 c 0,50,51
 156 135 156 135 151.5 129.5 c 128,-1,52
 147 124 147 124 143 117 c 0,53,54
 140 112 140 112 141 108 c 0,55,56
 145 103 145 103 160 103 c 2,57,-1
 356 103 l 2,58,59
 426 103 426 103 454 157 c 1,0,-1
EndSplineSet
Validated: 33
EndChar

StartChar: three
Encoding: 51 51 21
Width: 542
Flags: W
LayerCount: 2
Fore
SplineSet
181 378 m 1,0,-1
 181 410 l 1,1,2
 280 409 280 409 312.5 448.5 c 128,-1,3
 345 488 345 488 345 555 c 0,4,5
 345 693 345 693 237 693 c 0,6,7
 205 693 205 693 181.5 672 c 128,-1,8
 158 651 158 651 160 627 c 0,9,10
 160 619 160 619 165 609 c 0,11,12
 166 607 166 607 176 584 c 0,13,14
 183 568 183 568 183 555 c 0,15,16
 183 536 183 536 172 519.5 c 128,-1,17
 161 503 161 503 137 502 c 0,18,19
 85 499 85 499 75 566 c 1,20,21
 73 621 73 621 119 671.5 c 128,-1,22
 165 722 165 722 257 723 c 0,23,24
 354 723 354 723 406.5 673.5 c 128,-1,25
 459 624 459 624 461 558 c 0,26,27
 462 497 462 497 423 458 c 128,-1,28
 384 419 384 419 340 411 c 0,29,30
 327 408 327 408 324 407 c 0,31,32
 320 403 320 403 320 402 c 256,33,34
 320 401 320 401 328 397 c 0,35,36
 336 395 336 395 344 392 c 128,-1,37
 352 389 352 389 360 386 c 0,38,39
 408 364 408 364 448 321 c 128,-1,40
 488 278 488 278 487 203 c 0,41,42
 485 114 485 114 417 49.5 c 128,-1,43
 349 -15 349 -15 246 -14 c 0,44,45
 146 -11 146 -11 94.5 41.5 c 128,-1,46
 43 94 43 94 41 158 c 0,47,48
 40 205 40 205 64.5 231.5 c 128,-1,49
 89 258 89 258 117 254 c 0,50,51
 136 252 136 252 150 239 c 128,-1,52
 164 226 164 226 165 201 c 0,53,54
 167 180 167 180 155 160 c 0,55,56
 153 156 153 156 149 150.5 c 128,-1,57
 145 145 145 145 141 139 c 128,-1,58
 137 133 137 133 135 129 c 0,59,60
 125 111 125 111 123 101 c 0,61,62
 118 71 118 71 148 46 c 128,-1,63
 178 21 178 21 223 21 c 0,64,65
 281 23 281 23 319.5 72 c 128,-1,66
 358 121 358 121 359 200 c 0,67,68
 359 379 359 379 181 378 c 1,0,-1
EndSplineSet
Validated: 33
EndChar

StartChar: four
Encoding: 52 52 22
Width: 542
Flags: W
LayerCount: 2
Fore
SplineSet
472 255 m 1,0,-1
 472 198 l 1,1,-1
 400 198 l 1,2,-1
 400 93 l 2,3,4
 400 62 400 62 408 42 c 128,-1,5
 416 22 416 22 440 0 c 1,6,-1
 400 0 l 1,7,-1
 277 0 l 1,8,-1
 238 0 l 1,9,10
 262 18 262 18 269.5 38.5 c 128,-1,11
 277 59 277 59 277 93 c 2,12,-1
 277 198 l 1,13,-1
 30 198 l 1,14,-1
 30 255 l 1,15,-1
 297 707 l 1,16,-1
 400 707 l 1,17,-1
 400 255 l 1,18,-1
 472 255 l 1,0,-1
277 605 m 1,19,-1
 81 255 l 1,20,-1
 277 255 l 1,21,-1
 277 605 l 1,19,-1
EndSplineSet
Validated: 1
EndChar

StartChar: five
Encoding: 53 53 23
Width: 542
Flags: W
LayerCount: 2
Fore
SplineSet
437 710 m 1,0,-1
 451 723 l 1,1,-1
 425 581 l 1,2,-1
 144 581 l 1,3,-1
 144 411 l 2,4,5
 144 403 144 403 146 402 c 0,6,7
 148 398 148 398 155 407 c 0,8,9
 174 425 174 425 213 436.5 c 128,-1,10
 252 448 252 448 283 447 c 0,11,12
 344 442 344 442 392.5 411 c 128,-1,13
 441 380 441 380 468.5 329.5 c 128,-1,14
 496 279 496 279 493 217 c 0,15,16
 491 158 491 158 461.5 104.5 c 128,-1,17
 432 51 432 51 377.5 18.5 c 128,-1,18
 323 -14 323 -14 252 -14 c 0,19,20
 157 -13 157 -13 103.5 36.5 c 128,-1,21
 50 86 50 86 50 149 c 0,22,23
 51 189 51 189 71 215 c 128,-1,24
 91 241 91 241 117 243 c 0,25,26
 138 243 138 243 155 227 c 128,-1,27
 172 211 172 211 172 184 c 0,28,29
 172 163 172 163 162 143 c 0,30,31
 158 137 158 137 155 132 c 128,-1,32
 152 127 152 127 149 123 c 0,33,34
 141 110 141 110 138 101.5 c 128,-1,35
 135 93 135 93 137 83 c 0,36,37
 140 59 140 59 167 40.5 c 128,-1,38
 194 22 194 22 231 23 c 0,39,40
 279 28 279 28 322 70 c 128,-1,41
 365 112 365 112 365 217 c 0,42,43
 366 301 366 301 338.5 343.5 c 128,-1,44
 311 386 311 386 277 396 c 0,45,46
 240 410 240 410 198.5 390 c 128,-1,47
 157 370 157 370 144 328 c 1,48,-1
 104 328 l 1,49,-1
 104 680 l 1,50,-1
 368 680 l 1,51,-1
 379 680 l 2,52,53
 398 683 398 683 399 683 c 0,54,55
 422 683 422 683 437 710 c 1,0,-1
EndSplineSet
Validated: 33
EndChar

StartChar: six
Encoding: 54 54 24
Width: 542
Flags: W
LayerCount: 2
Fore
SplineSet
408 527 m 0,0,1
 389 527 389 527 372.5 541.5 c 128,-1,2
 356 556 356 556 356 584 c 0,3,4
 356 603 356 603 359 616 c 0,5,6
 362 643 362 643 360 647 c 0,7,8
 358 662 358 662 342.5 675.5 c 128,-1,9
 327 689 327 689 302 690 c 0,10,11
 185 696 185 696 183 470 c 2,12,-1
 183 439 l 1,13,-1
 183 421 l 2,14,15
 183 411 183 411 187 410 c 0,16,17
 192 410 192 410 195 411 c 0,18,19
 197 413 197 413 205 419 c 0,20,21
 216 430 216 430 244.5 443.5 c 128,-1,22
 273 457 273 457 313 457 c 0,23,24
 361 457 361 457 403.5 432.5 c 128,-1,25
 446 408 446 408 472.5 355.5 c 128,-1,26
 499 303 499 303 496 226 c 0,27,28
 495 164 495 164 467.5 108 c 128,-1,29
 440 52 440 52 389 19 c 128,-1,30
 338 -14 338 -14 273 -14 c 0,31,32
 173 -14 173 -14 121 47 c 128,-1,33
 69 108 69 108 55 184.5 c 128,-1,34
 41 261 41 261 43 328 c 0,35,36
 44 426 44 426 66.5 501 c 128,-1,37
 89 576 89 576 126.5 625 c 128,-1,38
 164 674 164 674 210.5 698.5 c 128,-1,39
 257 723 257 723 305 723 c 0,40,41
 355 723 355 723 391.5 702 c 128,-1,42
 428 681 428 681 446 649.5 c 128,-1,43
 464 618 464 618 464 586 c 0,44,45
 463 559 463 559 445.5 543 c 128,-1,46
 428 527 428 527 408 527 c 0,0,1
177 220 m 0,47,48
 177 130 177 130 196.5 72.5 c 128,-1,49
 216 15 216 15 273 15 c 0,50,51
 330 16 330 16 347.5 72 c 128,-1,52
 365 128 365 128 365 223 c 0,53,54
 365 410 365 410 273 407 c 0,55,56
 177 405 177 405 177 220 c 0,47,48
EndSplineSet
Validated: 33
EndChar

StartChar: seven
Encoding: 55 55 25
Width: 542
Flags: W
LayerCount: 2
Fore
SplineSet
72 548 m 1,0,-1
 60 548 l 1,1,-1
 86 707 l 1,2,-1
 488 707 l 1,3,-1
 488 645 l 1,4,5
 426 548 426 548 382 440 c 128,-1,6
 338 332 338 332 317.5 224.5 c 128,-1,7
 297 117 297 117 294 0 c 1,8,-1
 155 0 l 1,9,10
 165 66 165 66 187.5 134 c 128,-1,11
 210 202 210 202 238 264 c 128,-1,12
 266 326 266 326 294 374 c 2,13,-1
 413 584 l 2,14,15
 421 604 421 604 421 605 c 0,16,17
 418 609 418 609 408 609 c 2,18,-1
 189 609 l 2,19,20
 143 609 143 609 117 597.5 c 128,-1,21
 91 586 91 586 72 548 c 1,0,-1
EndSplineSet
Validated: 1
EndChar

StartChar: eight
Encoding: 56 56 26
Width: 542
Flags: W
LayerCount: 2
Fore
SplineSet
137 405 m 0,0,1
 73 470 73 470 75 556 c 1,2,3
 81 629 81 629 136 677.5 c 128,-1,4
 191 726 191 726 279 723 c 0,5,6
 366 720 366 720 420.5 668 c 128,-1,7
 475 616 475 616 472 550 c 0,8,9
 471 502 471 502 445.5 468 c 128,-1,10
 420 434 420 434 389 416 c 0,11,12
 382 413 382 413 370 407 c 0,13,14
 362 404 362 404 362 400 c 1,15,16
 362 401 362 401 367 393 c 0,17,18
 372 390 372 390 380 385 c 128,-1,19
 388 380 388 380 393 374 c 0,20,21
 505 300 505 300 502 194 c 0,22,23
 502 131 502 131 466.5 82 c 128,-1,24
 431 33 431 33 377 9.5 c 128,-1,25
 323 -14 323 -14 260 -14 c 0,26,27
 188 -13 188 -13 138 19 c 128,-1,28
 88 51 88 51 64 98.5 c 128,-1,29
 40 146 40 146 43 194 c 0,30,31
 46 269 46 269 88 311.5 c 128,-1,32
 130 354 130 354 160 367 c 0,33,34
 165 369 165 369 168 373 c 0,35,36
 168 375 168 375 162 381 c 0,37,38
 142 399 142 399 137 405 c 0,0,1
325 414 m 1,39,40
 366 433 366 433 388.5 472 c 128,-1,41
 411 511 411 511 411 550 c 0,42,43
 412 583 412 583 397.5 616 c 128,-1,44
 383 649 383 649 353 669 c 128,-1,45
 323 689 323 689 283 688 c 0,46,47
 235 686 235 686 202 657.5 c 128,-1,48
 169 629 169 629 169 584 c 0,49,50
 169 564 169 564 181 542 c 0,51,52
 186 532 186 532 206 507 c 0,53,54
 213 498 213 498 232 481 c 2,55,-1
 325 414 l 1,39,40
198 348 m 1,56,57
 111 297 111 297 111 194 c 0,58,59
 113 118 113 118 155.5 69 c 128,-1,60
 198 20 198 20 260 15 c 0,61,62
 316 10 316 10 363 42 c 128,-1,63
 410 74 410 74 413 125 c 0,64,65
 417 171 417 171 386.5 207.5 c 128,-1,66
 356 244 356 244 335 255 c 2,67,-1
 198 348 l 1,56,57
EndSplineSet
Validated: 33
EndChar

StartChar: nine
Encoding: 57 57 27
Width: 542
Flags: W
LayerCount: 2
Fore
SplineSet
132 181 m 0,0,1
 144 181 144 181 156 174.5 c 128,-1,2
 168 168 168 168 176 154.5 c 128,-1,3
 184 141 184 141 184 122 c 0,4,5
 184 107 184 107 181 90 c 0,6,7
 178 65 178 65 180 61 c 0,8,9
 183 46 183 46 198 32.5 c 128,-1,10
 213 19 213 19 238 18 c 0,11,12
 355 11 355 11 357 237 c 2,13,-1
 357 270 l 1,14,-1
 357 286 l 2,15,16
 357 297 357 297 353 297 c 0,17,18
 351 299 351 299 345 295 c 0,19,20
 343 295 343 295 341 293 c 128,-1,21
 339 291 339 291 335 289 c 0,22,23
 294 251 294 251 226 251 c 0,24,25
 179 249 179 249 136.5 273.5 c 128,-1,26
 94 298 94 298 67.5 350.5 c 128,-1,27
 41 403 41 403 44 479 c 0,28,29
 47 581 47 581 107 651.5 c 128,-1,30
 167 722 167 722 266 723 c 0,31,32
 349 723 349 723 425 656.5 c 128,-1,33
 501 590 501 590 497 378 c 0,34,35
 496 251 496 251 458 162 c 128,-1,36
 420 73 420 73 361 30.5 c 128,-1,37
 302 -12 302 -12 235 -14 c 0,38,39
 160 -14 160 -14 116.5 28.5 c 128,-1,40
 73 71 73 71 75 120 c 0,41,42
 78 149 78 149 95.5 165 c 128,-1,43
 113 181 113 181 132 181 c 0,0,1
362 487 m 0,44,45
 362 579 362 579 343 636.5 c 128,-1,46
 324 694 324 694 266 693 c 0,47,48
 210 693 210 693 192 635 c 128,-1,49
 174 577 174 577 174 482 c 0,50,51
 174 299 174 299 266 300 c 0,52,53
 362 303 362 303 362 487 c 0,44,45
EndSplineSet
Validated: 33
EndChar

StartChar: colon
Encoding: 58 58 28
Width: 271
Flags: W
LayerCount: 2
Fore
SplineSet
63 57 m 0,0,1
 63 85 63 85 84 107.5 c 128,-1,2
 105 130 105 130 135 130 c 256,3,4
 165 130 165 130 186.5 109.5 c 128,-1,5
 208 89 208 89 208 57 c 0,6,7
 208 26 208 26 186.5 6 c 128,-1,8
 165 -14 165 -14 135 -14 c 0,9,10
 107 -14 107 -14 85 6 c 128,-1,11
 63 26 63 26 63 57 c 0,0,1
63 405 m 0,12,13
 63 432 63 432 83 454 c 128,-1,14
 103 476 103 476 135 476 c 256,15,16
 167 476 167 476 187.5 454.5 c 128,-1,17
 208 433 208 433 208 405 c 0,18,19
 208 373 208 373 186 352 c 128,-1,20
 164 331 164 331 135 331 c 0,21,22
 108 331 108 331 85.5 352.5 c 128,-1,23
 63 374 63 374 63 405 c 0,12,13
EndSplineSet
Validated: 1
EndChar

StartChar: semicolon
Encoding: 59 59 29
Width: 271
Flags: W
LayerCount: 2
Fore
SplineSet
120 -154 m 1,0,-1
 95 -154 l 1,1,2
 125 -108 125 -108 137 -55 c 1,3,4
 138 -23 138 -23 114 3 c 0,5,6
 87 27 87 27 84 32 c 0,7,8
 59 54 59 54 63 84 c 0,9,10
 65 111 65 111 83.5 131.5 c 128,-1,11
 102 152 102 152 133 152 c 0,12,13
 165 152 165 152 186 128.5 c 128,-1,14
 207 105 207 105 208 61 c 0,15,16
 209 -16 209 -16 146 -115 c 0,17,18
 137 -129 137 -129 126 -144 c 0,19,20
 125 -146 125 -146 120 -154 c 1,0,-1
63 405 m 0,21,22
 63 432 63 432 83 454 c 128,-1,23
 103 476 103 476 135 476 c 256,24,25
 167 476 167 476 187.5 454.5 c 128,-1,26
 208 433 208 433 208 405 c 0,27,28
 208 373 208 373 186 352 c 128,-1,29
 164 331 164 331 135 331 c 0,30,31
 108 331 108 331 85.5 352.5 c 128,-1,32
 63 374 63 374 63 405 c 0,21,22
EndSplineSet
Validated: 33
EndChar

StartChar: less
Encoding: 60 60 30
Width: 721
Flags: W
LayerCount: 2
Fore
SplineSet
39 248 m 1,0,-1
 656 511 l 1,1,-1
 683 450 l 1,2,-1
 206 252 l 1,3,-1
 206 245 l 1,4,-1
 683 47 l 1,5,-1
 656 -14 l 1,6,-1
 39 248 l 1,0,-1
EndSplineSet
Validated: 1
EndChar

StartChar: equal
Encoding: 61 61 31
Width: 723
Flags: W
LayerCount: 2
Fore
SplineSet
46 437 m 1,0,-1
 664 437 l 1,1,-1
 664 359 l 1,2,-1
 46 359 l 1,3,-1
 46 437 l 1,0,-1
47 263 m 1,4,-1
 675 263 l 1,5,-1
 675 186 l 1,6,-1
 46 186 l 1,7,-1
 47 263 l 1,4,-1
EndSplineSet
Validated: 1
EndChar

StartChar: greater
Encoding: 62 62 32
Width: 721
Flags: W
LayerCount: 2
Fore
SplineSet
683 248 m 1,0,-1
 64 -14 l 1,1,-1
 39 47 l 1,2,-1
 515 245 l 1,3,-1
 515 252 l 1,4,-1
 39 450 l 1,5,-1
 64 511 l 1,6,-1
 683 248 l 1,0,-1
EndSplineSet
Validated: 1
EndChar

StartChar: question
Encoding: 63 63 33
Width: 542
Flags: W
LayerCount: 2
Fore
SplineSet
163 197 m 1,0,-1
 163 413 l 1,1,2
 212 388 212 388 241 386 c 0,3,4
 279 386 279 386 310.5 411.5 c 128,-1,5
 342 437 342 437 343 507 c 0,6,7
 347 599 347 599 314 645.5 c 128,-1,8
 281 692 281 692 237 692 c 0,9,10
 212 692 212 692 194 677 c 0,11,12
 192 675 192 675 183 659.5 c 128,-1,13
 174 644 174 644 172 641 c 0,14,15
 153 595 153 595 111 596 c 0,16,17
 91 597 91 597 81 609.5 c 128,-1,18
 71 622 71 622 71 639 c 0,19,20
 71 667 71 667 101.5 692 c 128,-1,21
 132 717 132 717 181 723 c 0,22,23
 238 729 238 729 298 702.5 c 128,-1,24
 358 676 358 676 399.5 617.5 c 128,-1,25
 441 559 441 559 445 478 c 0,26,27
 448 420 448 420 428 374 c 128,-1,28
 408 328 408 328 372 301 c 128,-1,29
 336 274 336 274 295 273 c 0,30,31
 263 273 263 273 243 279 c 0,32,33
 229 284 229 284 211 289 c 0,34,35
 209 290 209 290 206.5 290.5 c 128,-1,36
 204 291 204 291 200 291 c 2,37,-1
 183 197 l 1,38,-1
 163 197 l 1,0,-1
98 58 m 0,39,40
 98 89 98 89 119.5 110.5 c 128,-1,41
 141 132 141 132 169 132 c 0,42,43
 198 132 198 132 220.5 110.5 c 128,-1,44
 243 89 243 89 243 58 c 0,45,46
 243 28 243 28 221 8 c 128,-1,47
 199 -12 199 -12 169 -12 c 0,48,49
 140 -12 140 -12 119 8 c 128,-1,50
 98 28 98 28 98 58 c 0,39,40
EndSplineSet
Validated: 33
EndChar

StartChar: at
Encoding: 64 64 34
Width: 1041
Flags: W
LayerCount: 2
Fore
SplineSet
811 566 m 1,0,-1
 734 311 l 2,1,2
 718 264 718 264 717 223 c 0,3,4
 715 147 715 147 788 147 c 0,5,6
 853 147 853 147 899.5 213.5 c 128,-1,7
 946 280 946 280 949 382 c 0,8,9
 953 456 953 456 925 528.5 c 128,-1,10
 897 601 897 601 840 656.5 c 128,-1,11
 783 712 783 712 703.5 743 c 128,-1,12
 624 774 624 774 527 774 c 0,13,14
 436 774 436 774 358 743.5 c 128,-1,15
 280 713 280 713 223 657 c 128,-1,16
 166 601 166 601 134 522 c 128,-1,17
 102 443 102 443 100 345 c 0,18,19
 99 209 99 209 159.5 110 c 128,-1,20
 220 11 220 11 316.5 -38 c 128,-1,21
 413 -87 413 -87 522 -89 c 0,22,23
 577 -89 577 -89 641.5 -71.5 c 128,-1,24
 706 -54 706 -54 771 -3 c 1,25,-1
 811 -54 l 1,26,27
 733 -112 733 -112 661 -132 c 128,-1,28
 589 -152 589 -152 522 -154 c 0,29,30
 422 -154 422 -154 331 -118.5 c 128,-1,31
 240 -83 240 -83 172 -17.5 c 128,-1,32
 104 48 104 48 66.5 137.5 c 128,-1,33
 29 227 29 227 29 334 c 0,34,35
 29 463 29 463 89 577.5 c 128,-1,36
 149 692 149 692 262 761.5 c 128,-1,37
 375 831 375 831 527 832 c 0,38,39
 637 833 637 833 729 796.5 c 128,-1,40
 821 760 821 760 884.5 695.5 c 128,-1,41
 948 631 948 631 980.5 550.5 c 128,-1,42
 1013 470 1013 470 1013 381 c 0,43,44
 1011 264 1011 264 953.5 172 c 128,-1,45
 896 80 896 80 766 83 c 0,46,47
 657 83 657 83 613 169 c 1,48,49
 521 84 521 84 433 84 c 0,50,51
 376 82 376 82 333 108.5 c 128,-1,52
 290 135 290 135 264 183 c 128,-1,53
 238 231 238 231 235 289 c 0,54,55
 229 371 229 371 264.5 445 c 128,-1,56
 300 519 300 519 364.5 562.5 c 128,-1,57
 429 606 429 606 502 605 c 0,58,59
 549 605 549 605 585 586 c 128,-1,60
 621 567 621 567 638.5 546.5 c 128,-1,61
 656 526 656 526 663 511 c 1,62,-1
 683 566 l 1,63,-1
 811 566 l 1,0,-1
637 443 m 2,64,65
 637 450 637 450 633.5 461 c 128,-1,66
 630 472 630 472 620 486.5 c 128,-1,67
 610 501 610 501 593.5 511 c 128,-1,68
 577 521 577 521 553 521 c 0,69,70
 500 521 500 521 459.5 486 c 128,-1,71
 419 451 419 451 396.5 396 c 128,-1,72
 374 341 374 341 374 280 c 0,73,74
 374 227 374 227 397.5 191.5 c 128,-1,75
 421 156 421 156 468 155 c 0,76,77
 536 154 536 154 578 231 c 1,78,-1
 637 443 l 2,64,65
EndSplineSet
Validated: 33
EndChar

StartChar: A
Encoding: 65 65 35
Width: 746
Flags: W
LayerCount: 2
Fore
SplineSet
381 723 m 1,0,-1
 421 723 l 1,1,-1
 656 81 l 2,2,3
 676 24 676 24 712 0 c 1,4,-1
 497 0 l 1,5,6
 518 12 518 12 518 39 c 0,7,8
 518 54 518 54 511 71 c 2,9,-1
 461 216 l 1,10,-1
 211 216 l 1,11,-1
 168 98 l 2,12,13
 158 76 158 76 158 58 c 0,14,15
 157 15 157 15 191 0 c 1,16,-1
 41 0 l 1,17,18
 73 24 73 24 90 50 c 0,19,20
 93 55 93 55 95.5 59.5 c 128,-1,21
 98 64 98 64 100 69 c 128,-1,22
 102 74 102 74 104 78 c 0,23,24
 107 81 107 81 111 90 c 2,25,-1
 292 566 l 2,26,27
 295 573 295 573 297.5 583 c 128,-1,28
 300 593 300 593 302 602 c 0,29,30
 305 624 305 624 295.5 638.5 c 128,-1,31
 286 653 286 653 266 653 c 1,32,-1
 266 659 l 1,33,34
 293 662 293 662 328 683 c 128,-1,35
 363 704 363 704 381 723 c 1,0,-1
348 522 m 2,36,37
 346 526 346 526 345.5 527.5 c 128,-1,38
 345 529 345 529 343 533 c 0,39,40
 340 539 340 539 338.5 541.5 c 128,-1,41
 337 544 337 544 335 544 c 256,42,43
 333 544 333 544 330 537 c 128,-1,44
 327 530 327 530 325 524 c 2,45,-1
 235 277 l 2,46,47
 235 276 235 276 233.5 272.5 c 128,-1,48
 232 269 232 269 231 266 c 0,49,50
 231 257 231 257 231 257 c 2,51,52
 232 254 232 254 246 254 c 2,53,-1
 422 254 l 1,54,-1
 430 254 l 2,55,56
 434 254 434 254 437.5 253.5 c 128,-1,57
 441 253 441 253 442 254 c 0,58,59
 443 256 443 256 441 262 c 128,-1,60
 439 268 439 268 439 271 c 2,61,-1
 348 522 l 2,36,37
EndSplineSet
Validated: 33
EndChar

StartChar: B
Encoding: 66 66 36
Width: 746
Flags: W
LayerCount: 2
Fore
SplineSet
120 707 m 1,0,1
 195 712 195 712 280 712 c 0,2,3
 623 712 623 712 624 539 c 0,4,5
 624 483 624 483 588.5 446.5 c 128,-1,6
 553 410 553 410 513 399 c 0,7,8
 498 394 498 394 496 393 c 0,9,10
 487 389 487 389 487 386 c 0,11,12
 487 384 487 384 494 379 c 0,13,14
 508 371 508 371 533 365 c 0,15,16
 583 354 583 354 625 310 c 128,-1,17
 667 266 667 266 667 195 c 0,18,19
 669 110 669 110 601 55 c 128,-1,20
 533 0 533 0 422 0 c 2,21,-1
 120 -1 l 1,22,23
 143 17 143 17 151.5 37 c 128,-1,24
 160 57 160 57 160 92 c 2,25,-1
 160 613 l 2,26,27
 160 678 160 678 120 707 c 1,0,1
299 413 m 2,28,29
 299 400 299 400 308 399 c 2,30,-1
 317 399 l 2,31,32
 346 399 346 399 360 400 c 0,33,34
 417 405 417 405 452.5 438 c 128,-1,35
 488 471 488 471 490 526 c 0,36,37
 493 603 493 603 452.5 633 c 128,-1,38
 412 663 412 663 379 667 c 0,39,40
 340 675 340 675 319.5 661 c 128,-1,41
 299 647 299 647 299 620 c 2,42,-1
 299 413 l 2,28,29
299 87 m 2,43,44
 299 36 299 36 365 36 c 0,45,46
 413 36 413 36 448 56 c 128,-1,47
 483 76 483 76 502 111 c 128,-1,48
 521 146 521 146 521 195 c 0,49,50
 519 262 519 262 480 305.5 c 128,-1,51
 441 349 441 349 365 356 c 0,52,53
 349 357 349 357 316 357 c 0,54,55
 304 357 304 357 303 356 c 0,56,57
 299 353 299 353 299 345 c 2,58,-1
 299 87 l 2,43,44
EndSplineSet
Validated: 33
EndChar

StartChar: C
Encoding: 67 67 37
Width: 746
Flags: W
LayerCount: 2
Fore
SplineSet
677 518 m 1,0,-1
 644 518 l 1,1,2
 632 563 632 563 607 600.5 c 128,-1,3
 582 638 582 638 547.5 658 c 128,-1,4
 513 678 513 678 472 680 c 0,5,6
 423 680 423 680 376.5 645.5 c 128,-1,7
 330 611 330 611 300.5 536.5 c 128,-1,8
 271 462 271 462 268 343 c 256,9,10
 265 224 265 224 294.5 152.5 c 128,-1,11
 324 81 324 81 371 51 c 128,-1,12
 418 21 418 21 470 24 c 0,13,14
 547 29 547 29 594.5 85 c 128,-1,15
 642 141 642 141 664 205 c 1,16,-1
 695 205 l 1,17,-1
 677 41 l 1,18,19
 640 17 640 17 572 1.5 c 128,-1,20
 504 -14 504 -14 447 -14 c 0,21,22
 302 -14 302 -14 203 89 c 128,-1,23
 104 192 104 192 104 345 c 0,24,25
 105 452 105 452 149 539 c 128,-1,26
 193 626 193 626 271 674.5 c 128,-1,27
 349 723 349 723 447 723 c 0,28,29
 521 723 521 723 584 698 c 128,-1,30
 647 673 647 673 677 653 c 1,31,-1
 677 518 l 1,0,-1
EndSplineSet
Validated: 33
EndChar

StartChar: D
Encoding: 68 68 38
Width: 836
Flags: W
LayerCount: 2
Fore
SplineSet
117 707 m 1,0,-1
 367 707 l 2,1,2
 503 707 503 707 636 644 c 128,-1,3
 769 581 769 581 772 364 c 0,4,5
 774 276 774 276 734 193 c 128,-1,6
 694 110 694 110 606.5 57 c 128,-1,7
 519 4 519 4 385 1 c 2,8,-1
 313 0 l 1,9,-1
 117 0 l 1,10,11
 157 31 157 31 157 93 c 2,12,-1
 157 613 l 2,13,14
 157 675 157 675 117 707 c 1,0,-1
299 117 m 2,15,16
 299 76 299 76 306.5 61.5 c 128,-1,17
 314 47 314 47 364 46 c 0,18,19
 435 44 435 44 492 73.5 c 128,-1,20
 549 103 549 103 581.5 172.5 c 128,-1,21
 614 242 614 242 613 353 c 0,22,23
 613 540 613 540 544 598 c 128,-1,24
 475 656 475 656 391 659 c 0,25,26
 353 663 353 663 331 658.5 c 128,-1,27
 309 654 309 654 302 632 c 0,28,29
 299 623 299 623 299 604 c 2,30,-1
 299 576 l 1,31,-1
 299 117 l 2,15,16
EndSplineSet
Validated: 33
EndChar

StartChar: E
Encoding: 69 69 39
Width: 723
Flags: W
LayerCount: 2
Fore
SplineSet
630 555 m 1,0,-1
 616 555 l 1,1,2
 595 596 595 596 547.5 627 c 128,-1,3
 500 658 500 658 450 658 c 2,4,-1
 356 658 l 2,5,6
 316 658 316 658 316 615 c 2,7,-1
 316 414 l 1,8,-1
 450 414 l 2,9,10
 529 414 529 414 572 461 c 1,11,-1
 572 317 l 1,12,13
 564 325 564 325 559 328 c 0,14,15
 538 346 538 346 535 348 c 0,16,17
 505 365 505 365 450 365 c 2,18,-1
 316 365 l 1,19,-1
 316 118 l 2,20,21
 316 108 316 108 317 103 c 0,22,23
 317 86 317 86 320 78 c 0,24,25
 334 47 334 47 381 47 c 2,26,-1
 494 47 l 2,27,28
 538 47 538 47 587 73.5 c 128,-1,29
 636 100 636 100 669 157 c 1,30,-1
 683 157 l 1,31,-1
 647 0 l 1,32,-1
 133 0 l 1,33,34
 156 18 156 18 165 38 c 128,-1,35
 174 58 174 58 174 93 c 2,36,-1
 174 613 l 2,37,38
 174 649 174 649 165 669 c 128,-1,39
 156 689 156 689 133 707 c 1,40,-1
 599 707 l 1,41,-1
 630 555 l 1,0,-1
EndSplineSet
Validated: 1
EndChar

StartChar: F
Encoding: 70 70 40
Width: 677
Flags: W
LayerCount: 2
Fore
SplineSet
644 555 m 1,0,-1
 629 555 l 1,1,2
 575 658 575 658 440 658 c 2,3,-1
 331 658 l 2,4,5
 291 658 291 658 291 615 c 2,6,-1
 291 414 l 1,7,-1
 433 414 l 2,8,9
 510 414 510 414 556 461 c 1,10,-1
 556 317 l 1,11,12
 521 351 521 351 499.5 358 c 128,-1,13
 478 365 478 365 433 365 c 2,14,-1
 291 365 l 1,15,-1
 291 118 l 1,16,-1
 291 93 l 2,17,18
 291 59 291 59 299 38.5 c 128,-1,19
 307 18 307 18 330 0 c 1,20,-1
 109 0 l 1,21,22
 132 18 132 18 140.5 38.5 c 128,-1,23
 149 59 149 59 149 93 c 2,24,-1
 149 613 l 2,25,26
 149 648 149 648 140.5 668.5 c 128,-1,27
 132 689 132 689 109 707 c 1,28,-1
 612 707 l 1,29,-1
 644 555 l 1,0,-1
EndSplineSet
Validated: 1
EndChar

StartChar: G
Encoding: 71 71 41
Width: 836
Flags: W
LayerCount: 2
Fore
SplineSet
696 516 m 1,0,-1
 664 516 l 1,1,2
 645 591 645 591 597.5 634.5 c 128,-1,3
 550 678 550 678 493 680 c 0,4,5
 414 680 414 680 353 600 c 128,-1,6
 292 520 292 520 288 343 c 0,7,8
 285 240 285 240 308 168.5 c 128,-1,9
 331 97 331 97 374 62.5 c 128,-1,10
 417 28 417 28 468 28 c 0,11,12
 489 28 489 28 505 32 c 0,13,14
 558 45 558 45 576.5 77 c 128,-1,15
 595 109 595 109 595 165 c 2,16,-1
 595 294 l 2,17,18
 595 380 595 380 548 405 c 1,19,-1
 772 405 l 1,20,21
 772 405 772 405 761 394 c 0,22,23
 759 392 759 392 755 388 c 128,-1,24
 751 384 751 384 747 379 c 0,25,26
 724 353 724 353 724 306 c 2,27,-1
 724 166 l 2,28,29
 724 106 724 106 772 89 c 1,30,31
 627 -14 627 -14 473 -14 c 0,32,33
 374 -16 374 -16 295 30 c 128,-1,34
 216 76 216 76 169.5 159 c 128,-1,35
 123 242 123 242 123 345 c 0,36,37
 124 454 124 454 168 540 c 128,-1,38
 212 626 212 626 288.5 673.5 c 128,-1,39
 365 721 365 721 465 723 c 0,40,41
 537 723 537 723 598.5 699.5 c 128,-1,42
 660 676 660 676 696 653 c 1,43,-1
 696 516 l 1,0,-1
EndSplineSet
Validated: 33
EndChar

StartChar: H
Encoding: 72 72 42
Width: 858
Flags: W
LayerCount: 2
Fore
SplineSet
451 370 m 1,0,-1
 327 370 l 1,1,-1
 327 93 l 2,2,3
 327 30 327 30 367 0 c 1,4,-1
 144 0 l 1,5,6
 184 30 184 30 184 93 c 2,7,-1
 184 613 l 2,8,9
 184 677 184 677 144 707 c 1,10,-1
 367 707 l 1,11,12
 327 677 327 677 327 613 c 2,13,-1
 327 424 l 1,14,-1
 576 424 l 1,15,-1
 576 613 l 2,16,17
 576 648 576 648 568.5 668.5 c 128,-1,18
 561 689 561 689 537 707 c 1,19,-1
 760 707 l 1,20,21
 737 690 737 690 727.5 668 c 128,-1,22
 718 646 718 646 718 613 c 2,23,-1
 718 93 l 2,24,25
 718 62 718 62 727.5 39.5 c 128,-1,26
 737 17 737 17 760 0 c 1,27,-1
 537 0 l 1,28,29
 561 18 561 18 568.5 38.5 c 128,-1,30
 576 59 576 59 576 93 c 2,31,-1
 576 370 l 1,32,-1
 451 370 l 1,0,-1
EndSplineSet
Validated: 1
EndChar

StartChar: I
Encoding: 73 73 43
Width: 451
Flags: W
LayerCount: 2
Fore
SplineSet
132 707 m 1,0,-1
 354 707 l 1,1,2
 313 676 313 676 313 613 c 2,3,-1
 313 93 l 2,4,5
 313 29 313 29 354 0 c 1,6,-1
 132 0 l 1,7,8
 154 17 154 17 162.5 38 c 128,-1,9
 171 59 171 59 171 93 c 2,10,-1
 171 613 l 2,11,12
 171 648 171 648 162.5 669.5 c 128,-1,13
 154 691 154 691 132 707 c 1,0,-1
EndSplineSet
Validated: 1
EndChar

StartChar: J
Encoding: 74 74 44
Width: 519
Flags: W
LayerCount: 2
Fore
SplineSet
211 707 m 1,0,-1
 432 707 l 1,1,2
 409 689 409 689 401 668.5 c 128,-1,3
 393 648 393 648 393 613 c 2,4,-1
 393 257 l 2,5,6
 393 151 393 151 361.5 72.5 c 128,-1,7
 330 -6 330 -6 192 -14 c 0,8,9
 125 -17 125 -17 80 15 c 128,-1,10
 35 47 35 47 32 86 c 0,11,12
 30 113 30 113 46 132 c 128,-1,13
 62 151 62 151 89 151 c 0,14,15
 150 154 150 154 172 71 c 0,16,17
 176 56 176 56 183 46 c 0,18,19
 192 30 192 30 212 30 c 0,20,21
 251 29 251 29 255 83 c 0,22,23
 255 111 255 111 254 125 c 0,24,25
 254 139 254 139 253.5 147.5 c 128,-1,26
 253 156 253 156 252 165 c 0,27,28
 251 201 251 201 251 228 c 2,29,-1
 251 613 l 2,30,31
 251 675 251 675 211 707 c 1,0,-1
EndSplineSet
Validated: 33
EndChar

StartChar: K
Encoding: 75 75 45
Width: 789
Flags: W
LayerCount: 2
Fore
SplineSet
317 268 m 1,0,-1
 317 93 l 2,1,2
 317 29 317 29 357 0 c 1,3,-1
 135 0 l 1,4,5
 176 30 176 30 176 93 c 2,6,-1
 176 613 l 2,7,8
 176 672 176 672 135 709 c 1,9,-1
 357 709 l 1,10,11
 333 688 333 688 325 668 c 128,-1,12
 317 648 317 648 317 613 c 2,13,-1
 317 346 l 1,14,-1
 544 602 l 2,15,16
 547 605 547 605 553 615 c 0,17,18
 558 625 558 625 564 632 c 0,19,20
 578 657 578 657 575 672 c 0,21,22
 569 699 569 699 544 707 c 1,23,-1
 731 707 l 2,24,25
 728 706 728 706 720.5 701 c 128,-1,26
 713 696 713 696 713 696 c 2,27,28
 708 693 708 693 699.5 686.5 c 128,-1,29
 691 680 691 680 683 675 c 0,30,31
 655 654 655 654 629 624 c 2,32,-1
 481 454 l 1,33,-1
 515 356 l 2,34,35
 517 350 517 350 521.5 340 c 128,-1,36
 526 330 526 330 532 316 c 0,37,38
 565 237 565 237 573 219 c 0,39,40
 610 139 610 139 660 60 c 128,-1,41
 710 -19 710 -19 761 -68 c 1,42,-1
 746 -84 l 1,43,44
 644 -24 644 -24 573.5 41 c 128,-1,45
 503 106 503 106 456 192 c 2,46,-1
 378 335 l 1,47,-1
 317 268 l 1,0,-1
EndSplineSet
Validated: 33
EndChar

StartChar: L
Encoding: 76 76 46
Width: 699
Flags: W
LayerCount: 2
Fore
SplineSet
672 154 m 1,0,-1
 641 0 l 1,1,-1
 129 0 l 1,2,3
 151 17 151 17 159.5 38 c 128,-1,4
 168 59 168 59 168 93 c 2,5,-1
 168 613 l 2,6,7
 168 648 168 648 159.5 669.5 c 128,-1,8
 151 691 151 691 129 707 c 1,9,-1
 351 707 l 1,10,11
 311 677 311 677 311 613 c 2,12,-1
 311 588 l 1,13,-1
 311 92 l 2,14,15
 311 49 311 49 351 49 c 2,16,-1
 468 49 l 2,17,18
 516 49 516 49 571 70 c 128,-1,19
 626 91 626 91 658 154 c 1,20,-1
 672 154 l 1,0,-1
EndSplineSet
Validated: 1
EndChar

StartChar: M
Encoding: 77 77 47
Width: 971
Flags: W
LayerCount: 2
Fore
SplineSet
373 707 m 1,0,-1
 505 255 l 1,1,-1
 629 707 l 1,2,-1
 832 707 l 1,3,4
 819 701 819 701 805.5 684 c 128,-1,5
 792 667 792 667 789 637 c 0,6,7
 789 631 789 631 791 622 c 128,-1,8
 793 613 793 613 793 609 c 0,9,10
 793 602 793 602 797 588 c 2,11,-1
 871 92 l 2,12,13
 873 86 873 86 875 75.5 c 128,-1,14
 877 65 877 65 882.5 52 c 128,-1,15
 888 39 888 39 898.5 25.5 c 128,-1,16
 909 12 909 12 925 0 c 1,17,-1
 701 0 l 1,18,19
 731 22 731 22 732.5 39.5 c 128,-1,20
 734 57 734 57 729 93 c 2,21,-1
 650 588 l 1,22,-1
 490 0 l 1,23,-1
 427 0 l 1,24,-1
 255 588 l 1,25,-1
 184 89 l 2,26,27
 176 36 176 36 219 0 c 1,28,-1
 74 0 l 1,29,30
 125 39 125 39 133 93 c 2,31,-1
 203 588 l 2,32,33
 209 639 209 639 208 649 c 0,34,35
 202 692 202 692 168 707 c 1,36,-1
 373 707 l 1,0,-1
EndSplineSet
Validated: 33
EndChar

StartChar: N
Encoding: 78 78 48
Width: 836
Flags: W
LayerCount: 2
Fore
SplineSet
644 212 m 1,0,-1
 644 588 l 2,1,2
 644 626 644 626 637.5 650 c 128,-1,3
 631 674 631 674 601 707 c 1,4,-1
 752 707 l 2,5,6
 750 705 750 705 747 702 c 128,-1,7
 744 699 744 699 741 696 c 0,8,9
 728 683 728 683 723 675 c 0,10,11
 704 647 704 647 704 588 c 2,12,-1
 704 0 l 1,13,-1
 601 0 l 1,14,-1
 238 535 l 1,15,-1
 238 112 l 2,16,17
 238 89 238 89 240.5 72 c 128,-1,18
 243 55 243 55 252.5 36.5 c 128,-1,19
 262 18 262 18 283 0 c 1,20,-1
 130 0 l 1,21,22
 176 36 176 36 176 112 c 2,23,-1
 176 583 l 2,24,25
 176 668 176 668 130 707 c 1,26,-1
 305 707 l 1,27,-1
 644 212 l 1,0,-1
EndSplineSet
Validated: 1
EndChar

StartChar: O
Encoding: 79 79 49
Width: 789
Flags: W
LayerCount: 2
Fore
SplineSet
87 354 m 0,0,1
 87 471 87 471 133 554.5 c 128,-1,2
 179 638 179 638 252.5 680.5 c 128,-1,3
 326 723 326 723 408 723 c 0,4,5
 490 721 490 721 561.5 678 c 128,-1,6
 633 635 633 635 678 550.5 c 128,-1,7
 723 466 723 466 723 354 c 0,8,9
 723 264 723 264 696.5 195.5 c 128,-1,10
 670 127 670 127 624.5 81 c 128,-1,11
 579 35 579 35 523 11.5 c 128,-1,12
 467 -12 467 -12 408 -14 c 0,13,14
 326 -14 326 -14 253 27.5 c 128,-1,15
 180 69 180 69 133.5 152 c 128,-1,16
 87 235 87 235 87 354 c 0,0,1
234 354 m 256,17,18
 234 223 234 223 269 126 c 128,-1,19
 304 29 304 29 405 29 c 0,20,21
 576 30 576 30 576 354 c 256,22,23
 576 678 576 678 405 680 c 0,24,25
 304 680 304 680 269 582.5 c 128,-1,26
 234 485 234 485 234 354 c 256,17,18
EndSplineSet
Validated: 1
EndChar

StartChar: P
Encoding: 80 80 50
Width: 746
Flags: W
LayerCount: 2
Fore
SplineSet
311 268 m 1,0,-1
 311 93 l 2,1,2
 311 26 311 26 351 0 c 1,3,-1
 123 0 l 1,4,5
 163 30 163 30 163 93 c 2,6,-1
 163 613 l 2,7,8
 163 677 163 677 123 707 c 1,9,10
 133 708 133 708 141.5 708.5 c 128,-1,11
 150 709 150 709 163 709 c 0,12,13
 177 710 177 710 193.5 711.5 c 128,-1,14
 210 713 210 713 217 713 c 0,15,16
 254 717 254 717 327 717 c 0,17,18
 452 714 452 714 531.5 678.5 c 128,-1,19
 611 643 611 643 644 590.5 c 128,-1,20
 677 538 677 538 675 478 c 0,21,22
 675 410 675 410 645 367 c 128,-1,23
 615 324 615 324 564.5 303.5 c 128,-1,24
 514 283 514 283 450.5 276.5 c 128,-1,25
 387 270 387 270 311 268 c 1,0,-1
311 310 m 1,26,27
 436 309 436 309 478.5 359 c 128,-1,28
 521 409 521 409 521 484 c 0,29,30
 521 550 521 550 500 589.5 c 128,-1,31
 479 629 479 629 451 646 c 128,-1,32
 423 663 423 663 388 669 c 0,33,34
 311 682 311 682 311 626 c 2,35,-1
 311 310 l 1,26,27
EndSplineSet
Validated: 33
EndChar

StartChar: Q
Encoding: 81 81 51
Width: 836
Flags: W
LayerCount: 2
Fore
SplineSet
786 -21 m 1,0,-1
 800 -35 l 1,1,2
 734 -111 734 -111 667 -109 c 0,3,4
 628 -108 628 -108 595.5 -83.5 c 128,-1,5
 563 -59 563 -59 507 1 c 1,6,7
 443 -14 443 -14 411 -14 c 0,8,9
 329 -14 329 -14 256 27.5 c 128,-1,10
 183 69 183 69 136.5 152.5 c 128,-1,11
 90 236 90 236 90 354 c 0,12,13
 90 528 90 528 187 625.5 c 128,-1,14
 284 723 284 723 411 723 c 0,15,16
 494 721 494 721 566 678.5 c 128,-1,17
 638 636 638 636 682 552.5 c 128,-1,18
 726 469 726 469 726 354 c 0,19,20
 726 157 726 157 595 49 c 1,21,-1
 613 32 l 2,22,23
 617 28 617 28 623 21 c 128,-1,24
 629 14 629 14 632 10 c 0,25,26
 645 -1 645 -1 653.5 -9 c 128,-1,27
 662 -17 662 -17 672 -24 c 0,28,29
 699 -47 699 -47 732 -46 c 0,30,31
 765 -42 765 -42 786 -21 c 1,0,-1
238 354 m 0,32,33
 238 27 238 27 410 29 c 0,34,35
 438 30 438 30 470 44 c 1,36,37
 425 108 425 108 388 108 c 0,38,39
 384 108 384 108 371 106 c 128,-1,40
 358 104 358 104 354 103 c 1,41,-1
 346 120 l 1,42,43
 402 155 402 155 447 154 c 0,44,45
 486 150 486 150 533 109 c 1,46,47
 554 140 554 140 567 193.5 c 128,-1,48
 580 247 580 247 580 354 c 0,49,50
 580 480 580 480 546.5 579.5 c 128,-1,51
 513 679 513 679 410 680 c 0,52,53
 238 680 238 680 238 354 c 0,32,33
EndSplineSet
Validated: 33
EndChar

StartChar: R
Encoding: 82 82 52
AltUni2: 000095.ffffffff.0
Width: 767
Flags: W
LayerCount: 2
Fore
SplineSet
120 707 m 1,0,1
 204 716 204 716 241 718.5 c 128,-1,2
 278 721 278 721 311.5 721.5 c 128,-1,3
 345 722 345 722 351 721 c 0,4,5
 463 720 463 720 531.5 689.5 c 128,-1,6
 600 659 600 659 630 618.5 c 128,-1,7
 660 578 660 578 669 544 c 128,-1,8
 678 510 678 510 678 490 c 0,9,10
 681 404 681 404 627 363 c 128,-1,11
 573 322 573 322 510 306 c 1,12,13
 529 214 529 214 598 99.5 c 128,-1,14
 667 -15 667 -15 735 -66 c 1,15,-1
 717 -89 l 1,16,17
 634 -40 634 -40 569 17.5 c 128,-1,18
 504 75 504 75 456 140 c 128,-1,19
 408 205 408 205 371 292 c 1,20,21
 340 292 340 292 303 297 c 1,22,-1
 303 93 l 2,23,24
 303 30 303 30 343 0 c 1,25,-1
 120 0 l 1,26,27
 160 29 160 29 160 93 c 2,28,-1
 160 613 l 2,29,30
 160 677 160 677 120 707 c 1,0,1
303 340 m 1,31,32
 325 334 325 334 360 334 c 0,33,34
 519 341 519 341 519 507 c 0,35,36
 519 580 519 580 485 618.5 c 128,-1,37
 451 657 451 657 410.5 668.5 c 128,-1,38
 370 680 370 680 343 677 c 0,39,40
 318 676 318 676 310.5 662 c 128,-1,41
 303 648 303 648 303 618 c 2,42,-1
 303 340 l 1,31,32
EndSplineSet
Validated: 33
EndChar

StartChar: S
Encoding: 83 83 53
Width: 699
Flags: W
LayerCount: 2
Fore
SplineSet
562 535 m 1,0,-1
 542 535 l 1,1,2
 524 592 524 592 467 633.5 c 128,-1,3
 410 675 410 675 348 675 c 0,4,5
 294 675 294 675 264 644.5 c 128,-1,6
 234 614 234 614 234 576 c 0,7,8
 234 532 234 532 273 502 c 0,9,10
 287 491 287 491 331 467 c 0,11,12
 500 383 500 383 562 329 c 128,-1,13
 624 275 624 275 623 192 c 0,14,15
 622 100 622 100 547.5 43 c 128,-1,16
 473 -14 473 -14 365 -14 c 0,17,18
 272 -14 272 -14 143 35 c 1,19,-1
 125 184 l 1,20,-1
 143 184 l 1,21,22
 175 115 175 115 239 74 c 128,-1,23
 303 33 303 33 365 30 c 0,24,25
 425 30 425 30 466.5 58 c 128,-1,26
 508 86 508 86 507 141 c 0,27,28
 507 180 507 180 478.5 209.5 c 128,-1,29
 450 239 450 239 378 276 c 0,30,31
 354 290 354 290 279 327 c 1,32,33
 205 369 205 369 168.5 411 c 128,-1,34
 132 453 132 453 129 524 c 0,35,36
 128 585 128 585 157.5 630.5 c 128,-1,37
 187 676 187 676 239.5 699.5 c 128,-1,38
 292 723 292 723 356 723 c 0,39,40
 462 720 462 720 553 667 c 1,41,-1
 562 535 l 1,0,-1
EndSplineSet
Validated: 33
EndChar

StartChar: T
Encoding: 84 84 54
Width: 746
Flags: W
LayerCount: 2
Fore
SplineSet
382 0 m 1,0,-1
 277 0 l 1,1,2
 302 18 302 18 309.5 38.5 c 128,-1,3
 317 59 317 59 317 93 c 2,4,-1
 317 590 l 1,5,-1
 317 612 l 2,6,7
 317 632 317 632 316 635 c 0,8,9
 308 661 308 661 273 658 c 0,10,11
 250 655 250 655 220 640.5 c 128,-1,12
 190 626 190 626 164 602 c 128,-1,13
 138 578 138 578 130 559 c 1,14,-1
 106 559 l 1,15,-1
 143 707 l 1,16,-1
 642 707 l 1,17,-1
 678 559 l 1,18,-1
 655 559 l 1,19,20
 644 581 644 581 619 603.5 c 128,-1,21
 594 626 594 626 564 640.5 c 128,-1,22
 534 655 534 655 511 658 c 0,23,24
 476 662 476 662 468 635 c 0,25,26
 467 627 467 627 467 612 c 2,27,-1
 467 590 l 1,28,-1
 467 93 l 2,29,30
 467 59 467 59 476 38.5 c 128,-1,31
 485 18 485 18 507 0 c 1,32,-1
 382 0 l 1,0,-1
EndSplineSet
Validated: 33
EndChar

StartChar: U
Encoding: 85 85 55
Width: 858
Flags: W
LayerCount: 2
Fore
SplineSet
618 707 m 1,0,-1
 767 707 l 1,1,2
 737 680 737 680 729 659.5 c 128,-1,3
 721 639 721 639 721 601 c 2,4,-1
 721 222 l 2,5,6
 721 168 721 168 708 120 c 128,-1,7
 695 72 695 72 639 30.5 c 128,-1,8
 583 -11 583 -11 467 -14 c 0,9,10
 276 -18 276 -18 223.5 60.5 c 128,-1,11
 171 139 171 139 171 251 c 2,12,-1
 171 615 l 2,13,14
 171 676 171 676 132 707 c 1,15,-1
 353 707 l 1,16,17
 330 689 330 689 321.5 669 c 128,-1,18
 313 649 313 649 313 615 c 2,19,-1
 313 208 l 2,20,21
 313 150 313 150 346.5 92 c 128,-1,22
 380 34 380 34 496 39 c 0,23,24
 563 43 563 43 606 73.5 c 128,-1,25
 649 104 649 104 658 147 c 0,26,27
 663 166 663 166 663 205 c 2,28,-1
 663 255 l 1,29,-1
 663 596 l 2,30,31
 663 641 663 641 657 661 c 128,-1,32
 651 681 651 681 618 707 c 1,0,-1
EndSplineSet
Validated: 33
EndChar

StartChar: V
Encoding: 86 86 56
Width: 789
Flags: W
LayerCount: 2
Fore
SplineSet
467 169 m 1,0,-1
 613 584 l 2,1,2
 624 621 624 621 624 644 c 0,3,4
 630 683 630 683 595 707 c 1,5,-1
 757 707 l 1,6,7
 738 696 738 696 723 678 c 128,-1,8
 708 660 708 660 695 636 c 128,-1,9
 682 612 682 612 674 593 c 128,-1,10
 666 574 666 574 664 569 c 2,11,-1
 467 0 l 1,12,-1
 376 0 l 1,13,-1
 177 583 l 2,14,15
 176 590 176 590 172.5 597.5 c 128,-1,16
 169 605 169 605 166 612 c 2,17,18
 166 612 166 612 154 642 c 0,19,20
 135 692 135 692 89 707 c 1,21,-1
 343 707 l 1,22,23
 306 693 306 693 306 658 c 0,24,25
 305 642 305 642 316 618 c 2,26,-1
 467 169 l 1,0,-1
EndSplineSet
Validated: 33
EndChar

StartChar: W
Encoding: 87 87 57
Width: 1038
Flags: W
LayerCount: 2
Fore
SplineSet
548 413 m 1,0,-1
 410 0 l 1,1,-1
 343 0 l 1,2,-1
 147 572 l 2,3,4
 131 623 131 623 116.5 649.5 c 128,-1,5
 102 676 102 676 52 707 c 1,6,-1
 313 707 l 1,7,8
 277 674 277 674 277 639 c 0,9,10
 280 614 280 614 292 573 c 2,11,-1
 410 214 l 1,12,-1
 518 510 l 1,13,-1
 488 607 l 2,14,15
 477 644 477 644 464 662.5 c 128,-1,16
 451 681 451 681 410 707 c 1,17,-1
 661 707 l 1,18,19
 631 680 631 680 627 650 c 0,20,21
 626 619 626 619 642 569 c 2,22,-1
 757 214 l 1,23,-1
 872 588 l 2,24,25
 880 614 880 614 880 644 c 0,26,27
 878 681 878 681 839 707 c 1,28,-1
 1009 707 l 1,29,30
 985 683 985 683 973 661 c 0,31,32
 969 652 969 652 965 644 c 128,-1,33
 961 636 961 636 955 624 c 0,34,35
 939 587 939 587 937 580 c 2,36,-1
 744 0 l 1,37,-1
 680 0 l 1,38,-1
 548 413 l 1,0,-1
EndSplineSet
Validated: 33
EndChar

StartChar: X
Encoding: 88 88 58
Width: 746
Flags: W
LayerCount: 2
Fore
SplineSet
410 478 m 1,0,-1
 473 593 l 2,1,2
 483 609 483 609 488.5 620 c 128,-1,3
 494 631 494 631 496 647 c 0,4,5
 498 662 498 662 494 672 c 0,6,7
 489 685 489 685 482 695 c 0,8,9
 473 707 473 707 473 707 c 1,10,-1
 642 707 l 2,11,12
 637 704 637 704 623 690 c 0,13,14
 617 684 617 684 609.5 676.5 c 128,-1,15
 602 669 602 669 598 664 c 0,16,17
 592 658 592 658 587.5 651 c 128,-1,18
 583 644 583 644 575 634 c 0,19,20
 569 624 569 624 563.5 616.5 c 128,-1,21
 558 609 558 609 555 604 c 2,22,-1
 445 418 l 1,23,-1
 616 108 l 1,24,25
 662 34 662 34 715 0 c 1,26,-1
 445 0 l 1,27,28
 466 15 466 15 470 39 c 0,29,30
 475 63 475 63 459 89 c 2,31,-1
 343 286 l 1,32,-1
 243 106 l 2,33,34
 232 81 232 81 228 66 c 1,35,36
 228 25 228 25 259 0 c 1,37,-1
 69 0 l 2,38,39
 72 2 72 2 77 6.5 c 128,-1,40
 82 11 82 11 86 14 c 0,41,42
 105 29 105 29 117 43 c 0,43,44
 132 56 132 56 152 83 c 0,45,46
 165 99 165 99 171 108 c 2,47,-1
 316 345 l 1,48,-1
 168 602 l 2,49,50
 133 663 133 663 84 707 c 1,51,-1
 343 707 l 1,52,53
 324 693 324 693 320 664 c 0,54,55
 318 641 318 641 330 620 c 2,56,-1
 410 478 l 1,0,-1
EndSplineSet
Validated: 33
EndChar

StartChar: Y
Encoding: 89 89 59
Width: 699
Flags: W
LayerCount: 2
Fore
SplineSet
314 295 m 1,0,-1
 172 569 l 2,1,2
 148 617 148 617 122 650.5 c 128,-1,3
 96 684 96 684 55 707 c 1,4,-1
 343 707 l 1,5,6
 308 679 308 679 308 644 c 0,7,8
 309 636 309 636 315.5 614 c 128,-1,9
 322 592 322 592 322 593 c 2,10,-1
 427 368 l 1,11,-1
 526 586 l 2,12,13
 528 590 528 590 529.5 594 c 128,-1,14
 531 598 531 598 532 600.5 c 128,-1,15
 533 603 533 603 535 607 c 0,16,17
 536 612 536 612 544 630 c 1,18,19
 546 654 546 654 545 659 c 0,20,21
 541 685 541 685 505 707 c 1,22,-1
 674 707 l 1,23,24
 653 691 653 691 641 677 c 128,-1,25
 629 663 629 663 615 640 c 128,-1,26
 601 617 601 617 591 595 c 128,-1,27
 581 573 581 573 575 561 c 2,28,-1
 456 299 l 1,29,-1
 456 93 l 2,30,31
 456 31 456 31 497 0 c 1,32,-1
 274 0 l 1,33,34
 314 30 314 30 314 93 c 2,35,-1
 314 295 l 1,0,-1
EndSplineSet
Validated: 1
EndChar

StartChar: Z
Encoding: 90 90 60
Width: 677
Flags: W
LayerCount: 2
Fore
SplineSet
112 544 m 1,0,-1
 92 544 l 1,1,-1
 133 707 l 1,2,-1
 632 707 l 1,3,-1
 270 54 l 1,4,5
 400 45 400 45 481.5 71.5 c 128,-1,6
 563 98 563 98 610 191 c 1,7,-1
 632 191 l 1,8,-1
 583 0 l 1,9,-1
 61 0 l 1,10,-1
 428 656 l 1,11,-1
 365 656 l 1,12,-1
 317 656 l 1,13,14
 171 648 171 648 112 544 c 1,0,-1
EndSplineSet
Validated: 33
EndChar

StartChar: bracketleft
Encoding: 91 91 61
Width: 542
Flags: W
LayerCount: 2
Fore
SplineSet
205 728 m 1,0,-1
 410 728 l 1,1,2
 342 709 342 709 337 652 c 0,3,4
 336 648 336 648 335.5 640.5 c 128,-1,5
 335 633 335 633 335 628.5 c 128,-1,6
 335 624 335 624 334 618 c 2,7,-1
 334 593 l 1,8,-1
 334 -89 l 1,9,-1
 334 -111 l 2,10,11
 335 -116 335 -116 335 -125.5 c 128,-1,12
 335 -135 335 -135 335 -143 c 0,13,14
 335 -214 335 -214 410 -248 c 1,15,-1
 205 -248 l 1,16,-1
 205 728 l 1,0,-1
EndSplineSet
Validated: 1
EndChar

StartChar: backslash
Encoding: 92 92 62
Width: 497
Flags: W
LayerCount: 2
Fore
SplineSet
440 -214 m 1,0,-1
 0 788 l 1,1,-1
 55 811 l 1,2,-1
 496 -191 l 1,3,-1
 440 -214 l 1,0,-1
EndSplineSet
Validated: 1
EndChar

StartChar: bracketright
Encoding: 93 93 63
Width: 542
Flags: W
LayerCount: 2
Fore
SplineSet
337 728 m 1,0,-1
 337 -248 l 1,1,-1
 132 -248 l 1,2,3
 206 -216 206 -216 206 -143 c 0,4,5
 207 -137 207 -137 207 -126.5 c 128,-1,6
 207 -116 207 -116 208 -111 c 2,7,-1
 208 -89 l 1,8,-1
 208 593 l 1,9,-1
 208 618 l 2,10,11
 207 627 207 627 206.5 637 c 128,-1,12
 206 647 206 647 205 652 c 0,13,14
 198 708 198 708 132 728 c 1,15,-1
 337 728 l 1,0,-1
EndSplineSet
Validated: 1
EndChar

StartChar: asciicircum
Encoding: 94 94 64
Width: 427
Flags: W
LayerCount: 2
Fore
SplineSet
214 629 m 1,0,-1
 130 547 l 1,1,-1
 43 547 l 1,2,-1
 214 717 l 1,3,-1
 385 547 l 1,4,-1
 297 547 l 1,5,-1
 214 629 l 1,0,-1
EndSplineSet
Validated: 1
EndChar

StartChar: underscore
Encoding: 95 95 65
AltUni2: 0000ad.ffffffff.0
Width: 598
Flags: W
LayerCount: 2
Fore
SplineSet
0 -115 m 1,0,-1
 598 -115 l 1,1,-1
 598 -201 l 1,2,-1
 0 -201 l 1,3,-1
 0 -115 l 1,0,-1
EndSplineSet
Validated: 1
EndChar

StartChar: grave
Encoding: 96 96 66
Width: 270
Flags: W
LayerCount: 2
Fore
SplineSet
144 707 m 2,0,-1
 168 707 l 1,1,2
 130 646 130 646 129 609 c 0,3,4
 125 575 125 575 151 550 c 0,5,6
 156 546 156 546 165 538 c 128,-1,7
 174 530 174 530 181 521 c 0,8,9
 201 499 201 499 201 468 c 0,10,11
 201 443 201 443 182 421.5 c 128,-1,12
 163 400 163 400 130 400 c 0,13,14
 100 400 100 400 79 423 c 128,-1,15
 58 446 58 446 57 491 c 0,16,17
 55 567 55 567 118 669 c 0,18,19
 129 684 129 684 138 698 c 0,20,21
 140 701 140 701 141.5 703 c 128,-1,22
 143 705 143 705 144 707 c 2,0,-1
EndSplineSet
Validated: 33
EndChar

StartChar: a
Encoding: 97 97 67
Width: 564
Flags: W
LayerCount: 2
Fore
SplineSet
521 58 m 1,0,-1
 532 46 l 1,1,2
 486 -8 486 -8 425 -10 c 0,3,4
 361 -16 361 -16 331 46 c 1,5,6
 256 -10 256 -10 187 -10 c 0,7,8
 134 -10 134 -10 103 22 c 128,-1,9
 72 54 72 54 72 101 c 0,10,11
 71 184 71 184 142.5 227.5 c 128,-1,12
 214 271 214 271 331 302 c 1,13,-1
 331 391 l 2,14,15
 331 456 331 456 274 461 c 0,16,17
 252 461 252 461 235.5 446.5 c 128,-1,18
 219 432 219 432 212 411 c 0,19,20
 212 406 212 406 211.5 401 c 128,-1,21
 211 396 211 396 209 388 c 0,22,23
 206 360 206 360 189 344 c 128,-1,24
 172 328 172 328 151 328 c 0,25,26
 132 328 132 328 118 337.5 c 128,-1,27
 104 347 104 347 103 371 c 0,28,29
 102 399 102 399 125 426 c 128,-1,30
 148 453 148 453 189.5 470.5 c 128,-1,31
 231 488 231 488 280 488 c 0,32,33
 442 493 442 493 442 359 c 2,34,-1
 442 114 l 2,35,36
 442 43 442 43 482 44 c 0,37,38
 488 44 488 44 502 50 c 128,-1,39
 516 56 516 56 521 58 c 1,0,-1
331 266 m 1,40,41
 267 255 267 255 227.5 211.5 c 128,-1,42
 188 168 188 168 192 114 c 0,43,44
 199 49 199 49 259 49 c 0,45,46
 297 49 297 49 331 81 c 1,47,-1
 331 266 l 1,40,41
EndSplineSet
Validated: 33
EndChar

StartChar: b
Encoding: 98 98 68
Width: 564
Flags: W
LayerCount: 2
Fore
SplineSet
186 428 m 1,0,1
 256 488 256 488 331 488 c 0,2,3
 379 488 379 488 420 461.5 c 128,-1,4
 461 435 461 435 484.5 383.5 c 128,-1,5
 508 332 508 332 507 257 c 0,6,7
 502 137 502 137 440.5 63.5 c 128,-1,8
 379 -10 379 -10 283 -10 c 0,9,10
 205 -10 205 -10 144 30 c 1,11,-1
 111 -10 l 1,12,-1
 74 -10 l 1,13,-1
 74 621 l 2,14,15
 74 651 74 651 61.5 663.5 c 128,-1,16
 49 676 49 676 32 674 c 1,17,-1
 32 683 l 1,18,19
 56 687 56 687 92.5 705.5 c 128,-1,20
 129 724 129 724 155 743 c 1,21,-1
 186 743 l 1,22,-1
 186 428 l 1,0,1
186 81 m 1,23,24
 224 33 224 33 277 33 c 0,25,26
 351 33 351 33 371 101.5 c 128,-1,27
 391 170 391 170 391 231 c 0,28,29
 390 327 390 327 353.5 372.5 c 128,-1,30
 317 418 317 418 268 418 c 0,31,32
 231 418 231 418 186 389 c 1,33,-1
 186 81 l 1,23,24
EndSplineSet
Validated: 33
EndChar

StartChar: c
Encoding: 99 99 69
Width: 451
Flags: W
LayerCount: 2
Fore
SplineSet
407 84 m 1,0,-1
 418 66 l 1,1,2
 411 59 411 59 400 54 c 0,3,4
 392 48 392 48 386 43 c 128,-1,5
 380 38 380 38 373 33 c 0,6,7
 309 -10 309 -10 243 -10 c 0,8,9
 196 -10 196 -10 147 15 c 128,-1,10
 98 40 98 40 66 92 c 128,-1,11
 34 144 34 144 35 216 c 0,12,13
 36 300 36 300 74.5 367 c 128,-1,14
 113 434 113 434 173.5 466 c 128,-1,15
 234 498 234 498 300 488 c 0,16,17
 366 477 366 477 398.5 441 c 128,-1,18
 431 405 431 405 424 370 c 0,19,20
 420 353 420 353 405.5 340 c 128,-1,21
 391 327 391 327 368 331 c 0,22,23
 326 338 326 338 313 388 c 0,24,25
 310 398 310 398 306.5 409.5 c 128,-1,26
 303 421 303 421 300 427 c 0,27,28
 289 454 289 454 260 454 c 0,29,30
 235 454 235 454 210.5 433.5 c 128,-1,31
 186 413 186 413 170.5 370 c 128,-1,32
 155 327 155 327 155 268 c 0,33,34
 155 170 155 170 182 110.5 c 128,-1,35
 209 51 209 51 286 44 c 0,36,37
 315 43 315 43 343 52 c 0,38,39
 356 56 356 56 386 72 c 0,40,41
 395 75 395 75 407 84 c 1,0,-1
EndSplineSet
Validated: 33
EndChar

StartChar: d
Encoding: 100 100 70
Width: 609
Flags: W
LayerCount: 2
Fore
SplineSet
515 743 m 1,0,-1
 515 64 l 2,1,2
 515 28 515 28 529 15 c 0,3,4
 530 13 530 13 542 6 c 0,5,6
 547 5 547 5 549.5 3 c 128,-1,7
 552 1 552 1 553 0 c 2,8,-1
 405 -1 l 1,9,-1
 405 64 l 1,10,11
 367 26 367 26 331 8 c 128,-1,12
 295 -10 295 -10 248 -10 c 0,13,14
 180 -10 180 -10 124.5 45.5 c 128,-1,15
 69 101 69 101 72 219 c 0,16,17
 75 293 75 293 107 356.5 c 128,-1,18
 139 420 139 420 189.5 454.5 c 128,-1,19
 240 489 240 489 299 488 c 0,20,21
 351 488 351 488 405 447 c 1,22,-1
 405 621 l 2,23,24
 402 676 402 676 362 674 c 1,25,-1
 362 683 l 1,26,27
 416 690 416 690 487 743 c 1,28,-1
 515 743 l 1,0,-1
405 402 m 1,29,30
 355 443 355 443 306 442 c 0,31,32
 274 440 274 440 247.5 420.5 c 128,-1,33
 221 401 221 401 204.5 357.5 c 128,-1,34
 188 314 188 314 189 246 c 0,35,36
 192 146 192 146 228.5 102 c 128,-1,37
 265 58 265 58 313 60 c 0,38,39
 362 60 362 60 403 111 c 1,40,-1
 405 402 l 1,29,30
EndSplineSet
Validated: 33
EndChar

StartChar: e
Encoding: 101 101 71
Width: 497
Flags: W
LayerCount: 2
Fore
SplineSet
443 133 m 1,0,-1
 464 118 l 1,1,2
 432 73 432 73 407 47 c 128,-1,3
 382 21 382 21 348 5 c 128,-1,4
 314 -11 314 -11 270 -10 c 0,5,6
 182 -10 182 -10 114.5 57 c 128,-1,7
 47 124 47 124 44 249 c 0,8,9
 43 362 43 362 105.5 425 c 128,-1,10
 168 488 168 488 249 488 c 0,11,12
 320 488 320 488 379.5 436.5 c 128,-1,13
 439 385 439 385 450 268 c 1,14,-1
 168 268 l 1,15,16
 167 180 167 180 200.5 124.5 c 128,-1,17
 234 69 234 69 283 58 c 0,18,19
 299 54 299 54 310 54 c 0,20,21
 360 54 360 54 400 87 c 0,22,23
 412 98 412 98 430 118 c 0,24,25
 435 122 435 122 443 133 c 1,0,-1
305 313 m 2,26,27
 324 313 324 313 322 330 c 0,28,29
 312 451 312 451 246 448 c 0,30,31
 187 446 187 446 172 357 c 0,32,33
 172 353 172 353 171 343 c 128,-1,34
 170 333 170 333 169 325 c 0,35,36
 169 316 169 316 169 316 c 2,37,38
 172 312 172 312 175.5 312.5 c 128,-1,39
 179 313 179 313 183 313 c 2,40,-1
 305 313 l 2,26,27
EndSplineSet
Validated: 33
EndChar

StartChar: f
Encoding: 102 102 72
Width: 360
Flags: W
LayerCount: 2
Fore
SplineSet
117 454 m 1,0,-1
 39 454 l 1,1,-1
 39 497 l 1,2,-1
 117 497 l 1,3,4
 97 570 97 570 97 616 c 0,5,6
 99 669 99 669 129 700 c 128,-1,7
 159 731 159 731 209 731 c 0,8,9
 240 731 240 731 264.5 721 c 128,-1,10
 289 711 289 711 302.5 695 c 128,-1,11
 316 679 316 679 316 663 c 0,12,13
 317 645 317 645 304.5 631.5 c 128,-1,14
 292 618 292 618 270 618 c 0,15,16
 245 618 245 618 219 637 c 0,17,18
 206 650 206 650 200 658 c 0,19,20
 183 675 183 675 168 674 c 0,21,22
 144 670 144 670 141 641 c 0,23,24
 141 618 141 618 166 588 c 0,25,26
 170 582 170 582 179 573 c 128,-1,27
 188 564 188 564 192 558 c 0,28,29
 199 550 199 550 209.5 536 c 128,-1,30
 220 522 220 522 226 511 c 128,-1,31
 232 500 232 500 234 497 c 2,32,-1
 334 497 l 1,33,-1
 334 454 l 1,34,-1
 228 454 l 1,35,-1
 228 64 l 2,36,37
 228 29 228 29 243 15 c 0,38,39
 247 11 247 11 250 9.5 c 128,-1,40
 253 8 253 8 255 6 c 0,41,42
 259 4 259 4 261 3 c 128,-1,43
 263 2 263 2 266 0 c 2,44,-1
 79 0 l 1,45,46
 106 13 106 13 111.5 25.5 c 128,-1,47
 117 38 117 38 117 64 c 2,48,-1
 117 454 l 1,0,-1
EndSplineSet
Validated: 33
EndChar

StartChar: g
Encoding: 103 103 73
Width: 632
Flags: W
LayerCount: 2
Fore
SplineSet
424 447 m 1,0,1
 464 418 464 418 483 375.5 c 128,-1,2
 502 333 502 333 499 288 c 0,3,4
 494 215 494 215 439 163.5 c 128,-1,5
 384 112 384 112 288 112 c 0,6,7
 241 112 241 112 206 126 c 1,8,9
 177 112 177 112 174 90 c 0,10,11
 174 77 174 77 194 71 c 0,12,13
 204 68 204 68 254 55 c 0,14,15
 386 27 386 27 456 -1 c 128,-1,16
 526 -29 526 -29 526 -95 c 0,17,18
 526 -147 526 -147 471 -183.5 c 128,-1,19
 416 -220 416 -220 299 -220 c 0,20,21
 186 -220 186 -220 129 -190.5 c 128,-1,22
 72 -161 72 -161 72 -117 c 0,23,24
 72 -91 72 -91 97 -64 c 0,25,26
 115 -49 115 -49 130 -38 c 0,27,28
 142 -31 142 -31 152 -23 c 1,29,30
 84 -4 84 -4 84 39 c 0,31,32
 84 84 84 84 172 141 c 1,33,34
 83 199 83 199 83 299 c 0,35,36
 83 368 83 368 120 412.5 c 128,-1,37
 157 457 157 457 209 474 c 128,-1,38
 261 491 261 491 306 488 c 0,39,40
 347 486 347 486 399 464 c 1,41,42
 456 508 456 508 526 508 c 0,43,44
 556 508 556 508 577.5 493 c 128,-1,45
 599 478 599 478 599 454 c 0,46,47
 599 437 599 437 587.5 425 c 128,-1,48
 576 413 576 413 551 413 c 0,49,50
 528 414 528 414 510 428 c 0,51,52
 506 432 506 432 502.5 435.5 c 128,-1,53
 499 439 499 439 493 443 c 0,54,55
 471 460 471 460 457 457 c 0,56,57
 445 457 445 457 438.5 454 c 128,-1,58
 432 451 432 451 424 447 c 1,0,1
198 311 m 0,59,60
 194 154 194 154 292 154 c 0,61,62
 380 154 380 154 382 302 c 0,63,64
 384 328 384 328 378.5 360.5 c 128,-1,65
 373 393 373 393 353 418.5 c 128,-1,66
 333 444 333 444 295 447 c 0,67,68
 256 451 256 451 227.5 419.5 c 128,-1,69
 199 388 199 388 198 311 c 0,59,60
222 -43 m 2,70,71
 219 -42 219 -42 216.5 -41.5 c 128,-1,72
 214 -41 214 -41 209 -41 c 0,73,74
 205 -38 205 -38 197 -38 c 0,75,76
 177 -36 177 -36 159 -55 c 128,-1,77
 141 -74 141 -74 141 -101 c 0,78,79
 142 -144 142 -144 181.5 -160 c 128,-1,80
 221 -176 221 -176 291 -180 c 0,81,82
 335 -181 335 -181 373.5 -174 c 128,-1,83
 412 -167 412 -167 429.5 -153.5 c 128,-1,84
 447 -140 447 -140 447 -125 c 0,85,86
 447 -99 447 -99 365 -78 c 2,87,-1
 222 -43 l 2,70,71
EndSplineSet
Validated: 33
EndChar

StartChar: h
Encoding: 104 104 74
Width: 586
Flags: W
LayerCount: 2
Fore
SplineSet
183 743 m 1,0,-1
 183 419 l 1,1,2
 328 490 328 490 419 488 c 0,3,4
 499 488 499 488 499 413 c 2,5,-1
 499 64 l 2,6,7
 499 27 499 27 511 15 c 0,8,9
 515 13 515 13 519 11 c 128,-1,10
 523 9 523 9 526 6 c 0,11,12
 535 0 535 0 535 0 c 1,13,-1
 349 0 l 1,14,15
 375 12 375 12 381.5 25 c 128,-1,16
 388 38 388 38 388 64 c 2,17,-1
 388 343 l 2,18,19
 388 385 388 385 381.5 403.5 c 128,-1,20
 375 422 375 422 346 427 c 0,21,22
 298 434 298 434 197 394 c 2,23,-1
 183 388 l 1,24,-1
 183 64 l 2,25,26
 183 39 183 39 189.5 27 c 128,-1,27
 196 15 196 15 220 0 c 1,28,-1
 35 0 l 1,29,30
 60 12 60 12 66 24.5 c 128,-1,31
 72 37 72 37 72 64 c 2,32,-1
 72 616 l 2,33,34
 72 669 72 669 30 669 c 1,35,-1
 30 677 l 1,36,37
 63 682 63 682 100 699.5 c 128,-1,38
 137 717 137 717 154 743 c 1,39,-1
 183 743 l 1,0,-1
EndSplineSet
Validated: 33
EndChar

StartChar: i
Encoding: 105 105 75
AltUni2: 0000b3.ffffffff.0
Width: 316
Flags: W
LayerCount: 2
Fore
SplineSet
206 505 m 1,0,-1
 206 64 l 2,1,2
 206 29 206 29 220 15 c 0,3,4
 224 11 224 11 228.5 9.5 c 128,-1,5
 233 8 233 8 235 6 c 0,6,7
 243 0 243 0 245 0 c 2,8,-1
 58 0 l 1,9,10
 83 12 83 12 90 25 c 128,-1,11
 97 38 97 38 97 64 c 2,12,-1
 97 385 l 2,13,14
 97 403 97 403 90.5 415.5 c 128,-1,15
 84 428 84 428 75 433.5 c 128,-1,16
 66 439 66 439 54 437 c 1,17,-1
 54 447 l 1,18,19
 109 453 109 453 177 505 c 1,20,-1
 206 505 l 1,0,-1
79 664 m 0,21,22
 79 693 79 693 99 715 c 128,-1,23
 119 737 119 737 151 737 c 0,24,25
 181 737 181 737 202 717 c 128,-1,26
 223 697 223 697 223 664 c 0,27,28
 223 633 223 633 201 613 c 128,-1,29
 179 593 179 593 151 593 c 0,30,31
 120 593 120 593 99.5 614.5 c 128,-1,32
 79 636 79 636 79 664 c 0,21,22
EndSplineSet
Validated: 1
EndChar

StartChar: j
Encoding: 106 106 76
Width: 385
Flags: W
LayerCount: 2
Fore
SplineSet
263 494 m 1,0,-1
 263 6 l 2,1,2
 263 -133 263 -133 212.5 -177.5 c 128,-1,3
 162 -222 162 -222 109 -222 c 0,4,5
 74 -221 74 -221 53.5 -203.5 c 128,-1,6
 33 -186 33 -186 33 -162 c 0,7,8
 33 -142 33 -142 47.5 -127.5 c 128,-1,9
 62 -113 62 -113 84 -114 c 0,10,11
 103 -114 103 -114 135 -144 c 0,12,13
 138 -146 138 -146 141 -149 c 128,-1,14
 144 -152 144 -152 144 -152 c 2,15,16
 149 -155 149 -155 157 -155 c 0,17,18
 188 -155 188 -155 184 -117 c 0,19,20
 184 -105 184 -105 166 -52 c 0,21,22
 156 -18 156 -18 155 -9 c 0,23,24
 155 -1 155 -1 155 7.5 c 128,-1,25
 155 16 155 16 154 21 c 2,26,-1
 154 60 l 1,27,-1
 154 373 l 2,28,29
 154 429 154 429 111 425 c 1,30,-1
 111 436 l 1,31,32
 164 442 164 442 235 494 c 1,33,-1
 263 494 l 1,0,-1
137 664 m 0,34,35
 137 695 137 695 156.5 716 c 128,-1,36
 176 737 176 737 208 737 c 0,37,38
 241 737 241 737 260.5 716 c 128,-1,39
 280 695 280 695 280 664 c 256,40,41
 280 633 280 633 258 613 c 128,-1,42
 236 593 236 593 208 593 c 0,43,44
 176 593 176 593 156.5 613.5 c 128,-1,45
 137 634 137 634 137 664 c 0,34,35
EndSplineSet
Validated: 33
EndChar

StartChar: k
Encoding: 107 107 77
Width: 564
Flags: W
LayerCount: 2
Fore
SplineSet
205 743 m 1,0,-1
 205 237 l 1,1,-1
 349 399 l 2,2,3
 364 412 364 412 364 432 c 0,4,5
 365 459 365 459 330 476 c 1,6,-1
 510 476 l 1,7,8
 471 460 471 460 442 427 c 2,9,-1
 330 305 l 1,10,-1
 467 71 l 2,11,12
 503 14 503 14 535 0 c 1,13,-1
 316 0 l 1,14,15
 342 15 342 15 346 36 c 0,16,17
 347 46 347 46 344 55 c 128,-1,18
 341 64 341 64 339 68 c 2,19,-1
 255 222 l 1,20,-1
 205 165 l 1,21,-1
 205 64 l 2,22,23
 205 29 205 29 219 15 c 0,24,25
 220 13 220 13 234 6 c 0,26,27
 243 0 243 0 243 0 c 1,28,-1
 57 0 l 1,29,30
 82 13 82 13 88.5 25.5 c 128,-1,31
 95 38 95 38 95 64 c 2,32,-1
 95 621 l 2,33,34
 95 676 95 676 52 674 c 1,35,-1
 52 683 l 1,36,37
 118 694 118 694 176 743 c 1,38,-1
 205 743 l 1,0,-1
EndSplineSet
Validated: 33
EndChar

StartChar: l
Encoding: 108 108 78
Width: 339
Flags: W
LayerCount: 2
Fore
SplineSet
223 743 m 1,0,-1
 223 64 l 2,1,2
 223 29 223 29 238 15 c 0,3,4
 239 13 239 13 251 6 c 0,5,6
 258 1 258 1 262 0 c 2,7,-1
 74 0 l 1,8,9
 101 13 101 13 106.5 25.5 c 128,-1,10
 112 38 112 38 112 64 c 2,11,-1
 112 621 l 2,12,13
 112 676 112 676 71 674 c 1,14,-1
 71 683 l 1,15,16
 137 694 137 694 195 743 c 1,17,-1
 223 743 l 1,0,-1
EndSplineSet
Validated: 33
EndChar

StartChar: m
Encoding: 109 109 79
Width: 903
Flags: W
LayerCount: 2
Fore
SplineSet
201 494 m 1,0,-1
 201 425 l 1,1,2
 266 457 266 457 327 473.5 c 128,-1,3
 388 490 388 490 424 488 c 0,4,5
 504 488 504 488 504 413 c 1,6,7
 556 443 556 443 614.5 465.5 c 128,-1,8
 673 488 673 488 710 488 c 0,9,10
 778 491 778 491 792.5 457.5 c 128,-1,11
 807 424 807 424 807 364 c 2,12,-1
 807 64 l 2,13,14
 807 29 807 29 822 15 c 0,15,16
 823 14 823 14 836 6 c 0,17,18
 844 1 844 1 846 0 c 2,19,-1
 659 0 l 1,20,21
 685 12 685 12 691.5 25 c 128,-1,22
 698 38 698 38 698 64 c 2,23,-1
 698 354 l 2,24,25
 698 415 698 415 650 418 c 0,26,27
 593 422 593 422 504 379 c 1,28,-1
 504 64 l 2,29,30
 504 27 504 27 516 15 c 0,31,32
 526 9 526 9 530 6 c 0,33,34
 538 1 538 1 542 0 c 2,35,-1
 354 0 l 1,36,37
 380 12 380 12 386.5 25 c 128,-1,38
 393 38 393 38 393 64 c 2,39,-1
 393 343 l 2,40,41
 393 389 393 389 384 405.5 c 128,-1,42
 375 422 375 422 351 425 c 0,43,44
 297 430 297 430 201 394 c 1,45,-1
 201 64 l 2,46,47
 201 29 201 29 216 15 c 0,48,49
 218 12 218 12 228 6 c 0,50,51
 240 0 240 0 240 0 c 1,52,-1
 52 0 l 1,53,54
 79 13 79 13 84.5 25.5 c 128,-1,55
 90 38 90 38 90 64 c 2,56,-1
 90 373 l 2,57,58
 90 429 90 429 47 425 c 1,59,-1
 47 436 l 1,60,61
 99 441 99 441 171 494 c 1,62,-1
 201 494 l 1,0,-1
EndSplineSet
Validated: 33
EndChar

StartChar: n
Encoding: 110 110 80
Width: 610
Flags: W
LayerCount: 2
Fore
SplineSet
201 494 m 1,0,-1
 201 419 l 1,1,2
 353 491 353 491 439 488 c 0,3,4
 518 487 518 487 518 413 c 2,5,-1
 518 64 l 2,6,7
 518 29 518 29 530 15 c 1,8,9
 545 6 545 6 545 6 c 2,10,11
 553 1 553 1 556 0 c 2,12,-1
 368 0 l 1,13,14
 394 12 394 12 400.5 25.5 c 128,-1,15
 407 39 407 39 407 64 c 2,16,-1
 407 343 l 2,17,18
 407 360 407 360 405 370 c 0,19,20
 405 388 405 388 402 397 c 0,21,22
 395 421 395 421 365 427 c 0,23,24
 317 433 317 433 216 394 c 2,25,-1
 200 388 l 1,26,-1
 201 64 l 2,27,28
 201 29 201 29 214 15 c 0,29,30
 217 14 217 14 219 12.5 c 128,-1,31
 221 11 221 11 223.5 9.5 c 128,-1,32
 226 8 226 8 228 6 c 0,33,34
 240 0 240 0 240 0 c 1,35,-1
 52 0 l 1,36,37
 79 13 79 13 84.5 26.5 c 128,-1,38
 90 40 90 40 90 64 c 2,39,-1
 90 373 l 2,40,41
 90 425 90 425 47 425 c 1,42,-1
 47 436 l 1,43,44
 100 442 100 442 171 494 c 1,45,-1
 201 494 l 1,0,-1
EndSplineSet
Validated: 33
EndChar

StartChar: o
Encoding: 111 111 81
Width: 542
Flags: W
LayerCount: 2
Fore
SplineSet
46 238 m 0,0,1
 46 300 46 300 74 358.5 c 128,-1,2
 102 417 102 417 153.5 453 c 128,-1,3
 205 489 205 489 271 488 c 0,4,5
 339 488 339 488 391 450.5 c 128,-1,6
 443 413 443 413 469.5 355.5 c 128,-1,7
 496 298 496 298 496 238 c 0,8,9
 496 194 496 194 482 151 c 128,-1,10
 468 108 468 108 438 71 c 128,-1,11
 408 34 408 34 366 12 c 128,-1,12
 324 -10 324 -10 271 -10 c 0,13,14
 168 -10 168 -10 107 66.5 c 128,-1,15
 46 143 46 143 46 238 c 0,0,1
172 237 m 0,16,17
 174 174 174 174 181.5 132 c 128,-1,18
 189 90 189 90 209.5 58.5 c 128,-1,19
 230 27 230 27 270 27 c 0,20,21
 367 24 367 24 367 237 c 0,22,23
 368 354 368 354 340 400.5 c 128,-1,24
 312 447 312 447 271 447 c 0,25,26
 172 445 172 445 172 237 c 0,16,17
EndSplineSet
Validated: 33
EndChar

StartChar: p
Encoding: 112 112 82
Width: 586
Flags: W
LayerCount: 2
Fore
SplineSet
168 499 m 2,0,-1
 206 499 l 1,1,-1
 206 422 l 1,2,3
 268 487 268 487 343 488 c 0,4,5
 421 492 421 492 463.5 437.5 c 128,-1,6
 506 383 506 383 513 308 c 0,7,8
 522 217 522 217 496.5 146 c 128,-1,9
 471 75 471 75 423 33.5 c 128,-1,10
 375 -8 375 -8 324 -10 c 0,11,12
 269 -13 269 -13 217 10 c 1,13,-1
 217 -138 l 2,14,15
 217 -165 217 -165 221.5 -176 c 128,-1,16
 226 -187 226 -187 252 -201 c 1,17,-1
 66 -201 l 1,18,19
 90 -191 90 -191 98 -178.5 c 128,-1,20
 106 -166 106 -166 106 -138 c 2,21,-1
 106 367 l 2,22,23
 106 401 106 401 75 408 c 1,24,-1
 60 408 l 1,25,-1
 54 408 l 1,26,-1
 54 422 l 1,27,28
 102 433 102 433 146 475 c 0,29,30
 152 480 152 480 160 491 c 0,31,32
 162 493 162 493 164 495 c 128,-1,33
 166 497 166 497 168 499 c 2,0,-1
206 83 m 1,34,35
 235 31 235 31 292 29 c 0,36,37
 337 27 337 27 371.5 78 c 128,-1,38
 406 129 406 129 400 248 c 0,39,40
 396 360 396 360 354 392.5 c 128,-1,41
 312 425 312 425 279 425 c 0,42,43
 260 425 260 425 240 416.5 c 128,-1,44
 220 408 220 408 206 391 c 1,45,-1
 206 83 l 1,34,35
EndSplineSet
Validated: 33
EndChar

StartChar: q
Encoding: 113 113 83
Width: 564
Flags: W
LayerCount: 2
Fore
SplineSet
365 47 m 1,0,1
 305 -13 305 -13 234 -10 c 0,2,3
 164 -10 164 -10 109.5 45.5 c 128,-1,4
 55 101 55 101 58 219 c 0,5,6
 61 313 61 313 98 373.5 c 128,-1,7
 135 434 135 434 185.5 461 c 128,-1,8
 236 488 236 488 283 488 c 0,9,10
 324 488 324 488 368 467 c 2,11,12
 368 467 368 467 377 462 c 128,-1,13
 386 457 386 457 394 453 c 0,14,15
 402 450 402 450 405 447 c 1,16,-1
 440 488 l 1,17,-1
 476 488 l 1,18,-1
 476 -137 l 2,19,20
 476 -172 476 -172 490 -186 c 0,21,22
 496 -193 496 -193 504 -195 c 0,23,24
 509 -200 509 -200 515 -201 c 2,25,-1
 327 -201 l 1,26,27
 354 -188 354 -188 359.5 -175 c 128,-1,28
 365 -162 365 -162 365 -137 c 2,29,-1
 365 47 l 1,0,1
365 396 m 1,30,31
 334 443 334 443 286 443 c 0,32,33
 246 443 246 443 209.5 401.5 c 128,-1,34
 173 360 173 360 174 246 c 0,35,36
 177 144 177 144 214.5 101 c 128,-1,37
 252 58 252 58 295 58 c 0,38,39
 340 62 340 62 365 87 c 1,40,-1
 365 396 l 1,30,31
EndSplineSet
Validated: 33
EndChar

StartChar: r
Encoding: 114 114 84
Width: 451
Flags: W
LayerCount: 2
Fore
SplineSet
206 505 m 1,0,-1
 206 422 l 1,1,2
 284 487 284 487 339 488 c 0,3,4
 372 490 372 490 396.5 470 c 128,-1,5
 421 450 421 450 418 418 c 0,6,7
 411 367 411 367 357 367 c 0,8,9
 331 367 331 367 310 381 c 0,10,11
 299 387 299 387 291 394 c 0,12,13
 267 405 267 405 259 405 c 0,14,15
 206 402 206 402 206 340 c 2,16,-1
 206 330 l 1,17,-1
 206 64 l 2,18,19
 206 31 206 31 220 15 c 1,20,21
 235 6 235 6 235 6 c 2,22,23
 243 0 243 0 245 0 c 2,24,-1
 58 0 l 2,25,26
 61 2 61 2 63.5 3.5 c 128,-1,27
 66 5 66 5 69 6 c 0,28,29
 82 14 82 14 83 15 c 0,30,31
 97 29 97 29 97 64 c 2,32,-1
 97 385 l 2,33,34
 97 403 97 403 90.5 415.5 c 128,-1,35
 84 428 84 428 75 433.5 c 128,-1,36
 66 439 66 439 54 437 c 1,37,-1
 54 447 l 1,38,39
 117 456 117 456 177 505 c 1,40,-1
 206 505 l 1,0,-1
EndSplineSet
Validated: 33
EndChar

StartChar: s
Encoding: 115 115 85
AltUni2: 000098.ffffffff.0
Width: 496
Flags: W
LayerCount: 2
Fore
SplineSet
381 359 m 1,0,-1
 368 359 l 1,1,2
 358 397 358 397 321 422.5 c 128,-1,3
 284 448 284 448 240 448 c 0,4,5
 203 448 203 448 180.5 430.5 c 128,-1,6
 158 413 158 413 158 389 c 0,7,8
 158 368 158 368 171.5 356 c 128,-1,9
 185 344 185 344 214 327 c 2,10,-1
 325 268 l 2,11,12
 376 242 376 242 403.5 211 c 128,-1,13
 431 180 431 180 430 130 c 0,14,15
 429 65 429 65 374.5 26.5 c 128,-1,16
 320 -12 320 -12 246 -10 c 0,17,18
 172 -10 172 -10 81 30 c 1,19,-1
 71 144 l 1,20,-1
 90 144 l 1,21,22
 108 94 108 94 151 60.5 c 128,-1,23
 194 27 194 27 245 27 c 0,24,25
 292 27 292 27 316 48.5 c 128,-1,26
 340 70 340 70 340 97 c 256,27,28
 340 124 340 124 316 143 c 0,29,30
 312 146 312 146 308.5 148.5 c 128,-1,31
 305 151 305 151 299 155 c 0,32,33
 297 157 297 157 292 159 c 128,-1,34
 287 161 287 161 283 163 c 2,35,-1
 171 223 l 2,36,37
 117 254 117 254 94.5 283.5 c 128,-1,38
 72 313 72 313 72 354 c 0,39,40
 72 421 72 421 122 455.5 c 128,-1,41
 172 490 172 490 246 488 c 0,42,43
 295 488 295 488 381 459 c 1,44,-1
 381 359 l 1,0,-1
EndSplineSet
Validated: 33
EndChar

StartChar: t
Encoding: 116 116 86
Width: 382
Flags: W
LayerCount: 2
Fore
SplineSet
342 501 m 1,0,-1
 342 456 l 1,1,-1
 234 456 l 1,2,-1
 234 122 l 2,3,4
 234 89 234 89 244 69.5 c 128,-1,5
 254 50 254 50 285 50 c 0,6,7
 311 53 311 53 330 72 c 1,8,-1
 342 61 l 1,9,10
 304 -9 304 -9 223 -12 c 0,11,12
 164 -12 164 -12 141 21 c 128,-1,13
 118 54 118 54 118 118 c 2,14,-1
 118 456 l 1,15,-1
 47 456 l 1,16,-1
 47 501 l 1,17,18
 91 505 91 505 122 536.5 c 128,-1,19
 153 568 153 568 168.5 614.5 c 128,-1,20
 184 661 184 661 184 707 c 1,21,-1
 234 707 l 1,22,-1
 234 501 l 1,23,-1
 342 501 l 1,0,-1
EndSplineSet
Validated: 1
EndChar

StartChar: u
Encoding: 117 117 87
Width: 609
Flags: W
LayerCount: 2
Fore
SplineSet
203 497 m 1,0,-1
 203 146 l 2,1,2
 203 103 203 103 210.5 81.5 c 128,-1,3
 218 60 218 60 249 57 c 0,4,5
 255 54 255 54 283.5 60.5 c 128,-1,6
 312 67 312 67 367 93 c 2,7,-1
 399 109 l 1,8,-1
 399 376 l 2,9,10
 399 432 399 432 356 428 c 1,11,-1
 356 437 l 1,12,13
 411 446 411 446 479 497 c 1,14,-1
 510 497 l 1,15,-1
 510 64 l 2,16,17
 510 29 510 29 522 15 c 0,18,19
 529 10 529 10 532.5 8.5 c 128,-1,20
 536 7 536 7 537 6 c 0,21,22
 541 4 541 4 543.5 2.5 c 128,-1,23
 546 1 546 1 547 0 c 2,24,-1
 360 0 l 1,25,26
 388 13 388 13 393.5 26 c 128,-1,27
 399 39 399 39 399 64 c 2,28,-1
 399 78 l 1,29,30
 359 57 359 57 353 54 c 0,31,32
 345 50 345 50 286 18 c 1,33,34
 217 -14 217 -14 171 -10 c 0,35,36
 126 -7 126 -7 109 19.5 c 128,-1,37
 92 46 92 46 92 90 c 2,38,-1
 92 376 l 2,39,40
 92 405 92 405 79.5 417.5 c 128,-1,41
 67 430 67 430 50 428 c 1,42,-1
 50 437 l 1,43,44
 104 446 104 446 174 497 c 1,45,-1
 203 497 l 1,0,-1
EndSplineSet
Validated: 33
EndChar

StartChar: v
Encoding: 118 118 88
Width: 586
Flags: W
LayerCount: 2
Fore
SplineSet
331 137 m 1,0,-1
 405 345 l 2,1,2
 418 380 418 380 422 407 c 0,3,4
 428 449 428 449 379 476 c 1,5,-1
 550 476 l 1,6,7
 519 455 519 455 503.5 436.5 c 128,-1,8
 488 418 488 418 481.5 403 c 128,-1,9
 475 388 475 388 462 357 c 2,10,-1
 320 -10 l 1,11,-1
 262 -10 l 1,12,-1
 122 360 l 2,13,14
 108 403 108 403 91 429 c 128,-1,15
 74 455 74 455 36 476 c 1,16,-1
 270 476 l 1,17,18
 234 453 234 453 232 424 c 0,19,20
 231 407 231 407 246 365 c 2,21,-1
 331 137 l 1,0,-1
EndSplineSet
Validated: 33
EndChar

StartChar: w
Encoding: 119 119 89
Width: 812
Flags: W
LayerCount: 2
Fore
SplineSet
410 291 m 1,0,-1
 291 0 l 1,1,-1
 238 0 l 1,2,-1
 106 354 l 2,3,4
 89 401 89 401 76 423.5 c 128,-1,5
 63 446 63 446 23 476 c 1,6,-1
 255 476 l 1,7,8
 246 469 246 469 243 468 c 0,9,10
 231 462 231 462 222 453 c 0,11,12
 209 439 209 439 209 419 c 0,13,14
 209 409 209 409 222 370 c 2,15,-1
 302 152 l 1,16,-1
 379 370 l 1,17,-1
 373 389 l 2,18,19
 366 419 366 419 350 439.5 c 128,-1,20
 334 460 334 460 302 476 c 1,21,-1
 530 476 l 1,22,23
 490 449 490 449 490 418 c 0,24,25
 488 405 488 405 497 370 c 2,26,-1
 575 152 l 1,27,-1
 645 354 l 2,28,29
 647 358 647 358 652 376 c 0,30,31
 653 383 653 383 654.5 390 c 128,-1,32
 656 397 656 397 656 400 c 0,33,34
 659 428 659 428 647 444.5 c 128,-1,35
 635 461 635 461 607 476 c 1,36,-1
 789 476 l 1,37,38
 757 455 757 455 739.5 431.5 c 128,-1,39
 722 408 722 408 711 377.5 c 128,-1,40
 700 347 700 347 692 324 c 2,41,-1
 567 0 l 1,42,-1
 511 0 l 1,43,-1
 410 291 l 1,0,-1
EndSplineSet
Validated: 33
EndChar

StartChar: x
Encoding: 120 120 90
Width: 564
Flags: W
LayerCount: 2
Fore
SplineSet
225 231 m 1,0,-1
 118 402 l 2,1,2
 94 442 94 442 33 476 c 1,3,-1
 255 476 l 1,4,5
 237 463 237 463 237 439 c 0,6,7
 237 428 237 428 241 421 c 2,8,-1
 303 320 l 1,9,-1
 360 419 l 2,10,11
 381 453 381 453 340 476 c 1,12,-1
 502 476 l 1,13,14
 440 436 440 436 411 396 c 2,15,-1
 327 279 l 1,16,-1
 462 68 l 2,17,18
 465 65 465 65 469.5 59.5 c 128,-1,19
 474 54 474 54 476 50 c 0,20,21
 480 46 480 46 483.5 42.5 c 128,-1,22
 487 39 487 39 491 33 c 0,23,24
 500 22 500 22 516 12 c 0,25,26
 519 10 519 10 522.5 7 c 128,-1,27
 526 4 526 4 530 0 c 1,28,-1
 303 0 l 1,29,30
 349 32 349 32 327 71 c 2,31,-1
 255 187 l 1,32,-1
 176 71 l 2,33,34
 164 54 164 54 164 44 c 0,35,36
 164 22 164 22 195 0 c 1,37,-1
 33 0 l 1,38,39
 41 5 41 5 47 12 c 0,40,41
 58 20 58 20 68 30 c 0,42,43
 75 36 75 36 80 41.5 c 128,-1,44
 85 47 85 47 92.5 55.5 c 128,-1,45
 100 64 100 64 103 68 c 2,46,-1
 225 231 l 1,0,-1
EndSplineSet
Validated: 33
EndChar

StartChar: y
Encoding: 121 121 91
Width: 564
Flags: W
LayerCount: 2
Fore
SplineSet
322 123 m 1,0,-1
 418 393 l 1,1,2
 422 417 422 417 422 422 c 0,3,4
 420 462 420 462 374 476 c 1,5,-1
 537 476 l 1,6,7
 492 453 492 453 468 381 c 2,8,-1
 322 -54 l 2,9,10
 267 -216 267 -216 158 -216 c 0,11,12
 106 -217 106 -217 75.5 -196.5 c 128,-1,13
 45 -176 45 -176 47 -144 c 0,14,15
 47 -126 47 -126 59.5 -112 c 128,-1,16
 72 -98 72 -98 98 -98 c 0,17,18
 126 -98 126 -98 152 -122 c 0,19,20
 156 -125 156 -125 159 -128.5 c 128,-1,21
 162 -132 162 -132 165 -135 c 0,22,23
 186 -153 186 -153 205 -151 c 0,24,25
 241 -145 241 -145 276 -44 c 1,26,-1
 87 402 l 2,27,28
 73 430 73 430 62 446.5 c 128,-1,29
 51 463 51 463 30 476 c 1,30,-1
 255 476 l 1,31,32
 212 454 212 454 214 421 c 0,33,34
 219 398 219 398 222 389 c 2,35,-1
 322 123 l 1,0,-1
EndSplineSet
Validated: 33
EndChar

StartChar: z
Encoding: 122 122 92
Width: 519
Flags: W
LayerCount: 2
Fore
SplineSet
443 143 m 1,0,-1
 464 143 l 1,1,-1
 425 0 l 1,2,-1
 39 0 l 1,3,-1
 305 437 l 1,4,5
 156 447 156 447 93 353 c 1,6,-1
 74 353 l 1,7,-1
 108 476 l 1,8,-1
 464 476 l 1,9,-1
 200 39 l 1,10,11
 370 24 370 24 443 143 c 1,0,-1
EndSplineSet
Validated: 33
EndChar

StartChar: braceleft
Encoding: 123 123 93
Width: 416
Flags: W
LayerCount: 2
Fore
SplineSet
69 246 m 1,0,-1
 69 317 l 1,1,2
 129 323 129 323 147.5 370.5 c 128,-1,3
 166 418 166 418 166 465 c 0,4,5
 166 505 166 505 165 526 c 0,6,7
 163 545 163 545 163 583 c 0,8,9
 163 702 163 702 228 737 c 128,-1,10
 293 772 293 772 362 767 c 1,11,-1
 362 709 l 1,12,13
 315 699 315 699 300.5 666 c 128,-1,14
 286 633 286 633 286 605 c 0,15,16
 287 591 287 591 288 574 c 128,-1,17
 289 557 289 557 289 548 c 0,18,19
 292 517 292 517 292 484 c 0,20,21
 292 414 292 414 263.5 366 c 128,-1,22
 235 318 235 318 165 286 c 1,23,-1
 165 277 l 1,24,25
 292 223 292 223 292 81 c 0,26,27
 292 49 292 49 289 17 c 0,28,29
 289 9 289 9 288 -8 c 128,-1,30
 287 -25 287 -25 286 -39 c 0,31,32
 286 -129 286 -129 362 -144 c 1,33,-1
 362 -201 l 1,34,35
 293 -206 293 -206 228 -171 c 128,-1,36
 163 -136 163 -136 163 -18 c 0,37,38
 163 20 163 20 165 39 c 0,39,40
 166 58 166 58 166 98 c 0,41,42
 166 238 166 238 69 246 c 1,0,-1
EndSplineSet
Validated: 33
EndChar

StartChar: bar
Encoding: 124 124 94
AltUni2: 0000a6.ffffffff.0
Width: 129
Flags: W
LayerCount: 2
Fore
SplineSet
24 883 m 1,0,-1
 103 883 l 1,1,-1
 103 -201 l 1,2,-1
 24 -201 l 1,3,-1
 24 883 l 1,0,-1
EndSplineSet
Validated: 1
EndChar

StartChar: braceright
Encoding: 125 125 95
Width: 416
Flags: W
LayerCount: 2
Fore
SplineSet
345 246 m 1,0,1
 249 238 249 238 249 98 c 0,2,3
 249 84 249 84 249 69 c 128,-1,4
 249 54 249 54 249 39 c 0,5,6
 252 11 252 11 252 -18 c 0,7,8
 252 -136 252 -136 187.5 -171 c 128,-1,9
 123 -206 123 -206 54 -201 c 1,10,-1
 54 -144 l 1,11,12
 101 -134 101 -134 115.5 -101 c 128,-1,13
 130 -68 130 -68 130 -39 c 0,14,15
 130 -7 130 -7 126 17 c 0,16,17
 126 28 126 28 125 46.5 c 128,-1,18
 124 65 124 65 123 81 c 0,19,20
 123 150 123 150 151.5 198.5 c 128,-1,21
 180 247 180 247 249 277 c 1,22,-1
 249 286 l 1,23,24
 179 318 179 318 151 366 c 128,-1,25
 123 414 123 414 123 484 c 0,26,27
 124 500 124 500 125 519 c 128,-1,28
 126 538 126 538 126 548 c 0,29,30
 130 573 130 573 130 605 c 0,31,32
 130 633 130 633 115 666 c 128,-1,33
 100 699 100 699 54 709 c 1,34,-1
 54 767 l 1,35,36
 123 772 123 772 187.5 737 c 128,-1,37
 252 702 252 702 252 583 c 0,38,39
 252 555 252 555 249 526 c 0,40,41
 249 511 249 511 249 496 c 128,-1,42
 249 481 249 481 249 465 c 0,43,44
 249 418 249 418 267.5 370.5 c 128,-1,45
 286 323 286 323 345 317 c 1,46,-1
 345 246 l 1,0,1
EndSplineSet
Validated: 33
EndChar

StartChar: asciitilde
Encoding: 126 126 96
Width: 548
Flags: W
LayerCount: 2
Fore
SplineSet
89 602 m 1,0,-1
 43 602 l 1,1,2
 58 649 58 649 101 685.5 c 128,-1,3
 144 722 144 722 195 723 c 0,4,5
 210 723 210 723 240 717 c 0,6,7
 259 712 259 712 299 696 c 0,8,9
 380 666 380 666 402 669 c 0,10,11
 436 672 436 672 459 717 c 1,12,-1
 505 717 l 1,13,14
 477 650 477 650 443 622.5 c 128,-1,15
 409 595 409 595 368 593 c 0,16,17
 347 590 347 590 320 598 c 0,18,19
 310 600 310 600 268 615 c 0,20,21
 212 636 212 636 190 643.5 c 128,-1,22
 168 651 168 651 151 647 c 0,23,24
 113 643 113 643 89 602 c 1,0,-1
EndSplineSet
Validated: 33
EndChar

StartChar: Adieresis
Encoding: 192 192 97
AltUni2: 000410.ffffffff.0
Width: 746
Flags: W
LayerCount: 2
Fore
SplineSet
381 723 m 1,0,-1
 421 723 l 1,1,-1
 656 81 l 2,2,3
 676 24 676 24 712 0 c 1,4,-1
 497 0 l 1,5,6
 518 12 518 12 518 39 c 0,7,8
 518 54 518 54 511 71 c 2,9,-1
 461 216 l 1,10,-1
 211 216 l 1,11,-1
 168 98 l 2,12,13
 158 76 158 76 158 58 c 0,14,15
 157 15 157 15 191 0 c 1,16,-1
 41 0 l 1,17,18
 73 24 73 24 90 50 c 0,19,20
 93 55 93 55 95.5 59.5 c 128,-1,21
 98 64 98 64 100 69 c 128,-1,22
 102 74 102 74 104 78 c 0,23,24
 107 81 107 81 111 90 c 2,25,-1
 292 566 l 2,26,27
 295 573 295 573 297.5 583 c 128,-1,28
 300 593 300 593 302 602 c 0,29,30
 305 624 305 624 295.5 638.5 c 128,-1,31
 286 653 286 653 266 653 c 1,32,-1
 266 659 l 1,33,34
 293 662 293 662 328 683 c 128,-1,35
 363 704 363 704 381 723 c 1,0,-1
348 522 m 2,36,37
 346 526 346 526 345.5 527.5 c 128,-1,38
 345 529 345 529 343 533 c 0,39,40
 340 539 340 539 338.5 541.5 c 128,-1,41
 337 544 337 544 335 544 c 256,42,43
 333 544 333 544 330 537 c 128,-1,44
 327 530 327 530 325 524 c 2,45,-1
 235 277 l 2,46,47
 235 276 235 276 233.5 272.5 c 128,-1,48
 232 269 232 269 231 266 c 0,49,50
 231 257 231 257 231 257 c 2,51,52
 232 254 232 254 246 254 c 2,53,-1
 422 254 l 1,54,-1
 430 254 l 2,55,56
 434 254 434 254 437.5 253.5 c 128,-1,57
 441 253 441 253 442 254 c 0,58,59
 443 256 443 256 441 262 c 128,-1,60
 439 268 439 268 439 271 c 2,61,-1
 348 522 l 2,36,37
EndSplineSet
Validated: 33
EndChar

StartChar: Aring
Encoding: 193 193 98
AltUni2: 000411.ffffffff.0
Width: 746
Flags: W
LayerCount: 2
Fore
SplineSet
623 559 m 1,0,-1
 605 559 l 1,1,2
 560 625 560 625 499.5 646.5 c 128,-1,3
 439 668 439 668 360 663 c 0,4,5
 337 660 337 660 321 650.5 c 128,-1,6
 305 641 305 641 305 609 c 2,7,-1
 305 410 l 1,8,9
 533 435 533 435 610.5 361.5 c 128,-1,10
 688 288 688 288 688 198 c 0,11,12
 688 153 688 153 662 107.5 c 128,-1,13
 636 62 636 62 578 31 c 128,-1,14
 520 0 520 0 433 0 c 2,15,-1
 160 0 l 1,16,-1
 120 0 l 1,17,18
 160 31 160 31 160 95 c 2,19,-1
 160 613 l 2,20,21
 160 648 160 648 151.5 668.5 c 128,-1,22
 143 689 143 689 120 707 c 1,23,-1
 160 707 l 1,24,-1
 590 707 l 1,25,-1
 623 559 l 1,0,-1
305 364 m 1,26,-1
 305 115 l 2,27,28
 305 71 305 71 322 55 c 128,-1,29
 339 39 339 39 389 39 c 0,30,31
 469 39 469 39 502 88 c 128,-1,32
 535 137 535 137 535 200 c 0,33,34
 535 286 535 286 484 334.5 c 128,-1,35
 433 383 433 383 305 364 c 1,26,-1
EndSplineSet
Validated: 33
EndChar

StartChar: Ccedilla
Encoding: 194 194 99
AltUni2: 000412.ffffffff.0
Width: 746
Flags: W
LayerCount: 2
Fore
SplineSet
120 707 m 1,0,1
 195 712 195 712 280 712 c 0,2,3
 623 712 623 712 624 539 c 0,4,5
 624 483 624 483 588.5 446.5 c 128,-1,6
 553 410 553 410 513 399 c 0,7,8
 498 394 498 394 496 393 c 0,9,10
 487 389 487 389 487 386 c 0,11,12
 487 384 487 384 494 379 c 0,13,14
 508 371 508 371 533 365 c 0,15,16
 583 354 583 354 625 310 c 128,-1,17
 667 266 667 266 667 195 c 0,18,19
 669 110 669 110 601 55 c 128,-1,20
 533 0 533 0 422 0 c 2,21,-1
 120 -1 l 1,22,23
 143 17 143 17 151.5 37 c 128,-1,24
 160 57 160 57 160 92 c 2,25,-1
 160 613 l 2,26,27
 160 678 160 678 120 707 c 1,0,1
299 413 m 2,28,29
 299 400 299 400 308 399 c 2,30,-1
 317 399 l 2,31,32
 346 399 346 399 360 400 c 0,33,34
 417 405 417 405 452.5 438 c 128,-1,35
 488 471 488 471 490 526 c 0,36,37
 493 603 493 603 452.5 633 c 128,-1,38
 412 663 412 663 379 667 c 0,39,40
 340 675 340 675 319.5 661 c 128,-1,41
 299 647 299 647 299 620 c 2,42,-1
 299 413 l 2,28,29
299 87 m 2,43,44
 299 36 299 36 365 36 c 0,45,46
 413 36 413 36 448 56 c 128,-1,47
 483 76 483 76 502 111 c 128,-1,48
 521 146 521 146 521 195 c 0,49,50
 519 262 519 262 480 305.5 c 128,-1,51
 441 349 441 349 365 356 c 0,52,53
 349 357 349 357 316 357 c 0,54,55
 304 357 304 357 303 356 c 0,56,57
 299 353 299 353 299 345 c 2,58,-1
 299 87 l 2,43,44
EndSplineSet
Validated: 33
EndChar

StartChar: Eacute
Encoding: 195 195 100
AltUni2: 000413.ffffffff.0
Width: 677
Flags: W
LayerCount: 2
Fore
SplineSet
645 561 m 1,0,-1
 629 561 l 1,1,2
 570 644 570 644 479 656 c 0,3,4
 454 659 454 659 400 659 c 0,5,6
 376 662 376 662 356 658 c 0,7,8
 319 650 319 650 319 609 c 2,9,-1
 319 64 l 2,10,11
 319 38 319 38 325.5 25 c 128,-1,12
 332 12 332 12 357 0 c 1,13,-1
 138 0 l 1,14,15
 160 17 160 17 168.5 38 c 128,-1,16
 177 59 177 59 177 93 c 2,17,-1
 177 613 l 2,18,19
 177 648 177 648 168.5 669.5 c 128,-1,20
 160 691 160 691 138 707 c 1,21,-1
 616 707 l 1,22,-1
 645 561 l 1,0,-1
EndSplineSet
Validated: 33
EndChar

StartChar: Ntilde
Encoding: 196 196 101
AltUni2: 000414.ffffffff.0
Width: 858
Flags: W
LayerCount: 2
Fore
SplineSet
55 -168 m 1,0,-1
 30 -168 l 1,1,-1
 55 38 l 1,2,3
 176 37 176 37 216 150.5 c 128,-1,4
 256 264 256 264 263 479 c 0,5,6
 271 654 271 654 186 709 c 1,7,-1
 696 707 l 1,8,9
 655 676 655 676 655 613 c 2,10,-1
 655 123 l 2,11,12
 655 66 655 66 703 54 c 0,13,14
 717 50 717 50 747 50 c 2,15,-1
 774 50 l 1,16,-1
 804 -158 l 1,17,-1
 774 -158 l 1,18,19
 728 -59 728 -59 664.5 -29.5 c 128,-1,20
 601 0 601 0 513 0 c 2,21,-1
 430 0 l 1,22,-1
 342 0 l 2,23,24
 278 0 278 0 217.5 -20.5 c 128,-1,25
 157 -41 157 -41 112.5 -79 c 128,-1,26
 68 -117 68 -117 55 -168 c 1,0,-1
440 50 m 2,27,28
 487 50 487 50 499 76.5 c 128,-1,29
 511 103 511 103 511 140 c 2,30,-1
 511 580 l 2,31,32
 511 586 511 586 510.5 591 c 128,-1,33
 510 596 510 596 510 601 c 0,34,35
 510 609 510 609 509 615 c 128,-1,36
 508 621 508 621 507 627 c 0,37,38
 501 649 501 649 485 660.5 c 128,-1,39
 469 672 469 672 448 672 c 0,40,41
 388 676 388 676 360 667.5 c 128,-1,42
 332 659 332 659 325.5 641 c 128,-1,43
 319 623 319 623 317 578 c 0,44,45
 317 552 317 552 316.5 530.5 c 128,-1,46
 316 509 316 509 314 473 c 0,47,48
 309 324 309 324 282 228 c 128,-1,49
 255 132 255 132 238 97 c 0,50,51
 234 86 234 86 222 64 c 0,52,53
 222 61 222 61 221.5 59.5 c 128,-1,54
 221 58 221 58 220 55 c 0,55,56
 223 50 223 50 243 50 c 2,57,-1
 440 50 l 2,27,28
EndSplineSet
Validated: 33
EndChar

StartChar: Odieresis
Encoding: 197 197 102
AltUni2: 000415.ffffffff.0
Width: 723
Flags: W
LayerCount: 2
Fore
SplineSet
630 555 m 1,0,-1
 616 555 l 1,1,2
 595 596 595 596 547.5 627 c 128,-1,3
 500 658 500 658 450 658 c 2,4,-1
 356 658 l 2,5,6
 316 658 316 658 316 615 c 2,7,-1
 316 414 l 1,8,-1
 450 414 l 2,9,10
 529 414 529 414 572 461 c 1,11,-1
 572 317 l 1,12,13
 564 325 564 325 559 328 c 0,14,15
 538 346 538 346 535 348 c 0,16,17
 505 365 505 365 450 365 c 2,18,-1
 316 365 l 1,19,-1
 316 118 l 2,20,21
 316 108 316 108 317 103 c 0,22,23
 317 86 317 86 320 78 c 0,24,25
 334 47 334 47 381 47 c 2,26,-1
 494 47 l 2,27,28
 538 47 538 47 587 73.5 c 128,-1,29
 636 100 636 100 669 157 c 1,30,-1
 683 157 l 1,31,-1
 647 0 l 1,32,-1
 133 0 l 1,33,34
 156 18 156 18 165 38 c 128,-1,35
 174 58 174 58 174 93 c 2,36,-1
 174 613 l 2,37,38
 174 649 174 649 165 669 c 128,-1,39
 156 689 156 689 133 707 c 1,40,-1
 599 707 l 1,41,-1
 630 555 l 1,0,-1
EndSplineSet
Validated: 1
EndChar

StartChar: Udieresis
Encoding: 198 198 103
AltUni2: 000416.ffffffff.0
Width: 1128
Flags: W
LayerCount: 2
Fore
SplineSet
653 268 m 1,0,-1
 653 93 l 2,1,2
 653 30 653 30 695 0 c 1,3,-1
 472 0 l 1,4,5
 496 18 496 18 503.5 38.5 c 128,-1,6
 511 59 511 59 511 93 c 2,7,-1
 511 270 l 1,8,-1
 451 335 l 1,9,-1
 373 192 l 2,10,11
 363 173 363 173 354 160 c 0,12,13
 342 141 342 141 314 103 c 0,14,15
 270 46 270 46 215 3.5 c 128,-1,16
 160 -39 160 -39 84 -84 c 1,17,-1
 68 -68 l 1,18,19
 112 -28 112 -28 168.5 60.5 c 128,-1,20
 225 149 225 149 255 219 c 0,21,22
 260 230 260 230 299 316 c 0,23,24
 303 329 303 329 307.5 339.5 c 128,-1,25
 312 350 312 350 314 356 c 2,26,-1
 348 454 l 1,27,-1
 200 624 l 2,28,29
 172 656 172 656 147 675 c 0,30,31
 141 679 141 679 131 686 c 128,-1,32
 121 693 121 693 115 696 c 0,33,34
 105 704 105 704 98 707 c 2,35,-1
 286 707 l 1,36,37
 275 703 275 703 266.5 694 c 128,-1,38
 258 685 258 685 254 672 c 0,39,40
 252 652 252 652 265 632 c 0,41,42
 268 628 268 628 277 615 c 0,43,44
 280 608 280 608 286 602 c 2,45,-1
 513 348 l 1,46,-1
 511 613 l 2,47,48
 511 648 511 648 503.5 668 c 128,-1,49
 496 688 496 688 472 709 c 1,50,-1
 695 709 l 1,51,52
 672 688 672 688 662.5 667 c 128,-1,53
 653 646 653 646 653 613 c 2,54,-1
 655 346 l 1,55,-1
 879 602 l 2,56,57
 881 604 881 604 888 615 c 0,58,59
 895 622 895 622 900 632 c 0,60,61
 914 652 914 652 912 672 c 0,62,63
 911 683 911 683 900.5 693.5 c 128,-1,64
 890 704 890 704 879 707 c 2,65,-1
 1068 707 l 2,66,67
 1065 706 1065 706 1059 702 c 128,-1,68
 1053 698 1053 698 1049 696 c 0,69,70
 1044 693 1044 693 1035.5 686.5 c 128,-1,71
 1027 680 1027 680 1019 675 c 0,72,73
 994 656 994 656 966 624 c 2,74,-1
 817 454 l 1,75,-1
 852 356 l 2,76,77
 857 345 857 345 861 335 c 128,-1,78
 865 325 865 325 868 316 c 0,79,80
 878 294 878 294 888.5 269 c 128,-1,81
 899 244 899 244 909 219 c 0,82,83
 945 143 945 143 998.5 59 c 128,-1,84
 1052 -25 1052 -25 1099 -68 c 1,85,-1
 1082 -84 l 1,86,87
 879 34 879 34 792 192 c 2,88,-1
 715 335 l 1,89,-1
 653 268 l 1,0,-1
EndSplineSet
Validated: 33
EndChar

StartChar: aacute
Encoding: 199 199 104
AltUni2: 000417.ffffffff.0
Width: 677
Flags: W
LayerCount: 2
Fore
SplineSet
122 526 m 1,0,-1
 97 526 l 1,1,-1
 97 669 l 1,2,3
 230 724 230 724 335 723 c 0,4,5
 451 720 451 720 506.5 669.5 c 128,-1,6
 562 619 562 619 562 556 c 0,7,8
 564 503 564 503 521.5 457 c 128,-1,9
 479 411 479 411 403 391 c 0,10,11
 390 387 390 387 391 386 c 0,12,13
 391 385 391 385 403 385 c 0,14,15
 455 382 455 382 503.5 354 c 128,-1,16
 552 326 552 326 579 283 c 128,-1,17
 606 240 606 240 605 195 c 0,18,19
 605 120 605 120 536 54.5 c 128,-1,20
 467 -11 467 -11 317 -14 c 0,21,22
 197 -16 197 -16 97 29 c 1,23,-1
 74 184 l 1,24,-1
 109 184 l 1,25,26
 172 18 172 18 305 23 c 0,27,28
 370 26 370 26 410.5 71.5 c 128,-1,29
 451 117 451 117 451 189 c 0,30,31
 447 370 447 370 212 357 c 1,32,-1
 212 399 l 1,33,34
 307 396 307 396 353.5 426 c 128,-1,35
 400 456 400 456 411.5 495.5 c 128,-1,36
 423 535 423 535 419 564 c 0,37,38
 414 616 414 616 375 649.5 c 128,-1,39
 336 683 336 683 280 677 c 0,40,41
 226 671 226 671 181 625 c 128,-1,42
 136 579 136 579 122 526 c 1,0,-1
EndSplineSet
Validated: 33
EndChar

StartChar: agrave
Encoding: 200 200 105
AltUni2: 000418.ffffffff.0
Width: 880
Flags: W
LayerCount: 2
Fore
SplineSet
337 231 m 1,0,-1
 583 567 l 1,1,-1
 583 613 l 2,2,3
 583 648 583 648 574.5 669.5 c 128,-1,4
 566 691 566 691 544 707 c 1,5,-1
 772 707 l 1,6,7
 750 688 750 688 741 668 c 128,-1,8
 732 648 732 648 732 613 c 2,9,-1
 732 93 l 2,10,11
 732 59 732 59 740.5 40.5 c 128,-1,12
 749 22 749 22 772 0 c 1,13,-1
 544 0 l 1,14,15
 566 17 566 17 574.5 38 c 128,-1,16
 583 59 583 59 583 93 c 2,17,-1
 583 462 l 1,18,-1
 337 115 l 1,19,-1
 337 93 l 2,20,21
 337 31 337 31 378 0 c 1,22,-1
 154 0 l 1,23,24
 177 18 177 18 186 38 c 128,-1,25
 195 58 195 58 195 93 c 2,26,-1
 195 613 l 2,27,28
 195 649 195 649 186 669 c 128,-1,29
 177 689 177 689 154 707 c 1,30,-1
 378 707 l 1,31,32
 337 676 337 676 337 613 c 2,33,-1
 337 231 l 1,0,-1
EndSplineSet
Validated: 1
EndChar

StartChar: acircumflex
Encoding: 201 201 106
AltUni2: 000419.ffffffff.0
Width: 880
Flags: W
LayerCount: 2
Fore
SplineSet
337 231 m 1,0,-1
 583 567 l 1,1,-1
 583 613 l 2,2,3
 583 648 583 648 574.5 669.5 c 128,-1,4
 566 691 566 691 544 707 c 1,5,-1
 772 707 l 1,6,7
 750 688 750 688 741 668 c 128,-1,8
 732 648 732 648 732 613 c 2,9,-1
 732 93 l 2,10,11
 732 59 732 59 740.5 40.5 c 128,-1,12
 749 22 749 22 772 0 c 1,13,-1
 544 0 l 1,14,15
 566 17 566 17 574.5 38 c 128,-1,16
 583 59 583 59 583 93 c 2,17,-1
 583 462 l 1,18,-1
 337 115 l 1,19,-1
 337 93 l 2,20,21
 337 31 337 31 378 0 c 1,22,-1
 154 0 l 1,23,24
 177 18 177 18 186 38 c 128,-1,25
 195 58 195 58 195 93 c 2,26,-1
 195 613 l 2,27,28
 195 649 195 649 186 669 c 128,-1,29
 177 689 177 689 154 707 c 1,30,-1
 378 707 l 1,31,32
 337 676 337 676 337 613 c 2,33,-1
 337 231 l 1,0,-1
457 760 m 0,34,35
 396 760 396 760 361.5 794.5 c 128,-1,36
 327 829 327 829 334 865 c 0,37,38
 339 888 339 888 355 899.5 c 128,-1,39
 371 911 371 911 389 911 c 0,40,41
 423 908 423 908 425 877 c 0,42,43
 427 852 427 852 397 844 c 0,44,45
 389 841 389 841 386 836 c 0,46,47
 385 832 385 832 385 825 c 0,48,49
 388 810 388 810 409.5 797.5 c 128,-1,50
 431 785 431 785 457 785 c 0,51,52
 484 785 484 785 505.5 797.5 c 128,-1,53
 527 810 527 810 530 825 c 0,54,55
 530 832 530 832 529 836 c 0,56,57
 524 842 524 842 516 844 c 0,58,59
 488 853 488 853 490 877 c 0,60,61
 492 908 492 908 526 911 c 0,62,63
 544 911 544 911 560 899.5 c 128,-1,64
 576 888 576 888 581 865 c 0,65,66
 584 843 584 843 571 818.5 c 128,-1,67
 558 794 558 794 528.5 777 c 128,-1,68
 499 760 499 760 457 760 c 0,34,35
EndSplineSet
Validated: 33
EndChar

StartChar: adieresis
Encoding: 202 202 107
AltUni2: 00041a.ffffffff.0
Width: 789
Flags: W
LayerCount: 2
Fore
SplineSet
317 268 m 1,0,-1
 317 93 l 2,1,2
 317 29 317 29 357 0 c 1,3,-1
 135 0 l 1,4,5
 176 28 176 28 176 93 c 2,6,-1
 176 613 l 2,7,8
 176 672 176 672 135 709 c 1,9,-1
 357 709 l 1,10,11
 333 688 333 688 325 668 c 128,-1,12
 317 648 317 648 317 613 c 2,13,-1
 317 346 l 1,14,-1
 544 602 l 2,15,16
 547 605 547 605 553 615 c 0,17,18
 558 625 558 625 564 632 c 0,19,20
 578 657 578 657 575 672 c 0,21,22
 570 694 570 694 544 707 c 1,23,-1
 731 707 l 2,24,25
 728 706 728 706 720.5 701 c 128,-1,26
 713 696 713 696 713 696 c 2,27,28
 708 693 708 693 699.5 686.5 c 128,-1,29
 691 680 691 680 683 675 c 0,30,31
 658 657 658 657 629 624 c 2,32,-1
 481 454 l 1,33,-1
 515 356 l 2,34,35
 518 349 518 349 522.5 337 c 128,-1,36
 527 325 527 325 530 316 c 0,37,38
 536 304 536 304 573 219 c 0,39,40
 605 146 605 146 659.5 61 c 128,-1,41
 714 -24 714 -24 761 -68 c 1,42,-1
 746 -84 l 1,43,44
 648 -28 648 -28 576 39.5 c 128,-1,45
 504 107 504 107 456 192 c 2,46,-1
 378 335 l 1,47,-1
 317 268 l 1,0,-1
EndSplineSet
Validated: 33
EndChar

StartChar: atilde
Encoding: 203 203 108
AltUni2: 00041b.ffffffff.0
Width: 858
Flags: W
LayerCount: 2
Fore
SplineSet
303 707 m 1,0,-1
 750 707 l 1,1,2
 710 677 710 677 710 613 c 2,3,-1
 710 93 l 2,4,5
 710 30 710 30 750 0 c 1,6,-1
 527 0 l 1,7,8
 550 18 550 18 558.5 38.5 c 128,-1,9
 567 59 567 59 567 93 c 2,10,-1
 567 562 l 1,11,-1
 567 581 l 2,12,13
 567 599 567 599 566 607 c 0,14,15
 559 667 559 667 496 667 c 2,16,-1
 433 667 l 2,17,18
 394 667 394 667 382.5 642.5 c 128,-1,19
 371 618 371 618 371 581 c 2,20,-1
 370 340 l 2,21,22
 368 225 368 225 355 147.5 c 128,-1,23
 342 70 342 70 303 25 c 128,-1,24
 264 -20 264 -20 191 -14 c 0,25,26
 124 -8 124 -8 86.5 36.5 c 128,-1,27
 49 81 49 81 55 146 c 0,28,29
 59 194 59 194 84.5 217 c 128,-1,30
 110 240 110 240 138 238 c 0,31,32
 162 238 162 238 181 219.5 c 128,-1,33
 200 201 200 201 200 165 c 0,34,35
 200 144 200 144 191 123 c 0,36,37
 188 117 188 117 187 114.5 c 128,-1,38
 186 112 186 112 184.5 109 c 128,-1,39
 183 106 183 106 181 102 c 128,-1,40
 179 98 179 98 176 92 c 0,41,42
 167 72 167 72 174 57 c 0,43,44
 184 39 184 39 205 36 c 0,45,46
 273 22 273 22 293 116.5 c 128,-1,47
 313 211 313 211 316 343 c 2,48,-1
 316 613 l 2,49,50
 316 673 316 673 273 707 c 1,51,-1
 303 707 l 1,0,-1
EndSplineSet
Validated: 33
EndChar

StartChar: aring
Encoding: 204 204 109
AltUni2: 00041c.ffffffff.0
Width: 971
Flags: W
LayerCount: 2
Fore
SplineSet
373 707 m 1,0,-1
 505 255 l 1,1,-1
 629 707 l 1,2,-1
 832 707 l 1,3,4
 819 701 819 701 805.5 684 c 128,-1,5
 792 667 792 667 789 637 c 0,6,7
 789 631 789 631 791 622 c 128,-1,8
 793 613 793 613 793 609 c 0,9,10
 793 602 793 602 797 588 c 2,11,-1
 871 92 l 2,12,13
 873 86 873 86 875 75.5 c 128,-1,14
 877 65 877 65 882.5 52 c 128,-1,15
 888 39 888 39 898.5 25.5 c 128,-1,16
 909 12 909 12 925 0 c 1,17,-1
 701 0 l 1,18,19
 731 22 731 22 732.5 39.5 c 128,-1,20
 734 57 734 57 729 93 c 2,21,-1
 650 588 l 1,22,-1
 490 0 l 1,23,-1
 427 0 l 1,24,-1
 255 588 l 1,25,-1
 184 89 l 2,26,27
 176 36 176 36 219 0 c 1,28,-1
 74 0 l 1,29,30
 125 39 125 39 133 93 c 2,31,-1
 203 588 l 2,32,33
 209 639 209 639 208 649 c 0,34,35
 202 692 202 692 168 707 c 1,36,-1
 373 707 l 1,0,-1
EndSplineSet
Validated: 33
EndChar

StartChar: ccedilla
Encoding: 205 205 110
AltUni2: 00041d.ffffffff.0
Width: 858
Flags: W
LayerCount: 2
Fore
SplineSet
451 370 m 1,0,-1
 327 370 l 1,1,-1
 327 93 l 2,2,3
 327 30 327 30 367 0 c 1,4,-1
 144 0 l 1,5,6
 184 30 184 30 184 93 c 2,7,-1
 184 613 l 2,8,9
 184 677 184 677 144 707 c 1,10,-1
 367 707 l 1,11,12
 327 677 327 677 327 613 c 2,13,-1
 327 424 l 1,14,-1
 576 424 l 1,15,-1
 576 613 l 2,16,17
 576 648 576 648 568.5 668.5 c 128,-1,18
 561 689 561 689 537 707 c 1,19,-1
 760 707 l 1,20,21
 737 690 737 690 727.5 668 c 128,-1,22
 718 646 718 646 718 613 c 2,23,-1
 718 93 l 2,24,25
 718 62 718 62 727.5 39.5 c 128,-1,26
 737 17 737 17 760 0 c 1,27,-1
 537 0 l 1,28,29
 561 18 561 18 568.5 38.5 c 128,-1,30
 576 59 576 59 576 93 c 2,31,-1
 576 370 l 1,32,-1
 451 370 l 1,0,-1
EndSplineSet
Validated: 1
EndChar

StartChar: eacute
Encoding: 206 206 111
AltUni2: 00041e.ffffffff.0
Width: 789
Flags: W
LayerCount: 2
Fore
SplineSet
87 354 m 0,0,1
 87 471 87 471 133 554.5 c 128,-1,2
 179 638 179 638 252.5 680.5 c 128,-1,3
 326 723 326 723 408 723 c 0,4,5
 490 721 490 721 561.5 678 c 128,-1,6
 633 635 633 635 678 550.5 c 128,-1,7
 723 466 723 466 723 354 c 0,8,9
 723 264 723 264 696.5 195.5 c 128,-1,10
 670 127 670 127 624.5 81 c 128,-1,11
 579 35 579 35 523 11.5 c 128,-1,12
 467 -12 467 -12 408 -14 c 0,13,14
 326 -14 326 -14 253 27.5 c 128,-1,15
 180 69 180 69 133.5 152 c 128,-1,16
 87 235 87 235 87 354 c 0,0,1
234 354 m 256,17,18
 234 223 234 223 269 126 c 128,-1,19
 304 29 304 29 405 29 c 0,20,21
 576 30 576 30 576 354 c 256,22,23
 576 678 576 678 405 680 c 0,24,25
 304 680 304 680 269 582.5 c 128,-1,26
 234 485 234 485 234 354 c 256,17,18
EndSplineSet
Validated: 1
EndChar

StartChar: egrave
Encoding: 207 207 112
AltUni2: 00041f.ffffffff.0
Width: 880
Flags: W
LayerCount: 2
Fore
SplineSet
462 656 m 1,0,-1
 396 656 l 2,1,2
 339 656 339 656 339 601 c 2,3,-1
 339 93 l 2,4,5
 339 60 339 60 347 39 c 128,-1,6
 355 18 355 18 378 0 c 1,7,-1
 149 0 l 1,8,9
 189 30 189 30 189 93 c 2,10,-1
 189 613 l 2,11,12
 189 677 189 677 149 707 c 1,13,-1
 777 707 l 1,14,15
 755 689 755 689 746 668.5 c 128,-1,16
 737 648 737 648 737 613 c 2,17,-1
 737 93 l 2,18,19
 737 59 737 59 746 38.5 c 128,-1,20
 755 18 755 18 777 0 c 1,21,-1
 548 0 l 1,22,23
 588 30 588 30 588 93 c 2,24,-1
 588 601 l 2,25,26
 588 656 588 656 530 656 c 2,27,-1
 462 656 l 1,0,-1
EndSplineSet
Validated: 1
EndChar

StartChar: ecircumflex
Encoding: 208 208 113
AltUni2: 000420.ffffffff.0
Width: 746
Flags: W
LayerCount: 2
Fore
SplineSet
311 268 m 1,0,-1
 311 93 l 2,1,2
 311 26 311 26 351 0 c 1,3,-1
 123 0 l 1,4,5
 163 30 163 30 163 93 c 2,6,-1
 163 613 l 2,7,8
 163 677 163 677 123 707 c 1,9,10
 133 708 133 708 141.5 708.5 c 128,-1,11
 150 709 150 709 163 709 c 0,12,13
 177 710 177 710 193.5 711.5 c 128,-1,14
 210 713 210 713 217 713 c 0,15,16
 254 717 254 717 327 717 c 0,17,18
 452 714 452 714 531.5 678.5 c 128,-1,19
 611 643 611 643 644 590.5 c 128,-1,20
 677 538 677 538 675 478 c 0,21,22
 675 410 675 410 645 367 c 128,-1,23
 615 324 615 324 564.5 303.5 c 128,-1,24
 514 283 514 283 450.5 276.5 c 128,-1,25
 387 270 387 270 311 268 c 1,0,-1
311 310 m 1,26,27
 436 309 436 309 478.5 359 c 128,-1,28
 521 409 521 409 521 484 c 0,29,30
 521 550 521 550 500 589.5 c 128,-1,31
 479 629 479 629 451 646 c 128,-1,32
 423 663 423 663 388 669 c 0,33,34
 311 682 311 682 311 626 c 2,35,-1
 311 310 l 1,26,27
EndSplineSet
Validated: 33
EndChar

StartChar: edieresis
Encoding: 209 209 114
AltUni2: 000421.ffffffff.0
Width: 746
Flags: W
LayerCount: 2
Fore
SplineSet
677 518 m 1,0,-1
 644 518 l 1,1,2
 632 563 632 563 607 600.5 c 128,-1,3
 582 638 582 638 547.5 658 c 128,-1,4
 513 678 513 678 472 680 c 0,5,6
 423 680 423 680 376.5 645.5 c 128,-1,7
 330 611 330 611 300.5 536.5 c 128,-1,8
 271 462 271 462 268 343 c 256,9,10
 265 224 265 224 294.5 152.5 c 128,-1,11
 324 81 324 81 371 51 c 128,-1,12
 418 21 418 21 470 24 c 0,13,14
 547 29 547 29 594.5 85 c 128,-1,15
 642 141 642 141 664 205 c 1,16,-1
 695 205 l 1,17,-1
 677 41 l 1,18,19
 640 17 640 17 572 1.5 c 128,-1,20
 504 -14 504 -14 447 -14 c 0,21,22
 302 -14 302 -14 203 89 c 128,-1,23
 104 192 104 192 104 345 c 0,24,25
 105 452 105 452 149 539 c 128,-1,26
 193 626 193 626 271 674.5 c 128,-1,27
 349 723 349 723 447 723 c 0,28,29
 521 723 521 723 584 698 c 128,-1,30
 647 673 647 673 677 653 c 1,31,-1
 677 518 l 1,0,-1
EndSplineSet
Validated: 33
EndChar

StartChar: iacute
Encoding: 210 210 115
AltUni2: 000422.ffffffff.0
Width: 746
Flags: W
LayerCount: 2
Fore
SplineSet
382 0 m 1,0,-1
 277 0 l 1,1,2
 302 18 302 18 309.5 38.5 c 128,-1,3
 317 59 317 59 317 93 c 2,4,-1
 317 590 l 1,5,-1
 317 612 l 2,6,7
 317 632 317 632 316 635 c 0,8,9
 308 661 308 661 273 658 c 0,10,11
 250 655 250 655 220 640.5 c 128,-1,12
 190 626 190 626 164 602 c 128,-1,13
 138 578 138 578 130 559 c 1,14,-1
 106 559 l 1,15,-1
 143 707 l 1,16,-1
 642 707 l 1,17,-1
 678 559 l 1,18,-1
 655 559 l 1,19,20
 644 581 644 581 619 603.5 c 128,-1,21
 594 626 594 626 564 640.5 c 128,-1,22
 534 655 534 655 511 658 c 0,23,24
 476 662 476 662 468 635 c 0,25,26
 467 627 467 627 467 612 c 2,27,-1
 467 590 l 1,28,-1
 467 93 l 2,29,30
 467 59 467 59 476 38.5 c 128,-1,31
 485 18 485 18 507 0 c 1,32,-1
 382 0 l 1,0,-1
EndSplineSet
Validated: 33
EndChar

StartChar: igrave
Encoding: 211 211 116
AltUni2: 000423.ffffffff.0
Width: 723
Flags: W
LayerCount: 2
Fore
SplineSet
447 305 m 1,0,-1
 558 553 l 2,1,2
 581 608 581 608 580 642 c 0,3,4
 576 678 576 678 544 707 c 1,5,-1
 728 707 l 2,6,7
 726 706 726 706 722 703 c 128,-1,8
 718 700 718 700 712 696 c 0,9,10
 706 690 706 690 702.5 687 c 128,-1,11
 699 684 699 684 692 677 c 0,12,13
 669 656 669 656 652 615 c 2,14,-1
 419 112 l 2,15,16
 363 -8 363 -8 268 -14 c 0,17,18
 227 -16 227 -16 191 1.5 c 128,-1,19
 155 19 155 19 134 51.5 c 128,-1,20
 113 84 113 84 114 125 c 0,21,22
 114 170 114 170 136.5 192 c 128,-1,23
 159 214 159 214 187 212 c 0,24,25
 213 212 213 212 231 190 c 128,-1,26
 249 168 249 168 246 133 c 0,27,28
 246 121 246 121 240 97 c 0,29,30
 234 83 234 83 234 74 c 0,31,32
 230 49 230 49 257 41 c 0,33,34
 285 33 285 33 316.5 56 c 128,-1,35
 348 79 348 79 367 125 c 1,36,-1
 147 620 l 2,37,38
 135 656 135 656 109 681 c 0,39,40
 98 692 98 692 93 695 c 0,41,42
 84 704 84 704 78 707 c 2,43,-1
 324 707 l 1,44,45
 292 689 292 689 294 659 c 0,46,47
 294 645 294 645 303 627 c 2,48,-1
 447 305 l 1,0,-1
EndSplineSet
Validated: 33
EndChar

StartChar: icircumflex
Encoding: 212 212 117
AltUni2: 000424.ffffffff.0
Width: 903
Flags: W
LayerCount: 2
Fore
SplineSet
464 0 m 1,0,-1
 353 1 l 1,1,2
 377 20 377 20 385.5 40 c 128,-1,3
 394 60 394 60 394 95 c 2,4,-1
 394 133 l 1,5,6
 284 135 284 135 195.5 189 c 128,-1,7
 107 243 107 243 108 362 c 0,8,9
 109 470 109 470 194.5 528 c 128,-1,10
 280 586 280 586 394 588 c 1,11,-1
 394 613 l 2,12,13
 394 649 394 649 385 669 c 128,-1,14
 376 689 376 689 353 707 c 1,15,-1
 584 707 l 1,16,17
 562 689 562 689 553 668.5 c 128,-1,18
 544 648 544 648 544 613 c 2,19,-1
 544 588 l 1,20,21
 658 586 658 586 743.5 528 c 128,-1,22
 829 470 829 470 829 362 c 0,23,24
 830 243 830 243 741.5 189 c 128,-1,25
 653 135 653 135 544 133 c 1,26,-1
 544 95 l 2,27,28
 544 61 544 61 553 40.5 c 128,-1,29
 562 20 562 20 584 1 c 1,30,-1
 464 0 l 1,0,-1
394 171 m 1,31,-1
 394 544 l 1,32,33
 330 540 330 540 290.5 489 c 128,-1,34
 251 438 251 438 249 364 c 0,35,36
 247 192 247 192 394 171 c 1,31,-1
544 171 m 1,37,38
 629 183 629 183 659.5 239 c 128,-1,39
 690 295 690 295 688 364 c 0,40,41
 686 438 686 438 647.5 489 c 128,-1,42
 609 540 609 540 544 544 c 1,43,-1
 544 171 l 1,37,38
EndSplineSet
Validated: 33
EndChar

StartChar: idieresis
Encoding: 213 213 118
AltUni2: 000425.ffffffff.0
Width: 746
Flags: W
LayerCount: 2
Fore
SplineSet
410 478 m 1,0,-1
 473 593 l 2,1,2
 483 609 483 609 488.5 620 c 128,-1,3
 494 631 494 631 496 647 c 0,4,5
 498 662 498 662 494 672 c 0,6,7
 489 685 489 685 482 695 c 0,8,9
 473 707 473 707 473 707 c 1,10,-1
 642 707 l 2,11,12
 637 704 637 704 623 690 c 0,13,14
 617 684 617 684 609.5 676.5 c 128,-1,15
 602 669 602 669 598 664 c 0,16,17
 592 658 592 658 587.5 651 c 128,-1,18
 583 644 583 644 575 634 c 0,19,20
 569 624 569 624 563.5 616.5 c 128,-1,21
 558 609 558 609 555 604 c 2,22,-1
 445 418 l 1,23,-1
 616 108 l 1,24,25
 662 34 662 34 715 0 c 1,26,-1
 445 0 l 1,27,28
 466 15 466 15 470 39 c 0,29,30
 475 63 475 63 459 89 c 2,31,-1
 343 286 l 1,32,-1
 243 106 l 2,33,34
 232 81 232 81 228 66 c 1,35,36
 228 25 228 25 259 0 c 1,37,-1
 69 0 l 2,38,39
 72 2 72 2 77 6.5 c 128,-1,40
 82 11 82 11 86 14 c 0,41,42
 105 29 105 29 117 43 c 0,43,44
 132 56 132 56 152 83 c 0,45,46
 165 99 165 99 171 108 c 2,47,-1
 316 345 l 1,48,-1
 168 602 l 2,49,50
 133 663 133 663 84 707 c 1,51,-1
 343 707 l 1,52,53
 324 693 324 693 320 664 c 0,54,55
 318 641 318 641 330 620 c 2,56,-1
 410 478 l 1,0,-1
EndSplineSet
Validated: 33
EndChar

StartChar: ntilde
Encoding: 214 214 119
AltUni2: 000426.ffffffff.0
Width: 903
Flags: W
LayerCount: 2
Fore
SplineSet
445 50 m 1,0,-1
 513 50 l 2,1,2
 570 50 570 50 570 106 c 2,3,-1
 570 613 l 2,4,5
 570 649 570 649 561.5 668.5 c 128,-1,6
 553 688 553 688 529 709 c 1,7,-1
 760 709 l 1,8,9
 737 688 737 688 727.5 667 c 128,-1,10
 718 646 718 646 718 613 c 2,11,-1
 718 120 l 2,12,13
 718 89 718 89 729 71 c 128,-1,14
 740 53 740 53 767.5 46.5 c 128,-1,15
 795 40 795 40 837 41 c 1,16,-1
 872 -160 l 1,17,-1
 846 -160 l 1,18,19
 829 -107 829 -107 782 -70.5 c 128,-1,20
 735 -34 735 -34 673.5 -17 c 128,-1,21
 612 0 612 0 539 0 c 2,22,-1
 130 0 l 1,23,24
 171 29 171 29 171 93 c 2,25,-1
 171 613 l 2,26,27
 171 649 171 649 162.5 668.5 c 128,-1,28
 154 688 154 688 130 709 c 1,29,-1
 360 709 l 1,30,31
 337 688 337 688 328 668 c 128,-1,32
 319 648 319 648 319 613 c 2,33,-1
 319 106 l 2,34,35
 319 50 319 50 376 50 c 2,36,-1
 445 50 l 1,0,-1
EndSplineSet
Validated: 33
EndChar

StartChar: oacute
Encoding: 215 215 120
AltUni2: 000427.ffffffff.0
Width: 767
Flags: W
LayerCount: 2
Fore
SplineSet
479 343 m 1,0,-1
 479 613 l 2,1,2
 479 648 479 648 471.5 668.5 c 128,-1,3
 464 689 464 689 440 707 c 1,4,-1
 667 707 l 1,5,6
 627 677 627 677 627 613 c 2,7,-1
 627 93 l 2,8,9
 627 30 627 30 667 0 c 1,10,-1
 440 0 l 1,11,12
 464 18 464 18 471.5 38.5 c 128,-1,13
 479 59 479 59 479 93 c 2,14,-1
 479 300 l 1,15,16
 465 299 465 299 442 295 c 0,17,18
 429 293 429 293 415.5 291 c 128,-1,19
 402 289 402 289 388 286 c 0,20,21
 340 280 340 280 314 277 c 0,22,23
 214 271 214 271 177 305.5 c 128,-1,24
 140 340 140 340 140 385 c 2,25,-1
 140 613 l 2,26,27
 140 677 140 677 100 707 c 1,28,-1
 328 707 l 1,29,30
 306 689 306 689 297 668.5 c 128,-1,31
 288 648 288 648 288 613 c 2,32,-1
 288 414 l 2,33,34
 288 329 288 329 386 337 c 0,35,36
 428 337 428 337 479 343 c 1,0,-1
EndSplineSet
Validated: 33
EndChar

StartChar: ograve
Encoding: 216 216 121
AltUni2: 000428.ffffffff.0
Width: 1175
Flags: W
LayerCount: 2
Fore
SplineSet
176 707 m 1,0,-1
 325 707 l 1,1,-1
 367 707 l 1,2,3
 344 690 344 690 334.5 668 c 128,-1,4
 325 646 325 646 325 613 c 2,5,-1
 325 114 l 2,6,7
 325 50 325 50 381 50 c 2,8,-1
 481 50 l 2,9,10
 542 50 542 50 542 111 c 2,11,-1
 542 613 l 2,12,13
 542 648 542 648 533.5 668.5 c 128,-1,14
 525 689 525 689 502 707 c 1,15,-1
 728 707 l 1,16,17
 705 688 705 688 696.5 668 c 128,-1,18
 688 648 688 648 688 613 c 2,19,-1
 688 108 l 2,20,21
 688 50 688 50 741 50 c 2,22,-1
 843 50 l 2,23,24
 861 50 861 50 883.5 61.5 c 128,-1,25
 906 73 906 73 906 106 c 2,26,-1
 906 613 l 2,27,28
 906 678 906 678 865 707 c 1,29,-1
 1087 707 l 1,30,31
 1064 689 1064 689 1056 668.5 c 128,-1,32
 1048 648 1048 648 1048 613 c 2,33,-1
 1048 93 l 2,34,35
 1048 59 1048 59 1056 38.5 c 128,-1,36
 1064 18 1064 18 1087 0 c 1,37,-1
 135 0 l 1,38,39
 176 32 176 32 176 93 c 2,40,-1
 176 613 l 2,41,42
 176 675 176 675 135 707 c 1,43,-1
 176 707 l 1,0,-1
EndSplineSet
Validated: 1
EndChar

StartChar: ocircumflex
Encoding: 217 217 122
AltUni2: 000429.ffffffff.0
Width: 1175
Flags: W
LayerCount: 2
Fore
SplineSet
160 707 m 1,0,-1
 349 707 l 1,1,2
 326 689 326 689 318 668.5 c 128,-1,3
 310 648 310 648 310 613 c 2,4,-1
 310 114 l 2,5,6
 310 82 310 82 322.5 66 c 128,-1,7
 335 50 335 50 365 50 c 2,8,-1
 464 50 l 2,9,10
 503 50 503 50 514.5 71 c 128,-1,11
 526 92 526 92 526 111 c 2,12,-1
 526 613 l 2,13,14
 526 648 526 648 517.5 669.5 c 128,-1,15
 509 691 509 691 487 707 c 1,16,-1
 712 707 l 1,17,18
 689 690 689 690 679.5 668 c 128,-1,19
 670 646 670 646 670 613 c 2,20,-1
 670 108 l 2,21,22
 670 50 670 50 724 50 c 2,23,-1
 826 50 l 2,24,25
 844 50 844 50 867 61.5 c 128,-1,26
 890 73 890 73 890 106 c 2,27,-1
 890 613 l 2,28,29
 890 675 890 675 849 707 c 1,30,-1
 1071 707 l 1,31,32
 1031 677 1031 677 1031 613 c 2,33,-1
 1031 111 l 1,34,-1
 1031 97 l 2,35,36
 1033 91 1033 91 1033.5 87 c 128,-1,37
 1034 83 1034 83 1034 78 c 0,38,39
 1041 58 1041 58 1071 44 c 0,40,41
 1087 40 1087 40 1103 38 c 0,42,43
 1114 35 1114 35 1121 35 c 1,44,-1
 1150 -163 l 1,45,-1
 1121 -163 l 1,46,47
 1080 -59 1080 -59 1015.5 -29.5 c 128,-1,48
 951 0 951 0 901 0 c 2,49,-1
 118 0 l 1,50,51
 160 31 160 31 160 93 c 2,52,-1
 160 613 l 2,53,54
 160 676 160 676 118 707 c 1,55,-1
 160 707 l 1,0,-1
EndSplineSet
Validated: 1
EndChar

StartChar: odieresis
Encoding: 218 218 123
AltUni2: 00042a.ffffffff.0
Width: 858
Flags: W
LayerCount: 2
Fore
SplineSet
75 564 m 1,0,-1
 50 564 l 1,1,-1
 75 707 l 1,2,-1
 472 707 l 1,3,4
 432 677 432 677 432 613 c 2,5,-1
 432 410 l 1,6,7
 551 432 551 432 639.5 407.5 c 128,-1,8
 728 383 728 383 774.5 325.5 c 128,-1,9
 821 268 821 268 818 195 c 0,10,11
 817 142 817 142 787.5 97 c 128,-1,12
 758 52 758 52 705.5 26 c 128,-1,13
 653 0 653 0 593 0 c 2,14,-1
 243 0 l 1,15,16
 266 18 266 18 274.5 38.5 c 128,-1,17
 283 59 283 59 283 93 c 2,18,-1
 283 613 l 1,19,-1
 283 626 l 2,20,21
 283 649 283 649 276 657.5 c 128,-1,22
 269 666 269 666 252 669 c 0,23,24
 223 675 223 675 185.5 660 c 128,-1,25
 148 645 148 645 116.5 617.5 c 128,-1,26
 85 590 85 590 75 564 c 1,0,-1
432 365 m 1,27,-1
 432 109 l 2,28,29
 432 44 432 44 504 46 c 0,30,31
 657 46 657 46 661 201 c 0,32,33
 662 309 662 309 602.5 343 c 128,-1,34
 543 377 543 377 432 365 c 1,27,-1
EndSplineSet
Validated: 33
EndChar

StartChar: otilde
Encoding: 219 219 124
AltUni2: 00042b.ffffffff.0
Width: 1038
Flags: W
LayerCount: 2
Fore
SplineSet
314 410 m 1,0,1
 433 432 433 432 522 407.5 c 128,-1,2
 611 383 611 383 657.5 325.5 c 128,-1,3
 704 268 704 268 701 195 c 0,4,5
 698 112 698 112 633 56 c 128,-1,6
 568 0 568 0 475 0 c 2,7,-1
 125 0 l 1,8,9
 165 30 165 30 165 93 c 2,10,-1
 165 613 l 2,11,12
 165 677 165 677 125 707 c 1,13,-1
 354 707 l 1,14,15
 314 677 314 677 314 613 c 2,16,-1
 314 410 l 1,0,1
741 707 m 1,17,-1
 962 707 l 1,18,19
 922 677 922 677 922 613 c 2,20,-1
 922 93 l 2,21,22
 922 59 922 59 930.5 38.5 c 128,-1,23
 939 18 939 18 962 0 c 1,24,-1
 741 0 l 1,25,26
 780 30 780 30 780 93 c 2,27,-1
 780 613 l 2,28,29
 780 648 780 648 772 668.5 c 128,-1,30
 764 689 764 689 741 707 c 1,17,-1
314 365 m 1,31,-1
 314 109 l 2,32,33
 314 44 314 44 386 46 c 0,34,35
 536 47 536 47 544 201 c 0,36,37
 544 276 544 276 515 314 c 128,-1,38
 486 352 486 352 434.5 362.5 c 128,-1,39
 383 373 383 373 314 365 c 1,31,-1
EndSplineSet
Validated: 33
EndChar

StartChar: uacute
Encoding: 220 220 125
AltUni2: 00042c.ffffffff.0
Width: 746
Flags: W
LayerCount: 2
Fore
SplineSet
306 410 m 1,0,1
 425 432 425 432 514 407.5 c 128,-1,2
 603 383 603 383 649.5 325.5 c 128,-1,3
 696 268 696 268 693 195 c 0,4,5
 690 112 690 112 625 56 c 128,-1,6
 560 0 560 0 467 0 c 2,7,-1
 117 0 l 1,8,9
 157 30 157 30 157 93 c 2,10,-1
 157 613 l 2,11,12
 157 677 157 677 117 707 c 1,13,-1
 346 707 l 1,14,15
 306 677 306 677 306 613 c 2,16,-1
 306 410 l 1,0,1
306 365 m 1,17,-1
 306 109 l 2,18,19
 306 46 306 46 378 46 c 0,20,21
 473 46 473 46 504 96 c 128,-1,22
 535 146 535 146 535 201 c 0,23,24
 536 273 536 273 507 312.5 c 128,-1,25
 478 352 478 352 426.5 362.5 c 128,-1,26
 375 373 375 373 306 365 c 1,17,-1
EndSplineSet
Validated: 33
EndChar

StartChar: ugrave
Encoding: 221 221 126
AltUni2: 00042d.ffffffff.0
Width: 723
Flags: W
LayerCount: 2
Fore
SplineSet
140 510 m 1,0,-1
 112 510 l 1,1,-1
 112 634 l 1,2,3
 171 680 171 680 222 701.5 c 128,-1,4
 273 723 273 723 346 723 c 0,5,6
 443 722 443 722 515 671 c 128,-1,7
 587 620 587 620 625.5 535 c 128,-1,8
 664 450 664 450 664 351 c 0,9,10
 664 246 664 246 620 163 c 128,-1,11
 576 80 576 80 501.5 34.5 c 128,-1,12
 427 -11 427 -11 334 -14 c 0,13,14
 267 -15 267 -15 197 10 c 0,15,16
 187 15 187 15 180.5 17.5 c 128,-1,17
 174 20 174 20 161.5 27 c 128,-1,18
 149 34 149 34 140 38 c 0,19,20
 136 40 136 40 112 50 c 1,21,-1
 90 192 l 1,22,-1
 112 192 l 1,23,24
 139 132 139 132 193 85 c 128,-1,25
 247 38 247 38 308 35 c 0,26,27
 383 33 383 33 442.5 92.5 c 128,-1,28
 502 152 502 152 505 280 c 0,29,30
 505 298 505 298 505 315 c 128,-1,31
 505 332 505 332 505 348 c 0,32,33
 505 357 505 357 504 364 c 0,34,35
 499 373 499 373 497 374 c 0,36,37
 494 376 494 376 482 364 c 0,38,39
 468 346 468 346 448 337 c 0,40,41
 426 323 426 323 411 316 c 0,42,43
 401 312 401 312 374 308 c 0,44,45
 357 308 357 308 335 313 c 0,46,47
 319 318 319 318 300.5 325.5 c 128,-1,48
 282 333 282 333 279 334 c 0,49,50
 247 347 247 347 220 342 c 0,51,52
 193 338 193 338 158 308 c 1,53,-1
 140 320 l 1,54,55
 175 388 175 388 218 417.5 c 128,-1,56
 261 447 261 447 303 445 c 0,57,58
 326 444 326 444 347.5 435.5 c 128,-1,59
 369 427 369 427 379 422 c 0,60,61
 418 404 418 404 427 402 c 0,62,63
 461 395 461 395 479.5 414.5 c 128,-1,64
 498 434 498 434 496 472 c 0,65,66
 494 546 494 546 455 611 c 128,-1,67
 416 676 416 676 327 677 c 0,68,69
 260 678 260 678 209.5 631 c 128,-1,70
 159 584 159 584 140 510 c 1,0,-1
EndSplineSet
Validated: 33
EndChar

StartChar: ucircumflex
Encoding: 222 222 127
AltUni2: 00042e.ffffffff.0
Width: 1107
Flags: W
LayerCount: 2
Fore
SplineSet
288 432 m 1,0,-1
 418 430 l 1,1,2
 436 526 436 526 483 591 c 128,-1,3
 530 656 530 656 597.5 689.5 c 128,-1,4
 665 723 665 723 734 723 c 0,5,6
 861 721 861 721 955 623.5 c 128,-1,7
 1049 526 1049 526 1049 354 c 0,8,9
 1049 264 1049 264 1022.5 195.5 c 128,-1,10
 996 127 996 127 950.5 81 c 128,-1,11
 905 35 905 35 849 11.5 c 128,-1,12
 793 -12 793 -12 734 -14 c 0,13,14
 659 -14 659 -14 586 23.5 c 128,-1,15
 513 61 513 61 463.5 149 c 128,-1,16
 414 237 414 237 413 373 c 1,17,-1
 288 373 l 1,18,-1
 288 93 l 2,19,20
 288 59 288 59 297 38.5 c 128,-1,21
 306 18 306 18 328 0 c 1,22,-1
 106 0 l 1,23,24
 129 18 129 18 137.5 38.5 c 128,-1,25
 146 59 146 59 146 93 c 2,26,-1
 146 613 l 2,27,28
 146 648 146 648 137.5 668.5 c 128,-1,29
 129 689 129 689 106 707 c 1,30,-1
 328 707 l 1,31,32
 306 689 306 689 297 668.5 c 128,-1,33
 288 648 288 648 288 613 c 2,34,-1
 288 432 l 1,0,-1
561 354 m 0,35,36
 561 29 561 29 732 29 c 0,37,38
 836 30 836 30 869.5 129.5 c 128,-1,39
 903 229 903 229 903 354 c 0,40,41
 903 431 903 431 892 501 c 128,-1,42
 881 571 881 571 842.5 625 c 128,-1,43
 804 679 804 679 732 680 c 0,44,45
 561 680 561 680 561 354 c 0,35,36
EndSplineSet
Validated: 1
EndChar

StartChar: udieresis
Encoding: 223 223 128
AltUni2: 00042f.ffffffff.0
Width: 767
Flags: W
LayerCount: 2
Fore
SplineSet
664 0 m 1,0,-1
 623 0 l 1,1,-1
 478 0 l 1,2,-1
 439 0 l 1,3,4
 478 32 478 32 478 93 c 2,5,-1
 478 289 l 1,6,-1
 465 289 l 1,7,-1
 443 289 l 1,8,-1
 424 289 l 1,9,-1
 418 289 l 1,10,11
 349 141 349 141 271 50.5 c 128,-1,12
 193 -40 193 -40 78 -98 c 1,13,-1
 63 -79 l 1,14,15
 134 -7 134 -7 190 96.5 c 128,-1,16
 246 200 246 200 274 303 c 1,17,18
 202 318 202 318 154 372.5 c 128,-1,19
 106 427 106 427 109 496 c 0,20,21
 111 546 111 546 144 596.5 c 128,-1,22
 177 647 177 647 274.5 683.5 c 128,-1,23
 372 720 372 720 548 713 c 1,24,-1
 588 713 l 1,25,26
 627 719 627 719 644 718 c 128,-1,27
 661 717 661 717 655 706 c 0,28,29
 654 704 654 704 648.5 698.5 c 128,-1,30
 643 693 643 693 641 690 c 0,31,32
 623 669 623 669 623 620 c 2,33,-1
 623 93 l 2,34,35
 623 31 623 31 664 0 c 1,0,-1
478 335 m 1,36,-1
 478 607 l 2,37,38
 478 633 478 633 470 649 c 128,-1,39
 462 665 462 665 428 666 c 0,40,41
 363 666 363 666 316 624 c 128,-1,42
 269 582 269 582 266 497 c 0,43,44
 264 417 264 417 308 371.5 c 128,-1,45
 352 326 352 326 478 335 c 1,36,-1
EndSplineSet
Validated: 33
EndChar

StartChar: dagger
Encoding: 8224 8224 129
Width: 297
Flags: W
LayerCount: 2
Fore
SplineSet
34 751 m 1,0,-1
 110 751 l 1,1,-1
 110 880 l 1,2,-1
 189 880 l 1,3,-1
 189 751 l 1,4,-1
 264 751 l 1,5,-1
 264 668 l 1,6,-1
 189 668 l 1,7,-1
 189 -204 l 1,8,-1
 110 -204 l 1,9,-1
 110 668 l 1,10,-1
 34 668 l 1,11,-1
 34 751 l 1,0,-1
EndSplineSet
Validated: 1
EndChar

StartChar: degree
Encoding: 176 176 130
Width: 339
Flags: W
LayerCount: 2
Fore
SplineSet
60 613 m 0,0,1
 60 656 60 656 91 689.5 c 128,-1,2
 122 723 122 723 169 723 c 0,3,4
 213 723 213 723 245 692 c 128,-1,5
 277 661 277 661 277 613 c 0,6,7
 277 567 277 567 244 536 c 128,-1,8
 211 505 211 505 169 505 c 0,9,10
 126 505 126 505 93 536 c 128,-1,11
 60 567 60 567 60 613 c 0,0,1
112 613 m 0,12,13
 112 591 112 591 129.5 574.5 c 128,-1,14
 147 558 147 558 169 558 c 0,15,16
 192 558 192 558 208.5 574.5 c 128,-1,17
 225 591 225 591 225 613 c 0,18,19
 225 637 225 637 209.5 653.5 c 128,-1,20
 194 670 194 670 169 670 c 0,21,22
 146 670 146 670 129 654 c 128,-1,23
 112 638 112 638 112 613 c 0,12,13
EndSplineSet
Validated: 1
EndChar

StartChar: cent
Encoding: 65538 -1 131
Width: 451
Flags: W
LayerCount: 2
Fore
SplineSet
305 672 m 1,0,1
 305 626 305 626 305 557.5 c 128,-1,2
 305 489 305 489 306 489 c 0,3,4
 348 481 348 481 376.5 460.5 c 128,-1,5
 405 440 405 440 416.5 414 c 128,-1,6
 428 388 428 388 424 370 c 0,7,8
 420 353 420 353 405.5 340 c 128,-1,9
 391 327 391 327 368 331 c 0,10,11
 326 338 326 338 313 388 c 0,12,13
 310 398 310 398 306.5 409.5 c 128,-1,14
 303 421 303 421 300 427 c 0,15,16
 289 454 289 454 260 454 c 0,17,18
 235 454 235 454 210.5 433.5 c 128,-1,19
 186 413 186 413 170.5 370 c 128,-1,20
 155 327 155 327 155 268 c 0,21,22
 155 170 155 170 182 110.5 c 128,-1,23
 209 51 209 51 286 44 c 0,24,25
 315 43 315 43 343 52 c 0,26,27
 356 56 356 56 386 72 c 0,28,29
 395 75 395 75 407 84 c 1,30,-1
 418 66 l 1,31,32
 411 59 411 59 400 54 c 0,33,34
 392 48 392 48 386 43 c 128,-1,35
 380 38 380 38 373 33 c 0,36,37
 339 10 339 10 305 0 c 1,38,-1
 305 -216 l 1,39,-1
 226 -216 l 1,40,41
 226 -193 226 -193 226 -152.5 c 128,-1,42
 226 -112 226 -112 226 -71.5 c 128,-1,43
 226 -31 226 -31 226 -9 c 1,44,45
 178 -4 178 -4 135 22 c 128,-1,46
 92 48 92 48 63 98 c 128,-1,47
 34 148 34 148 35 216 c 0,48,49
 36 319 36 319 92 394 c 128,-1,50
 148 469 148 469 226 486 c 0,51,52
 228 486 228 486 227 556 c 128,-1,53
 226 626 226 626 226 672 c 1,54,-1
 305 672 l 1,0,1
EndSplineSet
Validated: 33
EndChar

StartChar: sterling
Encoding: 65539 -1 132
Width: 699
Flags: W
LayerCount: 2
Fore
SplineSet
672 154 m 1,0,-1
 641 0 l 1,1,-1
 129 0 l 1,2,3
 151 17 151 17 159.5 38 c 128,-1,4
 168 59 168 59 168 93 c 2,5,-1
 168 613 l 2,6,7
 168 648 168 648 159.5 669.5 c 128,-1,8
 151 691 151 691 129 707 c 1,9,-1
 351 707 l 1,10,11
 311 677 311 677 311 613 c 2,12,-1
 311 588 l 1,13,-1
 311 92 l 2,14,15
 311 49 311 49 351 49 c 2,16,-1
 468 49 l 2,17,18
 516 49 516 49 571 70 c 128,-1,19
 626 91 626 91 658 154 c 1,20,-1
 672 154 l 1,0,-1
EndSplineSet
Validated: 1
EndChar

StartChar: section
Encoding: 167 167 133
Width: 542
Flags: W
LayerCount: 2
Fore
SplineSet
132 436 m 1,0,1
 101 467 101 467 93 513 c 0,2,3
 87 558 87 558 105.5 606 c 128,-1,4
 124 654 124 654 168.5 683.5 c 128,-1,5
 213 713 213 713 279 710 c 0,6,7
 337 709 337 709 378.5 686.5 c 128,-1,8
 420 664 420 664 436.5 634 c 128,-1,9
 453 604 453 604 445 578 c 0,10,11
 441 562 441 562 425.5 552 c 128,-1,12
 410 542 410 542 391 544 c 0,13,14
 353 545 353 545 324 591 c 0,15,16
 320 600 320 600 313.5 612 c 128,-1,17
 307 624 307 624 306 626 c 0,18,19
 283 673 283 673 245 675 c 0,20,21
 217 679 217 679 190 660 c 128,-1,22
 163 641 163 641 163 607 c 0,23,24
 163 576 163 576 183.5 552 c 128,-1,25
 204 528 204 528 239 502.5 c 128,-1,26
 274 477 274 477 311 451 c 0,27,28
 376 404 376 404 397 388 c 0,29,30
 434 358 434 358 465.5 319 c 128,-1,31
 497 280 497 280 504 223 c 0,32,33
 512 129 512 129 418 54 c 1,34,35
 453 9 453 9 457 -41 c 0,36,37
 463 -101 463 -101 425.5 -158 c 128,-1,38
 388 -215 388 -215 320 -234 c 0,39,40
 288 -240 288 -240 268 -240 c 0,41,42
 204 -240 204 -240 150.5 -210 c 128,-1,43
 97 -180 97 -180 90 -137 c 0,44,45
 86 -107 86 -107 103.5 -85.5 c 128,-1,46
 121 -64 121 -64 149 -64 c 0,47,48
 170 -64 170 -64 193 -79.5 c 128,-1,49
 216 -95 216 -95 228 -122 c 0,50,51
 231 -127 231 -127 243 -154 c 0,52,53
 266 -200 266 -200 310 -200 c 0,54,55
 349 -200 349 -200 370 -167 c 128,-1,56
 391 -134 391 -134 381 -100 c 0,57,58
 367 -47 367 -47 271 15 c 0,59,60
 232 41 232 41 152 95 c 0,61,62
 109 127 109 127 75 169 c 128,-1,63
 41 211 41 211 36 268 c 0,64,65
 33 318 33 318 59.5 362.5 c 128,-1,66
 86 407 86 407 132 436 c 1,0,1
151 413 m 2,67,68
 136 423 136 423 115 395 c 128,-1,69
 94 367 94 367 98 339 c 0,70,71
 103 292 103 292 197 223 c 2,72,-1
 368 97 l 2,73,74
 403 74 403 74 408 74 c 0,75,76
 416 75 416 75 425.5 88 c 128,-1,77
 435 101 435 101 442 120 c 128,-1,78
 449 139 449 139 447 154 c 0,79,80
 443 183 443 183 415 213.5 c 128,-1,81
 387 244 387 244 357 263 c 2,82,-1
 151 413 l 2,67,68
EndSplineSet
Validated: 33
EndChar

StartChar: bullet
Encoding: 183 183 134
AltUni2: 002022.ffffffff.0
Width: 723
Flags: W
LayerCount: 2
Fore
SplineSet
252 378 m 256,0,1
 252 425 252 425 284 456 c 128,-1,2
 316 487 316 487 360 487 c 0,3,4
 405 487 405 487 436.5 456.5 c 128,-1,5
 468 426 468 426 468 378 c 256,6,7
 468 330 468 330 436 300 c 128,-1,8
 404 270 404 270 360 270 c 0,9,10
 317 270 317 270 284.5 300.5 c 128,-1,11
 252 331 252 331 252 378 c 256,0,1
EndSplineSet
Validated: 1
EndChar

StartChar: paragraph
Encoding: 182 182 135
Width: 623
Flags: W
LayerCount: 2
Fore
SplineSet
303 758 m 1,0,-1
 303 -209 l 1,1,-1
 201 -209 l 1,2,-1
 201 484 l 1,3,-1
 181 484 l 2,4,5
 113 484 113 484 71 520.5 c 128,-1,6
 29 557 29 557 29 621 c 0,7,8
 29 684 29 684 71.5 721 c 128,-1,9
 114 758 114 758 181 758 c 2,10,-1
 303 758 l 1,0,-1
447 758 m 1,11,-1
 548 758 l 1,12,-1
 548 -209 l 1,13,-1
 447 -209 l 1,14,-1
 447 758 l 1,11,-1
EndSplineSet
Validated: 1
EndChar

StartChar: germandbls
Encoding: 178 178 136
Width: 451
Flags: W
LayerCount: 2
Fore
SplineSet
132 707 m 1,0,-1
 354 707 l 1,1,2
 313 676 313 676 313 613 c 2,3,-1
 313 93 l 2,4,5
 313 29 313 29 354 0 c 1,6,-1
 132 0 l 1,7,8
 154 17 154 17 162.5 38 c 128,-1,9
 171 59 171 59 171 93 c 2,10,-1
 171 613 l 2,11,12
 171 648 171 648 162.5 669.5 c 128,-1,13
 154 691 154 691 132 707 c 1,0,-1
169 852 m 0,14,15
 169 880 169 880 191.5 902.5 c 128,-1,16
 214 925 214 925 243 925 c 0,17,18
 274 925 274 925 294 903 c 128,-1,19
 314 881 314 881 314 852 c 0,20,21
 314 824 314 824 294 802 c 128,-1,22
 274 780 274 780 243 780 c 0,23,24
 214 780 214 780 191.5 802.5 c 128,-1,25
 169 825 169 825 169 852 c 0,14,15
EndSplineSet
Validated: 1
EndChar

StartChar: registered
Encoding: 174 174 137
Width: 664
Flags: W
LayerCount: 2
Fore
SplineSet
29 580 m 256,0,1
 29 639 29 639 50.5 692.5 c 128,-1,2
 72 746 72 746 114 790.5 c 128,-1,3
 156 835 156 835 211 859 c 128,-1,4
 266 883 266 883 331 883 c 0,5,6
 397 883 397 883 453 858.5 c 128,-1,7
 509 834 509 834 550 790.5 c 128,-1,8
 591 747 591 747 613 693 c 128,-1,9
 635 639 635 639 635 580 c 256,10,11
 635 521 635 521 613 467 c 128,-1,12
 591 413 591 413 550 369.5 c 128,-1,13
 509 326 509 326 453 301.5 c 128,-1,14
 397 277 397 277 331 277 c 0,15,16
 266 277 266 277 211 301 c 128,-1,17
 156 325 156 325 114 369.5 c 128,-1,18
 72 414 72 414 50.5 467.5 c 128,-1,19
 29 521 29 521 29 580 c 256,0,1
71 580 m 0,20,21
 71 471 71 471 149.5 395.5 c 128,-1,22
 228 320 228 320 331 320 c 0,23,24
 400 320 400 320 460.5 354 c 128,-1,25
 521 388 521 388 557 448.5 c 128,-1,26
 593 509 593 509 593 580 c 0,27,28
 593 635 593 635 572 683.5 c 128,-1,29
 551 732 551 732 514 766.5 c 128,-1,30
 477 801 477 801 429 820.5 c 128,-1,31
 381 840 381 840 331 840 c 0,32,33
 283 840 283 840 235 820.5 c 128,-1,34
 187 801 187 801 150.5 766.5 c 128,-1,35
 114 732 114 732 92.5 683.5 c 128,-1,36
 71 635 71 635 71 580 c 0,20,21
232 690 m 2,37,38
 232 716 232 716 216 731 c 1,39,40
 293 739 293 739 314 735 c 1,41,42
 385 735 385 735 419 705.5 c 128,-1,43
 453 676 453 676 453 637 c 0,44,45
 454 602 454 602 431.5 583.5 c 128,-1,46
 409 565 409 565 381 559 c 1,47,48
 391 518 391 518 418.5 471 c 128,-1,49
 446 424 446 424 478 399 c 1,50,-1
 470 389 l 1,51,52
 414 424 414 424 379 462 c 128,-1,53
 344 500 344 500 322 553 c 1,54,55
 303 553 303 553 294 555 c 1,56,-1
 294 468 l 2,57,58
 294 442 294 442 310 427 c 1,59,-1
 216 427 l 1,60,61
 232 443 232 443 232 468 c 2,62,-1
 232 690 l 2,37,38
294 693 m 2,63,-1
 294 573 l 1,64,65
 312 570 312 570 317 570 c 0,66,67
 386 573 386 573 386 644 c 0,68,69
 386 662 386 662 378.5 678.5 c 128,-1,70
 371 695 371 695 355 705.5 c 128,-1,71
 339 716 339 716 316 717 c 0,72,73
 314 718 314 718 310 717 c 0,74,75
 294 717 294 717 294 693 c 2,63,-1
EndSplineSet
Validated: 33
EndChar

StartChar: copyright
Encoding: 169 169 138
Width: 1107
Flags: W
LayerCount: 2
Fore
SplineSet
33 303 m 0,0,1
 33 404 33 404 71 497.5 c 128,-1,2
 109 591 109 591 180.5 665.5 c 128,-1,3
 252 740 252 740 346.5 781.5 c 128,-1,4
 441 823 441 823 553 823 c 256,5,6
 665 823 665 823 759 782 c 128,-1,7
 853 741 853 741 924.5 667.5 c 128,-1,8
 996 594 996 594 1034.5 501 c 128,-1,9
 1073 408 1073 408 1073 303 c 0,10,11
 1073 169 1073 169 1005.5 48.5 c 128,-1,12
 938 -72 938 -72 819 -144 c 128,-1,13
 700 -216 700 -216 553 -216 c 256,14,15
 406 -216 406 -216 287 -144 c 128,-1,16
 168 -72 168 -72 100.5 48.5 c 128,-1,17
 33 169 33 169 33 303 c 0,0,1
75 303 m 256,18,19
 75 179 75 179 137 69.5 c 128,-1,20
 199 -40 199 -40 309 -106 c 128,-1,21
 419 -172 419 -172 553 -172 c 0,22,23
 654 -172 654 -172 742 -133 c 128,-1,24
 830 -94 830 -94 894 -28.5 c 128,-1,25
 958 37 958 37 994 122.5 c 128,-1,26
 1030 208 1030 208 1030 303 c 0,27,28
 1030 399 1030 399 994 484.5 c 128,-1,29
 958 570 958 570 894 636.5 c 128,-1,30
 830 703 830 703 742.5 741.5 c 128,-1,31
 655 780 655 780 553 780 c 0,32,33
 418 780 418 780 308.5 714 c 128,-1,34
 199 648 199 648 137 537.5 c 128,-1,35
 75 427 75 427 75 303 c 256,18,19
761 451 m 1,36,-1
 734 451 l 1,37,38
 717 516 717 516 677 553.5 c 128,-1,39
 637 591 637 591 586 591 c 0,40,41
 546 593 546 593 506 564 c 128,-1,42
 466 535 466 535 440 471.5 c 128,-1,43
 414 408 414 408 411 302 c 0,44,45
 410 197 410 197 435 135.5 c 128,-1,46
 460 74 460 74 500.5 49 c 128,-1,47
 541 24 541 24 584 27 c 0,48,49
 652 31 652 31 692.5 81 c 128,-1,50
 733 131 733 131 750 181 c 1,51,-1
 777 181 l 1,52,-1
 761 41 l 1,53,54
 730 22 730 22 674 7.5 c 128,-1,55
 618 -7 618 -7 564 -7 c 0,56,57
 483 -7 483 -7 415 33.5 c 128,-1,58
 347 74 347 74 309 144 c 128,-1,59
 271 214 271 214 271 303 c 0,60,61
 271 443 271 443 353.5 535 c 128,-1,62
 436 627 436 627 564 627 c 0,63,64
 606 627 606 627 648 616 c 128,-1,65
 690 605 690 605 717.5 591.5 c 128,-1,66
 745 578 745 578 761 569 c 1,67,-1
 761 451 l 1,36,-1
EndSplineSet
Validated: 33
EndChar

StartChar: trademark
Encoding: 153 153 139
AltUni2: 002122.ffffffff.0
Width: 985
Flags: W
LayerCount: 2
Fore
SplineSet
254 507 m 1,0,-1
 198 507 l 1,1,2
 219 525 219 525 219 558 c 2,3,-1
 219 822 l 1,4,-1
 219 832 l 1,5,-1
 219 846 l 1,6,7
 214 860 214 860 195 858 c 0,8,9
 174 856 174 856 150.5 838.5 c 128,-1,10
 127 821 127 821 118 806 c 1,11,-1
 106 806 l 1,12,-1
 126 883 l 1,13,-1
 393 883 l 1,14,-1
 411 806 l 1,15,-1
 399 806 l 1,16,17
 391 822 391 822 366.5 839.5 c 128,-1,18
 342 857 342 857 322 858 c 0,19,20
 303 858 303 858 300 846 c 0,21,22
 299 840 299 840 299 832 c 2,23,-1
 299 822 l 1,24,-1
 299 558 l 2,25,26
 299 524 299 524 320 507 c 1,27,-1
 254 507 l 1,0,-1
645 883 m 1,28,-1
 715 644 l 1,29,-1
 782 883 l 1,30,-1
 890 883 l 1,31,32
 868 874 868 874 868 847 c 0,33,34
 868 836 868 836 869 831 c 2,35,-1
 869 820 l 1,36,-1
 911 556 l 2,37,38
 916 522 916 522 939 507 c 1,39,-1
 820 507 l 1,40,41
 835 519 835 519 836.5 530.5 c 128,-1,42
 838 542 838 542 834 558 c 2,43,-1
 792 820 l 1,44,-1
 707 507 l 1,45,-1
 674 507 l 1,46,-1
 583 820 l 1,47,-1
 545 555 l 2,48,49
 542 526 542 526 562 507 c 1,50,-1
 487 507 l 1,51,52
 513 528 513 528 518 558 c 2,53,-1
 555 820 l 2,54,55
 556 829 556 829 557 836 c 128,-1,56
 558 843 558 843 558 854 c 0,57,58
 554 880 554 880 535 883 c 2,59,-1
 645 883 l 1,28,-1
EndSplineSet
Validated: 33
EndChar

StartChar: acute
Encoding: 65540 -1 140
Width: 1569
Flags: W
LayerCount: 2
Fore
SplineSet
135 533 m 0,0,1
 134 619 134 619 191 673.5 c 128,-1,2
 248 728 248 728 330 728 c 0,3,4
 385 728 385 728 431 703 c 128,-1,5
 477 678 477 678 503.5 634.5 c 128,-1,6
 530 591 530 591 530 533 c 0,7,8
 530 450 530 450 472 395 c 128,-1,9
 414 340 414 340 330 342 c 0,10,11
 248 344 248 344 191.5 397.5 c 128,-1,12
 135 451 135 451 135 533 c 0,0,1
573 92 m 0,13,14
 573 175 573 175 631 230.5 c 128,-1,15
 689 286 689 286 769 286 c 0,16,17
 820 287 820 287 867 263 c 128,-1,18
 914 239 914 239 941.5 194 c 128,-1,19
 969 149 969 149 969 92 c 0,20,21
 969 9 969 9 910 -46 c 128,-1,22
 851 -101 851 -101 769 -101 c 0,23,24
 688 -99 688 -99 630.5 -44.5 c 128,-1,25
 573 10 573 10 573 92 c 0,13,14
277 -184 m 1,26,-1
 245 -166 l 1,27,-1
 825 809 l 1,28,-1
 857 792 l 1,29,-1
 277 -184 l 1,26,-1
701 90 m 0,30,31
 701 -5 701 -5 713 -44 c 128,-1,32
 725 -83 725 -83 771 -83 c 0,33,34
 802 -83 802 -83 817 -65.5 c 128,-1,35
 832 -48 832 -48 837 -10.5 c 128,-1,36
 842 27 842 27 844 89 c 0,37,38
 846 171 846 171 832.5 218.5 c 128,-1,39
 819 266 819 266 771 265 c 256,40,41
 723 264 723 264 711 217 c 128,-1,42
 699 170 699 170 701 90 c 0,30,31
260 532 m 0,43,44
 262 436 262 436 273 397.5 c 128,-1,45
 284 359 284 359 331 359 c 0,46,47
 376 360 376 360 389.5 398 c 128,-1,48
 403 436 403 436 403 530 c 0,49,50
 405 617 405 617 393 662.5 c 128,-1,51
 381 708 381 708 331 707 c 0,52,53
 283 707 283 707 271.5 662.5 c 128,-1,54
 260 618 260 618 260 532 c 0,43,44
1062 92 m 0,55,56
 1062 175 1062 175 1120 230.5 c 128,-1,57
 1178 286 1178 286 1258 286 c 0,58,59
 1309 287 1309 287 1356 263 c 128,-1,60
 1403 239 1403 239 1430.5 194 c 128,-1,61
 1458 149 1458 149 1458 92 c 0,62,63
 1458 9 1458 9 1399 -46 c 128,-1,64
 1340 -101 1340 -101 1258 -101 c 0,65,66
 1177 -99 1177 -99 1119.5 -44.5 c 128,-1,67
 1062 10 1062 10 1062 92 c 0,55,56
1190 90 m 0,68,69
 1190 -5 1190 -5 1202 -44 c 128,-1,70
 1214 -83 1214 -83 1260 -83 c 0,71,72
 1291 -83 1291 -83 1306 -65.5 c 128,-1,73
 1321 -48 1321 -48 1326 -10.5 c 128,-1,74
 1331 27 1331 27 1333 89 c 0,75,76
 1335 171 1335 171 1321.5 218.5 c 128,-1,77
 1308 266 1308 266 1260 265 c 256,78,79
 1212 264 1212 264 1200 217 c 128,-1,80
 1188 170 1188 170 1190 90 c 0,68,69
EndSplineSet
Validated: 33
EndChar

StartChar: dieresis
Encoding: 189 189 141
Width: 723
Flags: W
LayerCount: 2
Fore
SplineSet
115 517 m 1,0,-1
 170 572 l 1,1,-1
 361 381 l 1,2,-1
 552 572 l 1,3,-1
 606 518 l 1,4,-1
 415 327 l 1,5,-1
 607 135 l 1,6,-1
 552 80 l 1,7,-1
 360 272 l 1,8,-1
 169 81 l 1,9,-1
 115 135 l 1,10,-1
 306 326 l 1,11,-1
 115 517 l 1,0,-1
EndSplineSet
Validated: 1
EndChar

StartChar: notequal
Encoding: 65541 -1 142
Width: 723
Flags: W
LayerCount: 2
Fore
SplineSet
46 437 m 1,0,-1
 384 437 l 1,1,-1
 510 719 l 1,2,-1
 563 697 l 1,3,-1
 448 437 l 1,4,-1
 664 437 l 1,5,-1
 664 359 l 1,6,-1
 413 359 l 1,7,-1
 371 263 l 1,8,-1
 666 263 l 1,9,-1
 666 186 l 1,10,-1
 337 186 l 1,11,-1
 199 -125 l 1,12,-1
 144 -102 l 1,13,-1
 272 186 l 1,14,-1
 46 186 l 1,15,-1
 47 263 l 1,16,-1
 306 263 l 1,17,-1
 349 359 l 1,18,-1
 46 359 l 1,19,-1
 46 437 l 1,0,-1
EndSplineSet
Validated: 1
EndChar

StartChar: AE
Encoding: 65542 -1 143
Width: 677
Flags: W
LayerCount: 2
Fore
SplineSet
645 561 m 1,0,-1
 629 561 l 1,1,2
 570 644 570 644 479 656 c 0,3,4
 454 659 454 659 400 659 c 0,5,6
 376 662 376 662 356 658 c 0,7,8
 319 650 319 650 319 609 c 2,9,-1
 319 64 l 2,10,11
 319 38 319 38 325.5 25 c 128,-1,12
 332 12 332 12 357 0 c 1,13,-1
 138 0 l 1,14,15
 160 17 160 17 168.5 38 c 128,-1,16
 177 59 177 59 177 93 c 2,17,-1
 177 613 l 2,18,19
 177 648 177 648 168.5 669.5 c 128,-1,20
 160 691 160 691 138 707 c 1,21,-1
 616 707 l 1,22,-1
 645 561 l 1,0,-1
EndSplineSet
Validated: 33
EndChar

StartChar: Oslash
Encoding: 65543 -1 144
Width: 473
Flags: W
LayerCount: 2
Fore
SplineSet
440 348 m 1,0,-1
 427 348 l 1,1,2
 423 355 423 355 419 360 c 0,3,4
 415 367 415 367 410.5 374 c 128,-1,5
 406 381 406 381 400 386 c 0,6,7
 374 415 374 415 343 427 c 128,-1,8
 312 439 312 439 291 439 c 0,9,10
 222 445 222 445 222 399 c 2,11,-1
 223 64 l 2,12,13
 223 40 223 40 229.5 26 c 128,-1,14
 236 12 236 12 262 0 c 1,15,-1
 71 0 l 1,16,17
 98 13 98 13 103 25.5 c 128,-1,18
 108 38 108 38 108 64 c 2,19,-1
 108 411 l 2,20,21
 108 438 108 438 103 451 c 128,-1,22
 98 464 98 464 71 476 c 1,23,-1
 407 476 l 1,24,-1
 440 348 l 1,0,-1
EndSplineSet
Validated: 33
EndChar

StartChar: plusminus
Encoding: 177 177 145
Width: 723
Flags: W
LayerCount: 2
Fore
SplineSet
322 635 m 1,0,-1
 400 635 l 1,1,-1
 400 365 l 1,2,-1
 670 365 l 1,3,-1
 670 288 l 1,4,-1
 400 288 l 1,5,-1
 400 17 l 1,6,-1
 322 17 l 1,7,-1
 322 288 l 1,8,-1
 52 288 l 1,9,-1
 52 365 l 1,10,-1
 322 365 l 1,11,-1
 322 635 l 1,0,-1
67 -63 m 1,12,-1
 665 -63 l 1,13,-1
 665 -149 l 1,14,-1
 67 -149 l 1,15,-1
 67 -63 l 1,12,-1
EndSplineSet
Validated: 1
EndChar

StartChar: lessequal
Encoding: 65544 -1 146
Width: 721
Flags: W
LayerCount: 2
Fore
SplineSet
39 248 m 1,0,-1
 656 511 l 1,1,-1
 683 450 l 1,2,-1
 206 252 l 1,3,-1
 206 245 l 1,4,-1
 683 47 l 1,5,-1
 656 -14 l 1,6,-1
 39 248 l 1,0,-1
61 -75 m 1,7,-1
 659 -75 l 1,8,-1
 659 -146 l 1,9,-1
 61 -146 l 1,10,-1
 61 -75 l 1,7,-1
EndSplineSet
Validated: 1
EndChar

StartChar: greaterequal
Encoding: 65545 -1 147
Width: 721
Flags: W
LayerCount: 2
Fore
SplineSet
683 248 m 1,0,-1
 64 -14 l 1,1,-1
 39 47 l 1,2,-1
 515 245 l 1,3,-1
 515 252 l 1,4,-1
 39 450 l 1,5,-1
 64 511 l 1,6,-1
 683 248 l 1,0,-1
61 -66 m 1,7,-1
 659 -66 l 1,8,-1
 659 -137 l 1,9,-1
 61 -137 l 1,10,-1
 61 -66 l 1,7,-1
EndSplineSet
Validated: 1
EndChar

StartChar: yen
Encoding: 65546 -1 148
Width: 699
Flags: W
LayerCount: 2
Fore
SplineSet
98 378 m 1,0,-1
 271 378 l 1,1,-1
 172 569 l 2,2,3
 148 617 148 617 122 650.5 c 128,-1,4
 96 684 96 684 55 707 c 1,5,-1
 343 707 l 1,6,7
 308 679 308 679 308 644 c 0,8,9
 308 634 308 634 313.5 617.5 c 128,-1,10
 319 601 319 601 322 593 c 2,11,-1
 422 378 l 1,12,-1
 431 378 l 1,13,-1
 526 586 l 2,14,15
 543 622 543 622 545 635 c 128,-1,16
 547 648 547 648 545 659 c 0,17,18
 543 684 543 684 505 707 c 1,19,-1
 674 707 l 1,20,21
 653 691 653 691 641 677 c 128,-1,22
 629 663 629 663 615 640 c 128,-1,23
 601 617 601 617 591 595 c 128,-1,24
 581 573 581 573 575 561 c 2,25,-1
 492 378 l 1,26,-1
 655 378 l 1,27,-1
 655 301 l 1,28,-1
 457 301 l 1,29,-1
 456 299 l 1,30,-1
 456 236 l 1,31,-1
 654 236 l 1,32,-1
 654 158 l 1,33,-1
 456 158 l 1,34,-1
 456 93 l 2,35,36
 456 31 456 31 497 0 c 1,37,-1
 274 0 l 1,38,39
 314 30 314 30 314 93 c 2,40,-1
 314 158 l 1,41,-1
 98 158 l 1,42,-1
 99 236 l 1,43,-1
 314 236 l 1,44,-1
 314 295 l 1,45,-1
 311 301 l 1,46,-1
 98 301 l 1,47,-1
 98 378 l 1,0,-1
EndSplineSet
Validated: 1
EndChar

StartChar: mu
Encoding: 65547 -1 149
Width: 609
Flags: W
LayerCount: 2
Fore
SplineSet
203 497 m 1,0,-1
 203 146 l 2,1,2
 203 103 203 103 210.5 81.5 c 128,-1,3
 218 60 218 60 249 57 c 0,4,5
 255 54 255 54 283.5 60.5 c 128,-1,6
 312 67 312 67 367 93 c 2,7,-1
 399 109 l 1,8,-1
 399 376 l 2,9,10
 399 432 399 432 356 428 c 1,11,-1
 356 437 l 1,12,13
 411 446 411 446 479 497 c 1,14,-1
 510 497 l 1,15,-1
 510 64 l 2,16,17
 510 29 510 29 522 15 c 0,18,19
 529 10 529 10 532.5 8.5 c 128,-1,20
 536 7 536 7 537 6 c 0,21,22
 541 4 541 4 543.5 2.5 c 128,-1,23
 546 1 546 1 547 0 c 2,24,-1
 360 0 l 1,25,26
 388 13 388 13 393.5 26 c 128,-1,27
 399 39 399 39 399 64 c 2,28,-1
 399 78 l 1,29,30
 359 57 359 57 353 54 c 0,31,32
 345 50 345 50 286 18 c 1,33,34
 217 -14 217 -14 171 -10 c 0,35,36
 126 -7 126 -7 109 19.5 c 128,-1,37
 92 46 92 46 92 90 c 2,38,-1
 92 376 l 2,39,40
 92 405 92 405 79.5 417.5 c 128,-1,41
 67 430 67 430 50 428 c 1,42,-1
 50 437 l 1,43,44
 104 446 104 446 174 497 c 1,45,-1
 203 497 l 1,0,-1
EndSplineSet
Validated: 33
EndChar

StartChar: partialdiff
Encoding: 65548 -1 150
Width: 542
Flags: W
LayerCount: 2
Fore
SplineSet
46 238 m 0,0,1
 46 300 46 300 74 358.5 c 128,-1,2
 102 417 102 417 153.5 453 c 128,-1,3
 205 489 205 489 271 488 c 0,4,5
 339 488 339 488 391 450.5 c 128,-1,6
 443 413 443 413 469.5 355.5 c 128,-1,7
 496 298 496 298 496 238 c 0,8,9
 496 194 496 194 482 151 c 128,-1,10
 468 108 468 108 438 71 c 128,-1,11
 408 34 408 34 366 12 c 128,-1,12
 324 -10 324 -10 271 -10 c 0,13,14
 168 -10 168 -10 107 66.5 c 128,-1,15
 46 143 46 143 46 238 c 0,0,1
172 237 m 0,16,17
 174 174 174 174 181.5 132 c 128,-1,18
 189 90 189 90 209.5 58.5 c 128,-1,19
 230 27 230 27 270 27 c 0,20,21
 367 24 367 24 367 237 c 0,22,23
 368 354 368 354 340 400.5 c 128,-1,24
 312 447 312 447 271 447 c 0,25,26
 172 445 172 445 172 237 c 0,16,17
EndSplineSet
Validated: 33
EndChar

StartChar: summation
Encoding: 65549 -1 151
Width: 519
Flags: W
LayerCount: 2
Fore
SplineSet
211 707 m 1,0,-1
 432 707 l 1,1,2
 409 689 409 689 401 668.5 c 128,-1,3
 393 648 393 648 393 613 c 2,4,-1
 393 257 l 2,5,6
 393 151 393 151 361.5 72.5 c 128,-1,7
 330 -6 330 -6 192 -14 c 0,8,9
 125 -17 125 -17 80 15 c 128,-1,10
 35 47 35 47 32 86 c 0,11,12
 30 113 30 113 46 132 c 128,-1,13
 62 151 62 151 89 151 c 0,14,15
 150 154 150 154 172 71 c 0,16,17
 176 56 176 56 183 46 c 0,18,19
 192 30 192 30 212 30 c 0,20,21
 251 29 251 29 255 83 c 0,22,23
 255 111 255 111 254 125 c 0,24,25
 254 139 254 139 253.5 147.5 c 128,-1,26
 253 156 253 156 252 165 c 0,27,28
 251 201 251 201 251 228 c 2,29,-1
 251 613 l 2,30,31
 251 675 251 675 211 707 c 1,0,-1
EndSplineSet
Validated: 33
EndChar

StartChar: product
Encoding: 65550 -1 152
Width: 723
Flags: W
LayerCount: 2
Fore
SplineSet
613 510 m 1,0,1
 596 583 596 583 545 630.5 c 128,-1,2
 494 678 494 678 427 677 c 0,3,4
 339 676 339 676 299 611 c 128,-1,5
 259 546 259 546 257 472 c 0,6,7
 256 451 256 451 263 431.5 c 128,-1,8
 270 412 270 412 286.5 404 c 128,-1,9
 303 396 303 396 325 402 c 0,10,11
 342 405 342 405 374 422 c 0,12,13
 416 443 416 443 450 445 c 0,14,15
 492 447 492 447 534.5 418.5 c 128,-1,16
 577 390 577 390 613 320 c 1,17,-1
 595 308 l 1,18,19
 556 339 556 339 532 342 c 0,20,21
 506 348 506 348 475 334 c 0,22,23
 469 332 469 332 455.5 326 c 128,-1,24
 442 320 442 320 435.5 317 c 128,-1,25
 429 314 429 314 419 313 c 0,26,27
 399 308 399 308 379 308 c 0,28,29
 350 313 350 313 343 316 c 0,30,31
 330 321 330 321 305 337 c 0,32,33
 283 349 283 349 271 364 c 0,34,35
 259 376 259 376 255 374 c 0,36,37
 251 370 251 370 251 364 c 0,38,39
 249 357 249 357 249 348 c 2,40,-1
 249 280 l 1,41,42
 253 152 253 152 312.5 92.5 c 128,-1,43
 372 33 372 33 447 35 c 0,44,45
 508 38 508 38 562.5 86 c 128,-1,46
 617 134 617 134 641 192 c 1,47,-1
 664 192 l 1,48,-1
 641 50 l 1,49,50
 626 45 626 45 613 38 c 0,51,52
 604 34 604 34 594.5 29 c 128,-1,53
 585 24 585 24 575.5 19.5 c 128,-1,54
 566 15 566 15 556 10 c 0,55,56
 485 -15 485 -15 419 -14 c 0,57,58
 326 -11 326 -11 252 34.5 c 128,-1,59
 178 80 178 80 134 161.5 c 128,-1,60
 90 243 90 243 90 351 c 0,61,62
 90 426 90 426 112 493 c 128,-1,63
 134 560 134 560 174.5 611 c 128,-1,64
 215 662 215 662 276.5 692.5 c 128,-1,65
 338 723 338 723 408 723 c 0,66,67
 482 723 482 723 533 701 c 128,-1,68
 584 679 584 679 641 634 c 1,69,-1
 641 510 l 1,70,-1
 613 510 l 1,0,1
EndSplineSet
Validated: 33
EndChar

StartChar: pi
Encoding: 65551 -1 153
Width: 496
Flags: W
LayerCount: 2
Fore
SplineSet
467 138 m 1,0,1
 430 68 430 68 384.5 29.5 c 128,-1,2
 339 -9 339 -9 266 -10 c 0,3,4
 224 -11 224 -11 183.5 4.5 c 128,-1,5
 143 20 143 20 113 53 c 128,-1,6
 83 86 83 86 66 133.5 c 128,-1,7
 49 181 49 181 49 243 c 0,8,9
 51 349 51 349 109.5 418.5 c 128,-1,10
 168 488 168 488 268 488 c 0,11,12
 344 488 344 488 422 450 c 1,13,-1
 422 331 l 1,14,-1
 413 331 l 1,15,16
 395 383 395 383 351.5 421.5 c 128,-1,17
 308 460 308 460 262 456 c 0,18,19
 236 453 236 453 215 439.5 c 128,-1,20
 194 426 194 426 179.5 401 c 128,-1,21
 165 376 165 376 165 349 c 0,22,23
 163 319 163 319 178.5 296.5 c 128,-1,24
 194 274 194 274 217 274 c 0,25,26
 226 274 226 274 248 283 c 0,27,28
 266 291 266 291 283 295 c 0,29,30
 293 300 293 300 310 300 c 0,31,32
 341 300 341 300 385 260 c 0,33,34
 397 248 397 248 402 240 c 0,35,36
 408 237 408 237 413 226 c 1,37,-1
 405 219 l 2,38,39
 404 222 404 222 400.5 223 c 128,-1,40
 397 224 397 224 394 225 c 0,41,42
 374 235 374 235 373 235 c 0,43,44
 357 241 357 241 330 228 c 0,45,46
 320 225 320 225 302 219 c 0,47,48
 290 213 290 213 270 209 c 0,49,50
 257 207 257 207 243 209 c 0,51,52
 229 213 229 213 212 226 c 128,-1,53
 195 239 195 239 184 254 c 0,54,55
 184 255 184 255 181.5 257.5 c 128,-1,56
 179 260 179 260 177 260 c 1,57,58
 177 263 177 263 174 264 c 128,-1,59
 171 265 171 265 169 263 c 0,60,61
 165 263 165 263 165 254 c 0,62,63
 162 243 162 243 165 235 c 0,64,65
 166 213 166 213 171 189 c 0,66,67
 186 117 186 117 224 88.5 c 128,-1,68
 262 60 262 60 303 58 c 0,69,70
 339 58 339 58 377.5 77 c 128,-1,71
 416 96 416 96 451 149 c 1,72,-1
 467 138 l 1,0,1
EndSplineSet
Validated: 33
EndChar

StartChar: integral
Encoding: 175 175 154
Width: 451
Flags: W
LayerCount: 2
Fore
SplineSet
132 707 m 1,0,-1
 354 707 l 1,1,2
 314 677 314 677 314 613 c 2,3,-1
 314 93 l 2,4,5
 314 59 314 59 322.5 38.5 c 128,-1,6
 331 18 331 18 354 0 c 1,7,-1
 132 0 l 1,8,9
 154 17 154 17 162.5 38 c 128,-1,10
 171 59 171 59 171 93 c 2,11,-1
 171 613 l 2,12,13
 171 648 171 648 162.5 669.5 c 128,-1,14
 154 691 154 691 132 707 c 1,0,-1
61 852 m 0,15,16
 61 884 61 884 83.5 904.5 c 128,-1,17
 106 925 106 925 135 925 c 256,18,19
 164 925 164 925 185 905 c 128,-1,20
 206 885 206 885 206 852 c 0,21,22
 206 821 206 821 184.5 800.5 c 128,-1,23
 163 780 163 780 135 780 c 256,24,25
 107 780 107 780 84 801 c 128,-1,26
 61 822 61 822 61 852 c 0,15,16
279 852 m 0,27,28
 279 880 279 880 300.5 902.5 c 128,-1,29
 322 925 322 925 351 925 c 0,30,31
 382 925 382 925 403 903 c 128,-1,32
 424 881 424 881 424 852 c 0,33,34
 424 824 424 824 403 802 c 128,-1,35
 382 780 382 780 351 780 c 0,36,37
 322 780 322 780 300.5 802.5 c 128,-1,38
 279 825 279 825 279 852 c 0,27,28
EndSplineSet
Validated: 1
EndChar

StartChar: ordfeminine
Encoding: 191 191 155
Width: 316
Flags: W
LayerCount: 2
Fore
SplineSet
214 505 m 1,0,-1
 214 64 l 2,1,2
 214 29 214 29 228 15 c 0,3,4
 232 11 232 11 235.5 10 c 128,-1,5
 239 9 239 9 241 6 c 0,6,7
 245 4 245 4 247 3 c 128,-1,8
 249 2 249 2 252 0 c 2,9,-1
 64 0 l 1,10,11
 90 12 90 12 96.5 25 c 128,-1,12
 103 38 103 38 103 64 c 2,13,-1
 103 385 l 2,14,15
 103 441 103 441 60 437 c 1,16,-1
 60 447 l 1,17,18
 116 453 116 453 184 505 c 1,19,-1
 214 505 l 1,0,-1
-17 664 m 0,20,21
 -17 696 -17 696 3.5 716.5 c 128,-1,22
 24 737 24 737 54 737 c 0,23,24
 85 737 85 737 105 716 c 128,-1,25
 125 695 125 695 125 664 c 0,26,27
 125 634 125 634 104.5 613.5 c 128,-1,28
 84 593 84 593 54 593 c 0,29,30
 22 593 22 593 2.5 613.5 c 128,-1,31
 -17 634 -17 634 -17 664 c 0,20,21
189 664 m 0,32,33
 189 694 189 694 209.5 715.5 c 128,-1,34
 230 737 230 737 262 737 c 0,35,36
 292 737 292 737 313 717 c 128,-1,37
 334 697 334 697 334 664 c 0,38,39
 334 633 334 633 312 613 c 128,-1,40
 290 593 290 593 262 593 c 0,41,42
 231 593 231 593 210 614 c 128,-1,43
 189 635 189 635 189 664 c 0,32,33
EndSplineSet
Validated: 33
EndChar

StartChar: ordmasculine
Encoding: 65552 -1 156
Width: 858
Flags: W
LayerCount: 2
Fore
SplineSet
303 707 m 1,0,-1
 750 707 l 1,1,2
 710 677 710 677 710 613 c 2,3,-1
 710 93 l 2,4,5
 710 30 710 30 750 0 c 1,6,-1
 527 0 l 1,7,8
 550 18 550 18 558.5 38.5 c 128,-1,9
 567 59 567 59 567 93 c 2,10,-1
 567 562 l 1,11,-1
 567 581 l 2,12,13
 567 599 567 599 566 607 c 0,14,15
 559 667 559 667 496 667 c 2,16,-1
 433 667 l 2,17,18
 394 667 394 667 382.5 642.5 c 128,-1,19
 371 618 371 618 371 581 c 2,20,-1
 370 340 l 2,21,22
 368 225 368 225 355 147.5 c 128,-1,23
 342 70 342 70 303 25 c 128,-1,24
 264 -20 264 -20 191 -14 c 0,25,26
 124 -8 124 -8 86.5 36.5 c 128,-1,27
 49 81 49 81 55 146 c 0,28,29
 59 194 59 194 84.5 217 c 128,-1,30
 110 240 110 240 138 238 c 0,31,32
 162 238 162 238 181 219.5 c 128,-1,33
 200 201 200 201 200 165 c 0,34,35
 200 144 200 144 191 123 c 0,36,37
 188 117 188 117 187 114.5 c 128,-1,38
 186 112 186 112 184.5 109 c 128,-1,39
 183 106 183 106 181 102 c 128,-1,40
 179 98 179 98 176 92 c 0,41,42
 167 72 167 72 174 57 c 0,43,44
 184 39 184 39 205 36 c 0,45,46
 273 22 273 22 293 116.5 c 128,-1,47
 313 211 313 211 316 343 c 2,48,-1
 316 613 l 2,49,50
 316 673 316 673 273 707 c 1,51,-1
 303 707 l 1,0,-1
EndSplineSet
Validated: 33
EndChar

StartChar: Omega
Encoding: 65553 -1 157
Width: 609
Flags: W
LayerCount: 2
Fore
SplineSet
172 476 m 1,0,-1
 522 476 l 1,1,2
 497 464 497 464 490.5 450.5 c 128,-1,3
 484 437 484 437 484 411 c 2,4,-1
 484 64 l 2,5,6
 484 45 484 45 486.5 34.5 c 128,-1,7
 489 24 489 24 496.5 15.5 c 128,-1,8
 504 7 504 7 522 0 c 1,9,-1
 335 0 l 2,10,11
 338 1 338 1 346 6 c 0,12,13
 358 13 358 13 359 15 c 0,14,15
 367 23 367 23 370 33 c 0,16,17
 371 36 371 36 371.5 42.5 c 128,-1,18
 372 49 372 49 373 54 c 2,19,-1
 373 69 l 1,20,-1
 373 393 l 2,21,22
 373 419 373 419 361.5 429 c 128,-1,23
 350 439 350 439 335 439 c 0,24,25
 328 441 328 441 320.5 440 c 128,-1,26
 313 439 313 439 305 439 c 0,27,28
 285 439 285 439 279 437 c 0,29,30
 260 431 260 431 259 413 c 2,31,-1
 259 396 l 1,32,-1
 259 386 l 1,33,-1
 257 232 l 2,34,35
 255 -10 255 -10 138 -10 c 0,36,37
 99 -12 99 -12 69.5 20 c 128,-1,38
 40 52 40 52 43 98 c 0,39,40
 46 133 46 133 62.5 152 c 128,-1,41
 79 171 79 171 103 171 c 0,42,43
 123 171 123 171 137 156.5 c 128,-1,44
 151 142 151 142 151 114 c 0,45,46
 151 99 151 99 146 84 c 0,47,48
 142 75 142 75 139.5 70 c 128,-1,49
 137 65 137 65 133 57 c 0,50,51
 131 48 131 48 133 43 c 0,52,53
 135 37 135 37 144 33 c 0,54,55
 171 25 171 25 196.5 77.5 c 128,-1,56
 222 130 222 130 222 240 c 2,57,-1
 222 376 l 2,58,59
 222 412 222 412 211.5 433 c 128,-1,60
 201 454 201 454 172 476 c 1,0,-1
EndSplineSet
Validated: 33
EndChar

StartChar: ae
Encoding: 65554 -1 158
Width: 858
Flags: W
LayerCount: 2
Fore
SplineSet
451 370 m 1,0,-1
 327 370 l 1,1,-1
 327 93 l 2,2,3
 327 30 327 30 367 0 c 1,4,-1
 144 0 l 1,5,6
 184 30 184 30 184 93 c 2,7,-1
 184 613 l 2,8,9
 184 677 184 677 144 707 c 1,10,-1
 367 707 l 1,11,12
 327 677 327 677 327 613 c 2,13,-1
 327 424 l 1,14,-1
 576 424 l 1,15,-1
 576 613 l 2,16,17
 576 648 576 648 568.5 668.5 c 128,-1,18
 561 689 561 689 537 707 c 1,19,-1
 760 707 l 1,20,21
 737 690 737 690 727.5 668 c 128,-1,22
 718 646 718 646 718 613 c 2,23,-1
 718 93 l 2,24,25
 718 62 718 62 727.5 39.5 c 128,-1,26
 737 17 737 17 760 0 c 1,27,-1
 537 0 l 1,28,29
 561 18 561 18 568.5 38.5 c 128,-1,30
 576 59 576 59 576 93 c 2,31,-1
 576 370 l 1,32,-1
 451 370 l 1,0,-1
EndSplineSet
Validated: 1
EndChar

StartChar: oslash
Encoding: 65555 -1 159
Width: 586
Flags: W
LayerCount: 2
Fore
SplineSet
212 237 m 1,0,-1
 212 64 l 2,1,2
 212 29 212 29 225 15 c 1,3,4
 225 15 225 15 231 12 c 128,-1,5
 237 9 237 9 240 6 c 0,6,7
 248 1 248 1 251 0 c 2,8,-1
 63 0 l 2,9,10
 66 1 66 1 74 6 c 0,11,12
 78 9 78 9 82 11 c 128,-1,13
 86 13 86 13 89 15 c 0,14,15
 101 29 101 29 101 64 c 2,16,-1
 101 411 l 2,17,18
 101 438 101 438 95.5 450.5 c 128,-1,19
 90 463 90 463 63 476 c 1,20,-1
 251 476 l 1,21,22
 225 464 225 464 218.5 451 c 128,-1,23
 212 438 212 438 212 411 c 2,24,-1
 212 280 l 1,25,-1
 374 280 l 1,26,-1
 374 411 l 2,27,28
 374 438 374 438 367.5 451 c 128,-1,29
 361 464 361 464 337 476 c 1,30,-1
 522 476 l 1,31,32
 495 462 495 462 489.5 449.5 c 128,-1,33
 484 437 484 437 484 411 c 2,34,-1
 484 64 l 2,35,36
 484 30 484 30 499 15 c 2,37,38
 499 15 499 15 511 6 c 0,39,40
 516 5 516 5 518.5 3 c 128,-1,41
 521 1 521 1 522 0 c 2,42,-1
 337 0 l 2,43,44
 340 2 340 2 342.5 3.5 c 128,-1,45
 345 5 345 5 348 6 c 0,46,47
 356 11 356 11 360 15 c 0,48,49
 374 29 374 29 374 64 c 2,50,-1
 374 237 l 1,51,-1
 212 237 l 1,0,-1
EndSplineSet
Validated: 1
EndChar

StartChar: questiondown
Encoding: 65556 -1 160
Width: 385
Flags: W
LayerCount: 2
Fore
SplineSet
263 494 m 1,0,-1
 263 6 l 2,1,2
 263 -133 263 -133 212.5 -177.5 c 128,-1,3
 162 -222 162 -222 109 -222 c 0,4,5
 74 -221 74 -221 53.5 -203.5 c 128,-1,6
 33 -186 33 -186 33 -162 c 0,7,8
 33 -142 33 -142 47.5 -127.5 c 128,-1,9
 62 -113 62 -113 84 -114 c 0,10,11
 103 -114 103 -114 135 -144 c 0,12,13
 138 -146 138 -146 141 -149 c 128,-1,14
 144 -152 144 -152 144 -152 c 2,15,16
 149 -155 149 -155 157 -155 c 0,17,18
 188 -155 188 -155 184 -117 c 0,19,20
 184 -105 184 -105 166 -52 c 0,21,22
 156 -18 156 -18 155 -9 c 0,23,24
 155 -1 155 -1 155 7.5 c 128,-1,25
 155 16 155 16 154 21 c 2,26,-1
 154 60 l 1,27,-1
 154 373 l 2,28,29
 154 429 154 429 111 425 c 1,30,-1
 111 436 l 1,31,32
 164 442 164 442 235 494 c 1,33,-1
 263 494 l 1,0,-1
137 664 m 0,34,35
 137 695 137 695 156.5 716 c 128,-1,36
 176 737 176 737 208 737 c 0,37,38
 241 737 241 737 260.5 716 c 128,-1,39
 280 695 280 695 280 664 c 256,40,41
 280 633 280 633 258 613 c 128,-1,42
 236 593 236 593 208 593 c 0,43,44
 176 593 176 593 156.5 613.5 c 128,-1,45
 137 634 137 634 137 664 c 0,34,35
EndSplineSet
Validated: 33
EndChar

StartChar: exclamdown
Encoding: 65557 -1 161
Width: 699
Flags: W
LayerCount: 2
Fore
SplineSet
562 535 m 1,0,-1
 542 535 l 1,1,2
 524 592 524 592 467 633.5 c 128,-1,3
 410 675 410 675 348 675 c 0,4,5
 294 675 294 675 264 644.5 c 128,-1,6
 234 614 234 614 234 576 c 0,7,8
 234 532 234 532 273 502 c 0,9,10
 287 491 287 491 331 467 c 0,11,12
 500 383 500 383 562 329 c 128,-1,13
 624 275 624 275 623 192 c 0,14,15
 622 100 622 100 547.5 43 c 128,-1,16
 473 -14 473 -14 365 -14 c 0,17,18
 272 -14 272 -14 143 35 c 1,19,-1
 125 184 l 1,20,-1
 143 184 l 1,21,22
 175 115 175 115 239 74 c 128,-1,23
 303 33 303 33 365 30 c 0,24,25
 425 30 425 30 466.5 58 c 128,-1,26
 508 86 508 86 507 141 c 0,27,28
 507 180 507 180 478.5 209.5 c 128,-1,29
 450 239 450 239 378 276 c 0,30,31
 354 290 354 290 279 327 c 1,32,33
 205 369 205 369 168.5 411 c 128,-1,34
 132 453 132 453 129 524 c 0,35,36
 128 585 128 585 157.5 630.5 c 128,-1,37
 187 676 187 676 239.5 699.5 c 128,-1,38
 292 723 292 723 356 723 c 0,39,40
 462 720 462 720 553 667 c 1,41,-1
 562 535 l 1,0,-1
EndSplineSet
Validated: 33
EndChar

StartChar: logicalnot
Encoding: 172 172 162
Width: 360
Flags: W
LayerCount: 2
Fore
SplineSet
64 197 m 1,0,-1
 64 310 l 1,1,-1
 295 310 l 1,2,-1
 295 197 l 1,3,-1
 64 197 l 1,0,-1
EndSplineSet
Validated: 1
EndChar

StartChar: radical
Encoding: 65558 -1 163
Width: 789
Flags: W
LayerCount: 2
Fore
SplineSet
701 805 m 1,0,-1
 753 789 l 1,1,-1
 467 0 l 1,2,-1
 376 0 l 1,3,-1
 257 364 l 1,4,-1
 34 364 l 1,5,-1
 34 444 l 1,6,-1
 379 444 l 1,7,-1
 467 169 l 1,8,-1
 701 805 l 1,0,-1
EndSplineSet
Validated: 1
EndChar

StartChar: florin
Encoding: 402 402 164
Width: 413
Flags: W
LayerCount: 2
Fore
SplineSet
265 67 m 2,0,1
 266 -10 266 -10 248 -70 c 128,-1,2
 230 -130 230 -130 205.5 -160.5 c 128,-1,3
 181 -191 181 -191 155 -205 c 128,-1,4
 129 -219 129 -219 112 -219 c 0,5,6
 77 -218 77 -218 56.5 -200.5 c 128,-1,7
 36 -183 36 -183 36 -159 c 0,8,9
 36 -139 36 -139 50.5 -124.5 c 128,-1,10
 65 -110 65 -110 87 -111 c 0,11,12
 106 -111 106 -111 138 -141 c 0,13,14
 141 -143 141 -143 144 -146 c 128,-1,15
 147 -149 147 -149 147 -149 c 2,16,17
 152 -152 152 -152 160 -152 c 0,18,19
 191 -152 191 -152 187 -114 c 0,20,21
 187 -102 187 -102 169 -49 c 0,22,23
 159 -15 159 -15 158 -6 c 0,24,25
 158 2 158 2 158 10.5 c 128,-1,26
 158 19 158 19 157 24 c 0,27,28
 157 30 157 30 156 42 c 128,-1,29
 155 54 155 54 154 67 c 2,30,-1
 154 457 l 1,31,-1
 75 457 l 1,32,-1
 75 500 l 1,33,-1
 154 500 l 1,34,35
 134 573 134 573 134 619 c 0,36,37
 136 672 136 672 166 703 c 128,-1,38
 196 734 196 734 246 734 c 0,39,40
 277 734 277 734 301.5 724 c 128,-1,41
 326 714 326 714 339.5 698 c 128,-1,42
 353 682 353 682 353 666 c 0,43,44
 354 648 354 648 341.5 634.5 c 128,-1,45
 329 621 329 621 307 621 c 0,46,47
 279 621 279 621 256 641 c 0,48,49
 245 651 245 651 237 661 c 0,50,51
 220 678 220 678 205 677 c 0,52,53
 181 673 181 673 177 644 c 0,54,55
 177 622 177 622 203 591 c 0,56,57
 209 582 209 582 216.5 574.5 c 128,-1,58
 224 567 224 567 228 561 c 0,59,60
 253 533 253 533 270 500 c 1,61,-1
 370 500 l 1,62,-1
 370 457 l 1,63,-1
 265 457 l 1,64,-1
 265 67 l 2,0,1
EndSplineSet
Validated: 33
EndChar

StartChar: approxequal
Encoding: 65559 -1 165
Width: 548
Flags: W
LayerCount: 2
Fore
SplineSet
95 173 m 1,0,-1
 49 173 l 1,1,2
 59 204 59 204 81.5 231.5 c 128,-1,3
 104 259 104 259 136 276.5 c 128,-1,4
 168 294 168 294 201 295 c 0,5,6
 218 295 218 295 246 289 c 0,7,8
 264 284 264 284 305 267 c 0,9,10
 386 238 386 238 408 241 c 0,11,12
 443 244 443 244 465 289 c 1,13,-1
 511 289 l 1,14,15
 459 167 459 167 374 164 c 0,16,17
 353 161 353 161 326 169 c 0,18,19
 315 172 315 172 301.5 177 c 128,-1,20
 288 182 288 182 274 187 c 0,21,22
 253 196 253 196 235 202 c 128,-1,23
 217 208 217 208 204 212.5 c 128,-1,24
 191 217 191 217 178.5 219 c 128,-1,25
 166 221 166 221 157 218 c 0,26,27
 140 217 140 217 123.5 204.5 c 128,-1,28
 107 192 107 192 95 173 c 1,0,-1
95 348 m 1,29,-1
 49 348 l 1,30,31
 64 395 64 395 106.5 431.5 c 128,-1,32
 149 468 149 468 201 469 c 0,33,34
 218 469 218 469 246 463 c 0,35,36
 270 457 270 457 305 442 c 0,37,38
 386 412 386 412 408 415 c 0,39,40
 442 418 442 418 465 463 c 1,41,-1
 511 463 l 1,42,43
 483 396 483 396 449 368.5 c 128,-1,44
 415 341 415 341 374 339 c 0,45,46
 353 336 353 336 326 344 c 0,47,48
 316 346 316 346 274 361 c 0,49,50
 226 381 226 381 200 389 c 128,-1,51
 174 397 174 397 157 393 c 0,52,53
 119 389 119 389 95 348 c 1,29,-1
EndSplineSet
Validated: 33
EndChar

StartChar: Delta
Encoding: 65560 -1 166
Width: 789
Flags: W
LayerCount: 2
Fore
SplineSet
676 67 m 1,0,-1
 627 -6 l 1,1,-1
 174 -6 l 1,2,-1
 132 52 l 1,3,-1
 359 707 l 1,4,-1
 450 707 l 1,5,-1
 676 67 l 1,0,-1
205 95 m 1,6,-1
 511 95 l 1,7,-1
 359 538 l 1,8,-1
 205 95 l 1,6,-1
EndSplineSet
Validated: 1
EndChar

StartChar: guillemotleft
Encoding: 171 171 167
Width: 542
Flags: W
LayerCount: 2
Fore
SplineSet
194 456 m 1,0,-1
 283 456 l 1,1,-1
 126 262 l 1,2,-1
 289 63 l 1,3,-1
 198 63 l 1,4,-1
 33 262 l 1,5,-1
 194 456 l 1,0,-1
357 456 m 1,6,-1
 447 456 l 1,7,-1
 291 262 l 1,8,-1
 453 63 l 1,9,-1
 362 63 l 1,10,-1
 200 262 l 1,11,-1
 357 456 l 1,6,-1
EndSplineSet
Validated: 1
EndChar

StartChar: guillemotright
Encoding: 187 187 168
Width: 542
Flags: W
LayerCount: 2
Fore
SplineSet
348 456 m 1,0,-1
 508 262 l 1,1,-1
 343 63 l 1,2,-1
 252 63 l 1,3,-1
 414 262 l 1,4,-1
 259 456 l 1,5,-1
 348 456 l 1,0,-1
184 456 m 1,6,-1
 340 262 l 1,7,-1
 180 63 l 1,8,-1
 89 63 l 1,9,-1
 251 262 l 1,10,-1
 95 456 l 1,11,-1
 184 456 l 1,6,-1
EndSplineSet
Validated: 1
EndChar

StartChar: ellipsis
Encoding: 190 190 169
AltUni2: 002026.ffffffff.0
Width: 780
Flags: W
LayerCount: 2
Fore
SplineSet
318 57 m 0,0,1
 318 85 318 85 339 107.5 c 128,-1,2
 360 130 360 130 390 130 c 256,3,4
 420 130 420 130 441.5 109.5 c 128,-1,5
 463 89 463 89 463 57 c 0,6,7
 463 26 463 26 441.5 6 c 128,-1,8
 420 -14 420 -14 390 -14 c 0,9,10
 362 -14 362 -14 340 6 c 128,-1,11
 318 26 318 26 318 57 c 0,0,1
573 57 m 0,12,13
 573 85 573 85 594 107.5 c 128,-1,14
 615 130 615 130 645 130 c 256,15,16
 675 130 675 130 696.5 109.5 c 128,-1,17
 718 89 718 89 718 57 c 0,18,19
 718 26 718 26 696.5 6 c 128,-1,20
 675 -14 675 -14 645 -14 c 0,21,22
 617 -14 617 -14 595 6 c 128,-1,23
 573 26 573 26 573 57 c 0,12,13
63 57 m 0,24,25
 63 85 63 85 84 107.5 c 128,-1,26
 105 130 105 130 135 130 c 256,27,28
 165 130 165 130 186.5 109.5 c 128,-1,29
 208 89 208 89 208 57 c 0,30,31
 208 26 208 26 186.5 6 c 128,-1,32
 165 -14 165 -14 135 -14 c 0,33,34
 107 -14 107 -14 85 6 c 128,-1,35
 63 26 63 26 63 57 c 0,24,25
EndSplineSet
Validated: 1
EndChar

StartChar: Agrave
Encoding: 139 139 170
Width: 342
Flags: W
LayerCount: 2
Fore
SplineSet
194 456 m 1,0,-1
 283 456 l 1,1,-1
 126 262 l 1,2,-1
 289 63 l 1,3,-1
 198 63 l 1,4,-1
 33 262 l 1,5,-1
 194 456 l 1,0,-1
EndSplineSet
Validated: 1
EndChar

StartChar: Atilde
Encoding: 155 155 171
Width: 411
Flags: W
LayerCount: 2
Fore
SplineSet
184 456 m 1,0,-1
 340 262 l 1,1,-1
 180 63 l 1,2,-1
 89 63 l 1,3,-1
 251 262 l 1,4,-1
 95 456 l 1,5,-1
 184 456 l 1,0,-1
EndSplineSet
Validated: 1
EndChar

StartChar: Otilde
Encoding: 338 338 172
Width: 789
Flags: W
LayerCount: 2
Fore
SplineSet
317 268 m 1,0,-1
 317 93 l 2,1,2
 317 29 317 29 357 0 c 1,3,-1
 135 0 l 1,4,5
 176 30 176 30 176 93 c 2,6,-1
 176 613 l 2,7,8
 176 672 176 672 135 709 c 1,9,-1
 357 709 l 1,10,11
 333 688 333 688 325 668 c 128,-1,12
 317 648 317 648 317 613 c 2,13,-1
 317 346 l 1,14,-1
 544 602 l 2,15,16
 547 605 547 605 553 615 c 0,17,18
 558 625 558 625 564 632 c 0,19,20
 578 657 578 657 575 672 c 0,21,22
 569 699 569 699 544 707 c 1,23,-1
 731 707 l 2,24,25
 728 706 728 706 720.5 701 c 128,-1,26
 713 696 713 696 713 696 c 2,27,28
 708 693 708 693 699.5 686.5 c 128,-1,29
 691 680 691 680 683 675 c 0,30,31
 655 654 655 654 629 624 c 2,32,-1
 481 454 l 1,33,-1
 515 356 l 2,34,35
 517 350 517 350 521.5 340 c 128,-1,36
 526 330 526 330 532 316 c 0,37,38
 565 237 565 237 573 219 c 0,39,40
 610 139 610 139 660 60 c 128,-1,41
 710 -19 710 -19 761 -68 c 1,42,-1
 746 -84 l 1,43,44
 644 -24 644 -24 573.5 41 c 128,-1,45
 503 106 503 106 456 192 c 2,46,-1
 378 335 l 1,47,-1
 317 268 l 1,0,-1
EndSplineSet
Validated: 33
EndChar

StartChar: OE
Encoding: 65561 -1 173
Width: 586
Flags: W
LayerCount: 2
Fore
SplineSet
151 0 m 1,0,-1
 64 0 l 1,1,2
 93 15 93 15 98 27 c 128,-1,3
 103 39 103 39 103 66 c 2,4,-1
 103 411 l 2,5,6
 103 437 103 437 97.5 449.5 c 128,-1,7
 92 462 92 462 64 476 c 1,8,-1
 252 476 l 1,9,10
 224 462 224 462 219 449.5 c 128,-1,11
 214 437 214 437 214 411 c 2,12,-1
 214 234 l 1,13,-1
 362 396 l 2,14,15
 375 411 375 411 378 428 c 0,16,17
 378 451 378 451 345 476 c 1,18,-1
 524 476 l 1,19,20
 524 476 524 476 516 472 c 0,21,22
 513 471 513 471 497 459 c 0,23,24
 494 457 494 457 487.5 453.5 c 128,-1,25
 481 450 481 450 476 447 c 0,26,27
 472 443 472 443 466.5 437.5 c 128,-1,28
 461 432 461 432 457 427 c 2,29,-1
 345 305 l 1,30,-1
 482 71 l 2,31,32
 497 47 497 47 516 32 c 0,33,34
 523 24 523 24 541 10 c 0,35,36
 545 8 545 8 548.5 5.5 c 128,-1,37
 552 3 552 3 555 0 c 2,38,-1
 320 0 l 1,39,40
 363 30 363 30 360 50 c 0,41,42
 359 58 359 58 353 68 c 0,43,44
 352 69 352 69 349.5 75 c 128,-1,45
 347 81 347 81 345 83 c 2,46,-1
 268 222 l 1,47,-1
 214 160 l 1,48,-1
 214 66 l 2,49,50
 214 30 214 30 228 15 c 0,51,52
 231 13 231 13 235.5 10 c 128,-1,53
 240 7 240 7 241 6 c 0,54,55
 246 5 246 5 248.5 3 c 128,-1,56
 251 1 251 1 252 0 c 2,57,-1
 151 0 l 1,0,-1
EndSplineSet
Validated: 33
EndChar

StartChar: oe
Encoding: 339 339 174
Width: 496
Flags: W
LayerCount: 2
Fore
SplineSet
381 359 m 1,0,-1
 368 359 l 1,1,2
 358 397 358 397 321 422.5 c 128,-1,3
 284 448 284 448 240 448 c 0,4,5
 203 448 203 448 180.5 430.5 c 128,-1,6
 158 413 158 413 158 389 c 0,7,8
 158 368 158 368 171.5 356 c 128,-1,9
 185 344 185 344 214 327 c 2,10,-1
 325 268 l 2,11,12
 376 242 376 242 403.5 211 c 128,-1,13
 431 180 431 180 430 130 c 0,14,15
 429 65 429 65 374.5 26.5 c 128,-1,16
 320 -12 320 -12 246 -10 c 0,17,18
 172 -10 172 -10 81 30 c 1,19,-1
 71 144 l 1,20,-1
 90 144 l 1,21,22
 108 94 108 94 151 60.5 c 128,-1,23
 194 27 194 27 245 27 c 0,24,25
 292 27 292 27 316 48.5 c 128,-1,26
 340 70 340 70 340 97 c 256,27,28
 340 124 340 124 316 143 c 0,29,30
 312 146 312 146 308.5 148.5 c 128,-1,31
 305 151 305 151 299 155 c 0,32,33
 297 157 297 157 292 159 c 128,-1,34
 287 161 287 161 283 163 c 2,35,-1
 171 223 l 2,36,37
 117 254 117 254 94.5 283.5 c 128,-1,38
 72 313 72 313 72 354 c 0,39,40
 72 421 72 421 122 455.5 c 128,-1,41
 172 490 172 490 246 488 c 0,42,43
 295 488 295 488 381 459 c 1,44,-1
 381 359 l 1,0,-1
EndSplineSet
Validated: 33
EndChar

StartChar: endash
Encoding: 150 150 175
AltUni2: 002013.ffffffff.0
Width: 723
Flags: W
LayerCount: 2
Fore
SplineSet
52 365 m 1,0,-1
 670 365 l 1,1,-1
 670 288 l 1,2,-1
 52 288 l 1,3,-1
 52 365 l 1,0,-1
EndSplineSet
Validated: 1
EndChar

StartChar: emdash
Encoding: 151 151 176
AltUni2: 002014.ffffffff.0
Width: 1084
Flags: W
LayerCount: 2
Fore
SplineSet
36 225 m 1,0,-1
 36 289 l 1,1,-1
 1048 286 l 1,2,-1
 1048 225 l 1,3,-1
 36 225 l 1,0,-1
EndSplineSet
Validated: 1
EndChar

StartChar: quotedblleft
Encoding: 147 147 177
AltUni2: 00201c.ffffffff.0
Width: 542
Flags: W
LayerCount: 2
Fore
SplineSet
378 707 m 1,0,-1
 402 707 l 1,1,2
 365 648 365 648 362 609 c 0,3,4
 359 574 359 574 385 550 c 0,5,6
 390 546 390 546 399.5 537.5 c 128,-1,7
 409 529 409 529 414 521 c 0,8,9
 436 499 436 499 436 468 c 0,10,11
 434 442 434 442 415.5 421 c 128,-1,12
 397 400 397 400 365 400 c 0,13,14
 334 400 334 400 313 423.5 c 128,-1,15
 292 447 292 447 291 491 c 0,16,17
 290 537 290 537 310 586 c 128,-1,18
 330 635 330 635 353 669 c 0,19,20
 359 678 359 678 371 698 c 0,21,22
 373 701 373 701 373.5 702 c 128,-1,23
 374 703 374 703 378 707 c 1,0,-1
135 707 m 1,24,-1
 160 707 l 1,25,26
 123 651 123 651 118 609 c 0,27,28
 117 576 117 576 141 550 c 0,29,30
 163 532 163 532 172 521 c 0,31,32
 196 497 196 497 192 468 c 0,33,34
 192 443 192 443 172.5 421.5 c 128,-1,35
 153 400 153 400 122 400 c 0,36,37
 92 400 92 400 70 423.5 c 128,-1,38
 48 447 48 447 47 491 c 0,39,40
 46 568 46 568 111 669 c 0,41,42
 112 671 112 671 117.5 679.5 c 128,-1,43
 123 688 123 688 129 698 c 2,44,45
 129 698 129 698 135 707 c 1,24,-1
EndSplineSet
Validated: 33
EndChar

StartChar: quotedblright
Encoding: 148 148 178
AltUni2: 00201d.ffffffff.0
Width: 699
Flags: W
LayerCount: 2
Fore
SplineSet
214 400 m 2,0,-1
 189 400 l 1,1,2
 228 462 228 462 228 499 c 1,3,4
 232 532 232 532 206 558 c 0,5,6
 201 565 201 565 192.5 572 c 128,-1,7
 184 579 184 579 176 586 c 0,8,9
 155 611 155 611 155 639 c 0,10,11
 157 664 157 664 175.5 686 c 128,-1,12
 194 708 194 708 226 707 c 0,13,14
 258 707 258 707 279 683 c 128,-1,15
 300 659 300 659 300 616 c 0,16,17
 301 570 301 570 281.5 522.5 c 128,-1,18
 262 475 262 475 238 439 c 0,19,20
 232 429 232 429 228.5 423.5 c 128,-1,21
 225 418 225 418 220 411 c 0,22,23
 219 408 219 408 217.5 405.5 c 128,-1,24
 216 403 216 403 214 400 c 2,0,-1
456 400 m 1,25,-1
 432 400 l 1,26,27
 472 464 472 464 472 499 c 0,28,29
 474 534 474 534 450 558 c 0,30,31
 444 566 444 566 435.5 572.5 c 128,-1,32
 427 579 427 579 419 586 c 0,33,34
 399 608 399 608 399 639 c 0,35,36
 401 666 401 666 419.5 687 c 128,-1,37
 438 708 438 708 470 707 c 0,38,39
 489 707 489 707 506 697.5 c 128,-1,40
 523 688 523 688 533 667.5 c 128,-1,41
 543 647 543 647 544 616 c 0,42,43
 545 574 545 574 525.5 526 c 128,-1,44
 506 478 506 478 481 439 c 0,45,46
 475 429 475 429 471 423.5 c 128,-1,47
 467 418 467 418 462 411 c 0,48,49
 460 404 460 404 456 400 c 1,25,-1
EndSplineSet
Validated: 33
EndChar

StartChar: quoteleft
Encoding: 145 145 179
AltUni2: 002018.ffffffff.0
Width: 270
Flags: W
LayerCount: 2
Fore
SplineSet
144 707 m 2,0,-1
 168 707 l 1,1,2
 130 646 130 646 129 609 c 0,3,4
 125 575 125 575 151 550 c 0,5,6
 156 546 156 546 165 538 c 128,-1,7
 174 530 174 530 181 521 c 0,8,9
 201 499 201 499 201 468 c 0,10,11
 201 443 201 443 182 421.5 c 128,-1,12
 163 400 163 400 130 400 c 0,13,14
 100 400 100 400 79 423 c 128,-1,15
 58 446 58 446 57 491 c 0,16,17
 55 567 55 567 118 669 c 0,18,19
 129 684 129 684 138 698 c 0,20,21
 140 701 140 701 141.5 703 c 128,-1,22
 143 705 143 705 144 707 c 2,0,-1
EndSplineSet
Validated: 33
EndChar

StartChar: quoteright
Encoding: 146 146 180
AltUni2: 002019.ffffffff.0 0000b4.ffffffff.0
Width: 270
Flags: W
LayerCount: 2
Fore
SplineSet
114 400 m 2,0,-1
 90 400 l 1,1,2
 129 463 129 463 130 499 c 0,3,4
 133 533 133 533 108 558 c 0,5,6
 103 564 103 564 94.5 571.5 c 128,-1,7
 86 579 86 579 78 586 c 0,8,9
 57 608 57 608 57 639 c 0,10,11
 59 666 59 666 77.5 687 c 128,-1,12
 96 708 96 708 129 707 c 0,13,14
 159 707 159 707 180 683 c 128,-1,15
 201 659 201 659 201 616 c 0,16,17
 203 538 203 538 140 439 c 0,18,19
 138 436 138 436 131 426.5 c 128,-1,20
 124 417 124 417 120 411 c 0,21,22
 115 401 115 401 114 400 c 2,0,-1
EndSplineSet
Validated: 33
EndChar

StartChar: divide
Encoding: 188 188 181
Width: 544
Flags: W
LayerCount: 2
Fore
SplineSet
-10 342 m 1,0,-1
 -10 427 l 1,1,-1
 555 427 l 1,2,-1
 555 342 l 1,3,-1
 -10 342 l 1,0,-1
198 583 m 256,4,5
 198 611 198 611 220.5 633.5 c 128,-1,6
 243 656 243 656 271 656 c 0,7,8
 301 656 301 656 322 634 c 128,-1,9
 343 612 343 612 343 583 c 256,10,11
 343 554 343 554 322.5 532.5 c 128,-1,12
 302 511 302 511 271 511 c 0,13,14
 242 511 242 511 220 533 c 128,-1,15
 198 555 198 555 198 583 c 256,4,5
198 184 m 0,16,17
 198 215 198 215 220 236 c 128,-1,18
 242 257 242 257 271 257 c 0,19,20
 301 257 301 257 322 236 c 128,-1,21
 343 215 343 215 343 184 c 0,22,23
 343 156 343 156 322 134 c 128,-1,24
 301 112 301 112 271 112 c 0,25,26
 243 112 243 112 220.5 134.5 c 128,-1,27
 198 157 198 157 198 184 c 0,16,17
EndSplineSet
Validated: 1
EndChar

StartChar: lozenge
Encoding: 163 163 182
Width: 699
Flags: W
LayerCount: 2
Fore
SplineSet
211 -157 m 2,0,-1
 186 -157 l 1,1,2
 225 -95 225 -95 225 -58 c 0,3,4
 228 -24 228 -24 203 1 c 0,5,6
 199 7 199 7 191 13.5 c 128,-1,7
 183 20 183 20 173 30 c 0,8,9
 152 53 152 53 152 82 c 0,10,11
 154 109 154 109 172.5 130 c 128,-1,12
 191 151 191 151 223 150 c 0,13,14
 255 150 255 150 276 126 c 128,-1,15
 297 102 297 102 297 59 c 0,16,17
 298 13 298 13 278.5 -34.5 c 128,-1,18
 259 -82 259 -82 235 -118 c 0,19,20
 233 -121 233 -121 227 -130 c 128,-1,21
 221 -139 221 -139 217 -146 c 0,22,23
 216 -149 216 -149 214.5 -152 c 128,-1,24
 213 -155 213 -155 211 -157 c 2,0,-1
453 -157 m 1,25,-1
 429 -157 l 1,26,27
 469 -93 469 -93 469 -58 c 0,28,29
 471 -23 471 -23 447 1 c 0,30,31
 442 6 442 6 434 13 c 128,-1,32
 426 20 426 20 416 30 c 0,33,34
 396 51 396 51 396 82 c 0,35,36
 398 109 398 109 416.5 130 c 128,-1,37
 435 151 435 151 467 150 c 0,38,39
 486 150 486 150 503 140.5 c 128,-1,40
 520 131 520 131 530 110.5 c 128,-1,41
 540 90 540 90 541 59 c 0,42,43
 542 17 542 17 522.5 -31 c 128,-1,44
 503 -79 503 -79 478 -118 c 0,45,46
 472 -128 472 -128 468 -133.5 c 128,-1,47
 464 -139 464 -139 459 -146 c 0,48,49
 457 -153 457 -153 453 -157 c 1,25,-1
EndSplineSet
Validated: 33
EndChar

StartChar: ydieresis
Encoding: 161 161 183
Width: 723
Flags: W
LayerCount: 2
Fore
SplineSet
447 305 m 1,0,-1
 558 553 l 2,1,2
 581 608 581 608 580 642 c 0,3,4
 576 678 576 678 544 707 c 1,5,-1
 728 707 l 2,6,7
 726 706 726 706 722 703 c 128,-1,8
 718 700 718 700 712 696 c 0,9,10
 706 690 706 690 702.5 687 c 128,-1,11
 699 684 699 684 692 677 c 0,12,13
 669 656 669 656 652 615 c 2,14,-1
 419 112 l 2,15,16
 363 -8 363 -8 268 -14 c 0,17,18
 227 -16 227 -16 191 1.5 c 128,-1,19
 155 19 155 19 134 51.5 c 128,-1,20
 113 84 113 84 114 125 c 0,21,22
 114 170 114 170 136.5 192 c 128,-1,23
 159 214 159 214 187 212 c 0,24,25
 213 212 213 212 231 190 c 128,-1,26
 249 168 249 168 246 133 c 0,27,28
 246 121 246 121 240 97 c 0,29,30
 234 83 234 83 234 74 c 0,31,32
 230 49 230 49 257 41 c 0,33,34
 285 33 285 33 316.5 56 c 128,-1,35
 348 79 348 79 367 125 c 1,36,-1
 147 620 l 2,37,38
 135 656 135 656 109 681 c 0,39,40
 98 692 98 692 93 695 c 0,41,42
 84 704 84 704 78 707 c 2,43,-1
 324 707 l 1,44,45
 292 689 292 689 294 659 c 0,46,47
 294 645 294 645 303 627 c 2,48,-1
 447 305 l 1,0,-1
428 827 m 0,49,50
 538 827 538 827 559 915 c 1,51,-1
 607 915 l 1,52,53
 598 850 598 850 556 793 c 128,-1,54
 514 736 514 736 428 736 c 0,55,56
 345 736 345 736 302.5 791 c 128,-1,57
 260 846 260 846 249 915 c 1,58,-1
 297 915 l 1,59,60
 320 827 320 827 428 827 c 0,49,50
EndSplineSet
Validated: 33
EndChar

StartChar: Ydieresis
Encoding: 162 162 184
AltUni2: 000178.ffffffff.0
Width: 564
Flags: W
LayerCount: 2
Fore
SplineSet
303 604 m 0,0,1
 412 604 412 604 433 692 c 1,2,-1
 481 692 l 1,3,4
 472 626 472 626 431.5 569.5 c 128,-1,5
 391 513 391 513 303 513 c 0,6,7
 217 513 217 513 175 568.5 c 128,-1,8
 133 624 133 624 123 692 c 1,9,-1
 171 692 l 1,10,11
 195 604 195 604 303 604 c 0,0,1
322 123 m 1,12,-1
 418 393 l 2,13,14
 422 408 422 408 422 422 c 0,15,16
 420 462 420 462 374 476 c 1,17,-1
 537 476 l 1,18,19
 508 462 508 462 494 439.5 c 128,-1,20
 480 417 480 417 468 381 c 2,21,-1
 322 -54 l 2,22,23
 267 -216 267 -216 158 -216 c 0,24,25
 106 -217 106 -217 75.5 -196.5 c 128,-1,26
 45 -176 45 -176 47 -144 c 0,27,28
 47 -126 47 -126 59.5 -112 c 128,-1,29
 72 -98 72 -98 98 -98 c 0,30,31
 126 -98 126 -98 152 -122 c 0,32,33
 156 -125 156 -125 159 -128.5 c 128,-1,34
 162 -132 162 -132 165 -135 c 0,35,36
 185 -153 185 -153 206 -151 c 0,37,38
 241 -142 241 -142 276 -44 c 1,39,-1
 87 402 l 2,40,41
 73 430 73 430 62 446.5 c 128,-1,42
 51 463 51 463 30 476 c 1,43,-1
 255 476 l 1,44,45
 212 453 212 453 214 421 c 0,46,47
 219 398 219 398 222 389 c 2,48,-1
 322 123 l 1,12,-1
EndSplineSet
Validated: 33
EndChar

StartChar: fraction
Encoding: 65562 -1 185
Width: 858
Flags: W
LayerCount: 2
Fore
SplineSet
618 707 m 1,0,-1
 767 707 l 1,1,2
 737 680 737 680 729 659.5 c 128,-1,3
 721 639 721 639 721 601 c 2,4,-1
 721 222 l 2,5,6
 721 168 721 168 708 120 c 128,-1,7
 695 72 695 72 639 30.5 c 128,-1,8
 583 -11 583 -11 467 -14 c 0,9,10
 276 -18 276 -18 223.5 60.5 c 128,-1,11
 171 139 171 139 171 251 c 2,12,-1
 171 615 l 2,13,14
 171 676 171 676 132 707 c 1,15,-1
 353 707 l 1,16,17
 330 689 330 689 321.5 669 c 128,-1,18
 313 649 313 649 313 615 c 2,19,-1
 313 208 l 2,20,21
 313 150 313 150 346.5 92 c 128,-1,22
 380 34 380 34 496 39 c 0,23,24
 563 43 563 43 606 73.5 c 128,-1,25
 649 104 649 104 658 147 c 0,26,27
 663 166 663 166 663 205 c 2,28,-1
 663 255 l 1,29,-1
 663 596 l 2,30,31
 663 641 663 641 657 661 c 128,-1,32
 651 681 651 681 618 707 c 1,0,-1
EndSplineSet
Validated: 33
EndChar

StartChar: currency
Encoding: 8729 8729 186
Width: 609
Flags: W
LayerCount: 2
Fore
SplineSet
203 497 m 1,0,-1
 203 146 l 2,1,2
 203 103 203 103 210.5 81.5 c 128,-1,3
 218 60 218 60 249 57 c 0,4,5
 255 54 255 54 283.5 60.5 c 128,-1,6
 312 67 312 67 367 93 c 2,7,-1
 399 109 l 1,8,-1
 399 376 l 2,9,10
 399 432 399 432 356 428 c 1,11,-1
 356 437 l 1,12,13
 411 446 411 446 479 497 c 1,14,-1
 510 497 l 1,15,-1
 510 64 l 2,16,17
 510 29 510 29 522 15 c 0,18,19
 529 10 529 10 532.5 8.5 c 128,-1,20
 536 7 536 7 537 6 c 0,21,22
 541 4 541 4 543.5 2.5 c 128,-1,23
 546 1 546 1 547 0 c 2,24,-1
 360 0 l 1,25,26
 388 13 388 13 393.5 26 c 128,-1,27
 399 39 399 39 399 64 c 2,28,-1
 399 78 l 1,29,30
 359 57 359 57 353 54 c 0,31,32
 345 50 345 50 286 18 c 1,33,34
 217 -14 217 -14 171 -10 c 0,35,36
 126 -7 126 -7 109 19.5 c 128,-1,37
 92 46 92 46 92 90 c 2,38,-1
 92 376 l 2,39,40
 92 405 92 405 79.5 417.5 c 128,-1,41
 67 430 67 430 50 428 c 1,42,-1
 50 437 l 1,43,44
 104 446 104 446 174 497 c 1,45,-1
 203 497 l 1,0,-1
EndSplineSet
Validated: 33
EndChar

StartChar: guilsinglleft
Encoding: 185 185 187
AltUni2: 002039.ffffffff.0
Width: 1084
Flags: W
LayerCount: 2
Fore
SplineSet
391 707 m 1,0,-1
 615 263 l 1,1,-1
 615 573 l 2,2,3
 615 717 615 717 741 723 c 0,4,5
 783 724 783 724 812.5 706 c 128,-1,6
 842 688 842 688 856.5 659 c 128,-1,7
 871 630 871 630 869 602 c 0,8,9
 869 565 869 565 848 542 c 128,-1,10
 827 519 827 519 801 519 c 0,11,12
 777 519 777 519 756.5 536.5 c 128,-1,13
 736 554 736 554 735 584 c 0,14,15
 735 606 735 606 746 632 c 0,16,17
 750 642 750 642 751.5 646 c 128,-1,18
 753 650 753 650 753 653 c 0,19,20
 753 678 753 678 726 674 c 0,21,22
 706 672 706 672 690 651 c 128,-1,23
 674 630 674 630 674 583 c 2,24,-1
 674 0 l 1,25,-1
 593 0 l 1,26,-1
 305 561 l 1,27,-1
 305 200 l 2,28,29
 305 -15 305 -15 163 -14 c 0,30,31
 111 -13 111 -13 75.5 24.5 c 128,-1,32
 40 62 40 62 38 115 c 0,33,34
 37 162 37 162 56.5 187 c 128,-1,35
 76 212 76 212 104 212 c 0,36,37
 130 214 130 214 149.5 194.5 c 128,-1,38
 169 175 169 175 168 138 c 0,39,40
 168 121 168 121 163 106 c 0,41,42
 155 89 155 89 154 86 c 0,43,44
 150 65 150 65 160 54.5 c 128,-1,45
 170 44 170 44 186 44 c 0,46,47
 227 47 227 47 236.5 91 c 128,-1,48
 246 135 246 135 246 200 c 2,49,-1
 246 593 l 2,50,51
 246 636 246 636 236.5 660 c 128,-1,52
 227 684 227 684 198 707 c 1,53,-1
 391 707 l 1,0,-1
746 0 m 1,54,-1
 746 101 l 1,55,-1
 888 101 l 1,56,-1
 1033 101 l 1,57,-1
 1033 0 l 1,58,-1
 746 0 l 1,54,-1
731 308 m 0,59,60
 731 383 731 383 783.5 422.5 c 128,-1,61
 836 462 836 462 888 462 c 0,62,63
 944 462 944 462 994.5 422 c 128,-1,64
 1045 382 1045 382 1045 308 c 256,65,66
 1045 234 1045 234 994.5 194 c 128,-1,67
 944 154 944 154 888 154 c 0,68,69
 853 154 853 154 817 171 c 128,-1,70
 781 188 781 188 756 223 c 128,-1,71
 731 258 731 258 731 308 c 0,59,60
846 308 m 1,72,-1
 846 283 l 1,73,-1
 846 260 l 1,74,75
 850 223 850 223 857.5 205 c 128,-1,76
 865 187 865 187 888 187 c 0,77,78
 929 186 929 186 931 260 c 0,79,80
 931 274 931 274 933 283 c 2,81,-1
 933 306 l 1,82,-1
 933 330 l 2,83,84
 931 339 931 339 931 353 c 0,85,86
 927 429 927 429 888 427 c 0,87,88
 864 427 864 427 857 409 c 128,-1,89
 850 391 850 391 846 354 c 1,90,-1
 846 331 l 1,91,-1
 846 308 l 1,72,-1
EndSplineSet
Validated: 33
EndChar

StartChar: guilsinglright
Encoding: 168 168 188
AltUni2: 00203a.ffffffff.0
Width: 723
Flags: W
LayerCount: 2
Fore
SplineSet
623 555 m 1,0,-1
 607 555 l 1,1,2
 584 600 584 600 537.5 629 c 128,-1,3
 491 658 491 658 442 658 c 2,4,-1
 348 658 l 2,5,6
 306 658 306 658 306 615 c 2,7,-1
 306 414 l 1,8,-1
 442 414 l 2,9,10
 520 414 520 414 564 461 c 1,11,-1
 564 317 l 2,12,13
 561 320 561 320 557.5 323.5 c 128,-1,14
 554 327 554 327 551 328 c 0,15,16
 537 342 537 342 526 348 c 0,17,18
 496 365 496 365 442 365 c 2,19,-1
 306 365 l 1,20,-1
 306 118 l 2,21,22
 307 115 307 115 307.5 111.5 c 128,-1,23
 308 108 308 108 308 103 c 0,24,25
 310 93 310 93 311 88.5 c 128,-1,26
 312 84 312 84 313 78 c 0,27,28
 324 47 324 47 371 47 c 2,29,-1
 487 47 l 2,30,31
 530 47 530 47 578.5 73.5 c 128,-1,32
 627 100 627 100 659 157 c 1,33,-1
 675 157 l 1,34,-1
 639 0 l 1,35,-1
 125 0 l 1,36,37
 165 30 165 30 165 93 c 2,38,-1
 165 613 l 2,39,40
 165 677 165 677 125 707 c 1,41,-1
 591 707 l 1,42,-1
 623 555 l 1,0,-1
206 837 m 0,43,44
 206 867 206 867 227 888 c 128,-1,45
 248 909 248 909 279 909 c 0,46,47
 309 909 309 909 330 888 c 128,-1,48
 351 867 351 867 351 837 c 0,49,50
 351 809 351 809 329.5 786.5 c 128,-1,51
 308 764 308 764 279 764 c 0,52,53
 248 764 248 764 227 786 c 128,-1,54
 206 808 206 808 206 837 c 0,43,44
419 837 m 0,55,56
 419 868 419 868 440.5 889.5 c 128,-1,57
 462 911 462 911 491 911 c 256,58,59
 520 911 520 911 541 890 c 128,-1,60
 562 869 562 869 562 837 c 0,61,62
 562 807 562 807 540.5 786.5 c 128,-1,63
 519 766 519 766 491 766 c 256,64,65
 463 766 463 766 441 787 c 128,-1,66
 419 808 419 808 419 837 c 0,55,56
EndSplineSet
Validated: 1
EndChar

StartChar: fi
Encoding: 184 184 189
Width: 496
Flags: W
LayerCount: 2
Fore
SplineSet
443 133 m 1,0,-1
 464 118 l 1,1,2
 432 73 432 73 407 47 c 128,-1,3
 382 21 382 21 348 5 c 128,-1,4
 314 -11 314 -11 270 -10 c 0,5,6
 182 -10 182 -10 114.5 57 c 128,-1,7
 47 124 47 124 44 249 c 0,8,9
 43 361 43 361 105 424.5 c 128,-1,10
 167 488 167 488 249 488 c 0,11,12
 320 488 320 488 379.5 436.5 c 128,-1,13
 439 385 439 385 450 268 c 1,14,-1
 168 268 l 1,15,16
 167 180 167 180 200.5 124.5 c 128,-1,17
 234 69 234 69 283 58 c 0,18,19
 299 54 299 54 310 54 c 0,20,21
 360 54 360 54 400 87 c 0,22,23
 412 98 412 98 430 118 c 0,24,25
 435 123 435 123 437 126 c 128,-1,26
 439 129 439 129 443 133 c 1,0,-1
74 664 m 0,27,28
 74 693 74 693 94 715 c 128,-1,29
 114 737 114 737 146 737 c 0,30,31
 175 737 175 737 197 716 c 128,-1,32
 219 695 219 695 219 664 c 0,33,34
 219 635 219 635 196.5 614 c 128,-1,35
 174 593 174 593 146 593 c 0,36,37
 115 593 115 593 94.5 614.5 c 128,-1,38
 74 636 74 636 74 664 c 0,27,28
283 663 m 0,39,40
 283 691 283 691 303 713 c 128,-1,41
 323 735 323 735 354 735 c 0,42,43
 387 735 387 735 407 714 c 128,-1,44
 427 693 427 693 427 663 c 0,45,46
 427 635 427 635 406 613 c 128,-1,47
 385 591 385 591 354 591 c 0,48,49
 326 591 326 591 304.5 611.5 c 128,-1,50
 283 632 283 632 283 663 c 0,39,40
303 311 m 2,51,52
 324 311 324 311 322 330 c 0,53,54
 312 451 312 451 246 448 c 0,55,56
 176 446 176 446 169 330 c 0,57,58
 169 316 169 316 172 313.5 c 128,-1,59
 175 311 175 311 183 311 c 2,60,-1
 303 311 l 2,51,52
EndSplineSet
Validated: 33
EndChar

StartChar: fl
Encoding: 255 255 190
AltUni2: 00044f.ffffffff.0
Width: 564
Flags: W
LayerCount: 2
Fore
SplineSet
339 192 m 1,0,-1
 276 192 l 1,1,-1
 191 0 l 1,2,-1
 43 0 l 2,3,4
 46 3 46 3 54 9 c 0,5,6
 55 10 55 10 61 14 c 128,-1,7
 67 18 67 18 72 23 c 0,8,9
 98 46 98 46 128.5 103.5 c 128,-1,10
 159 161 159 161 171 206 c 1,11,12
 67 257 67 257 71 345 c 0,13,14
 74 415 74 415 122 445.5 c 128,-1,15
 170 476 170 476 217 476 c 2,16,-1
 487 476 l 1,17,18
 463 464 463 464 456.5 450.5 c 128,-1,19
 450 437 450 437 450 410 c 2,20,-1
 450 66 l 2,21,22
 450 39 450 39 456.5 25.5 c 128,-1,23
 463 12 463 12 487 0 c 1,24,-1
 302 0 l 1,25,26
 326 13 326 13 332.5 26 c 128,-1,27
 339 39 339 39 339 66 c 2,28,-1
 339 192 l 1,0,-1
339 226 m 1,29,-1
 339 407 l 2,30,31
 339 437 339 437 310 439 c 0,32,33
 300 440 300 440 279 440 c 0,34,35
 271 440 271 440 263 439.5 c 128,-1,36
 255 439 255 439 245 437 c 0,37,38
 188 422 188 422 184 342 c 0,39,40
 181 269 181 269 219.5 246 c 128,-1,41
 258 223 258 223 289 223 c 0,42,43
 322 223 322 223 339 226 c 1,29,-1
EndSplineSet
Validated: 33
EndChar

StartChar: daggerdbl
Encoding: 224 224 191
AltUni2: 002021.ffffffff.0 000430.ffffffff.0
Width: 564
Flags: W
LayerCount: 2
Fore
SplineSet
521 58 m 1,0,-1
 532 46 l 1,1,2
 486 -8 486 -8 425 -10 c 0,3,4
 361 -16 361 -16 331 46 c 1,5,6
 256 -10 256 -10 187 -10 c 0,7,8
 134 -10 134 -10 103 22 c 128,-1,9
 72 54 72 54 72 101 c 0,10,11
 71 184 71 184 142.5 227.5 c 128,-1,12
 214 271 214 271 331 302 c 1,13,-1
 331 391 l 2,14,15
 331 456 331 456 274 461 c 0,16,17
 252 461 252 461 235.5 446.5 c 128,-1,18
 219 432 219 432 212 411 c 0,19,20
 212 406 212 406 211.5 401 c 128,-1,21
 211 396 211 396 209 388 c 0,22,23
 206 360 206 360 189 344 c 128,-1,24
 172 328 172 328 151 328 c 0,25,26
 132 328 132 328 118 337.5 c 128,-1,27
 104 347 104 347 103 371 c 0,28,29
 102 399 102 399 125 426 c 128,-1,30
 148 453 148 453 189.5 470.5 c 128,-1,31
 231 488 231 488 280 488 c 0,32,33
 442 493 442 493 442 359 c 2,34,-1
 442 114 l 2,35,36
 442 43 442 43 482 44 c 0,37,38
 488 44 488 44 502 50 c 128,-1,39
 516 56 516 56 521 58 c 1,0,-1
331 266 m 1,40,41
 267 255 267 255 227.5 211.5 c 128,-1,42
 188 168 188 168 192 114 c 0,43,44
 199 49 199 49 259 49 c 0,45,46
 297 49 297 49 331 81 c 1,47,-1
 331 266 l 1,40,41
EndSplineSet
Validated: 33
EndChar

StartChar: periodcentered
Encoding: 225 225 192
AltUni2: 000431.ffffffff.0
Width: 586
Flags: W
LayerCount: 2
Fore
SplineSet
501 728 m 1,0,-1
 519 728 l 1,1,2
 522 646 522 646 478 621 c 128,-1,3
 434 596 434 596 376 593 c 0,4,5
 342 593 342 593 300 588 c 0,6,7
 230 580 230 580 187 538.5 c 128,-1,8
 144 497 144 497 127 451 c 128,-1,9
 110 405 110 405 108 373 c 0,10,11
 108 356 108 356 111 354 c 0,12,13
 115 353 115 353 120 360 c 0,14,15
 129 372 129 372 133 381 c 0,16,17
 191 488 191 488 300 488 c 0,18,19
 369 489 369 489 421.5 455.5 c 128,-1,20
 474 422 474 422 501.5 364.5 c 128,-1,21
 529 307 529 307 527 237 c 0,22,23
 527 163 527 163 495.5 105.5 c 128,-1,24
 464 48 464 48 410.5 18.5 c 128,-1,25
 357 -11 357 -11 295 -10 c 0,26,27
 238 -10 238 -10 182.5 21 c 128,-1,28
 127 52 127 52 93 126 c 128,-1,29
 59 200 59 200 66 325 c 0,30,31
 71 394 71 394 89 460 c 128,-1,32
 107 526 107 526 141.5 577 c 128,-1,33
 176 628 176 628 234.5 661.5 c 128,-1,34
 293 695 293 695 374 699 c 0,35,36
 403 702 403 702 430 699 c 0,37,38
 439 699 439 699 448 699 c 128,-1,39
 457 699 457 699 465 699 c 0,40,41
 487 707 487 707 501 728 c 1,0,-1
197 237 m 0,42,43
 197 125 197 125 226.5 77 c 128,-1,44
 256 29 256 29 295 29 c 0,45,46
 397 24 397 24 397 240 c 0,47,48
 397 448 397 448 300 448 c 0,49,50
 193 447 193 447 197 237 c 0,42,43
EndSplineSet
Validated: 33
EndChar

StartChar: quotesinglbase
Encoding: 226 226 193
AltUni2: 00201a.ffffffff.0 000432.ffffffff.0
Width: 542
Flags: W
LayerCount: 2
Fore
SplineSet
101 476 m 1,0,-1
 285 476 l 2,1,2
 466 476 466 476 464 356 c 0,3,4
 461 270 461 270 343 255 c 1,5,6
 346 255 346 255 349.5 254 c 128,-1,7
 353 253 353 253 356 252.5 c 128,-1,8
 359 252 359 252 362 251 c 0,9,10
 387 244 387 244 396 240 c 0,11,12
 449 222 449 222 469.5 190 c 128,-1,13
 490 158 490 158 490 126 c 0,14,15
 490 84 490 84 456 47.5 c 128,-1,16
 422 11 422 11 353 3 c 0,17,18
 342 3 342 3 334.5 2.5 c 128,-1,19
 327 2 327 2 317 1 c 0,20,21
 313 0 313 0 302 0 c 2,22,-1
 101 0 l 1,23,-1
 63 0 l 1,24,25
 90 13 90 13 95.5 25.5 c 128,-1,26
 101 38 101 38 101 64 c 2,27,-1
 101 411 l 2,28,29
 101 439 101 439 95.5 452 c 128,-1,30
 90 465 90 465 63 476 c 1,31,-1
 101 476 l 1,0,-1
214 265 m 1,32,33
 340 258 340 258 340 349 c 0,34,35
 343 400 343 400 319.5 416.5 c 128,-1,36
 296 433 296 433 270 436 c 0,37,38
 214 438 214 438 214 402 c 2,39,-1
 214 265 l 1,32,33
214 228 m 1,40,-1
 214 71 l 2,41,42
 214 64 214 64 216 61 c 0,43,44
 216 56 216 56 219 50 c 0,45,46
 229 35 229 35 270 35 c 1,47,48
 368 47 368 47 362 140 c 0,49,50
 357 198 357 198 321 215 c 128,-1,51
 285 232 285 232 214 228 c 1,40,-1
EndSplineSet
Validated: 33
EndChar

StartChar: quotedblbase
Encoding: 227 227 194
AltUni2: 00201e.ffffffff.0 000433.ffffffff.0
Width: 473
Flags: W
LayerCount: 2
Fore
SplineSet
440 348 m 1,0,-1
 427 348 l 1,1,2
 423 355 423 355 419 360 c 0,3,4
 415 367 415 367 410.5 374 c 128,-1,5
 406 381 406 381 400 386 c 0,6,7
 374 415 374 415 343 427 c 128,-1,8
 312 439 312 439 291 439 c 0,9,10
 222 445 222 445 222 399 c 2,11,-1
 223 64 l 2,12,13
 223 40 223 40 229.5 26 c 128,-1,14
 236 12 236 12 262 0 c 1,15,-1
 71 0 l 1,16,17
 98 13 98 13 103 25.5 c 128,-1,18
 108 38 108 38 108 64 c 2,19,-1
 108 411 l 2,20,21
 108 438 108 438 103 451 c 128,-1,22
 98 464 98 464 71 476 c 1,23,-1
 407 476 l 1,24,-1
 440 348 l 1,0,-1
EndSplineSet
Validated: 33
EndChar

StartChar: perthousand
Encoding: 228 228 195
AltUni2: 002030.ffffffff.0 000434.ffffffff.0
Width: 586
Flags: W
LayerCount: 2
Fore
SplineSet
561 -130 m 1,0,-1
 541 -130 l 1,1,2
 523 -89 523 -89 494.5 -50 c 128,-1,3
 466 -11 466 -11 410 -1 c 0,4,5
 400 0 400 0 348 0 c 2,6,-1
 302 0 l 1,7,-1
 252 0 l 2,8,9
 202 0 202 0 192 -1 c 0,10,11
 143 -7 143 -7 103 -46 c 128,-1,12
 63 -85 63 -85 55 -130 c 1,13,-1
 27 -130 l 1,14,-1
 44 20 l 1,15,16
 96 22 96 22 118 64 c 0,17,18
 127 78 127 78 138 115 c 0,19,20
 142 129 142 129 147 144.5 c 128,-1,21
 152 160 152 160 154 168 c 0,22,23
 164 205 164 205 170.5 269 c 128,-1,24
 177 333 177 333 176 364 c 0,25,26
 172 447 172 447 114 476 c 1,27,-1
 496 476 l 1,28,29
 470 465 470 465 463.5 451.5 c 128,-1,30
 457 438 457 438 457 411 c 2,31,-1
 457 84 l 2,32,33
 457 46 457 46 472 33 c 128,-1,34
 487 20 487 20 541 20 c 1,35,-1
 561 -130 l 1,0,-1
337 382 m 1,36,-1
 337 402 l 2,37,38
 337 413 337 413 335 419 c 0,39,40
 327 439 327 439 306 439 c 2,41,-1
 276 439 l 2,42,43
 248 439 248 439 238.5 437.5 c 128,-1,44
 229 436 229 436 222 421 c 0,45,46
 220 414 220 414 220 399 c 0,47,48
 220 394 220 394 219.5 390.5 c 128,-1,49
 219 387 219 387 219 382 c 0,50,51
 218 376 218 376 217.5 363.5 c 128,-1,52
 217 351 217 351 217 343 c 128,-1,53
 217 335 217 335 216 325 c 0,54,55
 207 187 207 187 163 69 c 0,56,57
 163 68 163 68 160.5 63 c 128,-1,58
 158 58 158 58 158 54 c 0,59,60
 158 41 158 41 164.5 38.5 c 128,-1,61
 171 36 171 36 189 36 c 2,62,-1
 297 36 l 2,63,64
 337 36 337 36 337 78 c 2,65,-1
 337 382 l 1,36,-1
EndSplineSet
Validated: 33
EndChar

StartChar: Acircumflex
Encoding: 229 229 196
AltUni2: 000435.ffffffff.0
Width: 497
Flags: W
LayerCount: 2
Fore
SplineSet
443 133 m 1,0,-1
 464 118 l 1,1,2
 432 73 432 73 407 47 c 128,-1,3
 382 21 382 21 348 5 c 128,-1,4
 314 -11 314 -11 270 -10 c 0,5,6
 182 -10 182 -10 114.5 57 c 128,-1,7
 47 124 47 124 44 249 c 0,8,9
 43 362 43 362 105.5 425 c 128,-1,10
 168 488 168 488 249 488 c 0,11,12
 320 488 320 488 379.5 436.5 c 128,-1,13
 439 385 439 385 450 268 c 1,14,-1
 168 268 l 1,15,16
 167 180 167 180 200.5 124.5 c 128,-1,17
 234 69 234 69 283 58 c 0,18,19
 299 54 299 54 310 54 c 0,20,21
 360 54 360 54 400 87 c 0,22,23
 412 98 412 98 430 118 c 0,24,25
 435 122 435 122 443 133 c 1,0,-1
305 313 m 2,26,27
 324 313 324 313 322 330 c 0,28,29
 312 451 312 451 246 448 c 0,30,31
 187 446 187 446 172 357 c 0,32,33
 172 353 172 353 171 343 c 128,-1,34
 170 333 170 333 169 325 c 0,35,36
 169 316 169 316 169 316 c 2,37,38
 172 312 172 312 175.5 312.5 c 128,-1,39
 179 313 179 313 183 313 c 2,40,-1
 305 313 l 2,26,27
EndSplineSet
Validated: 33
EndChar

StartChar: Ecircumflex
Encoding: 230 230 197
AltUni2: 000436.ffffffff.0
Width: 858
Flags: W
LayerCount: 2
Fore
SplineSet
424 0 m 1,0,-1
 328 0 l 2,1,2
 334 2 334 2 340 6 c 0,3,4
 345 9 345 9 353 15 c 0,5,6
 367 29 367 29 367 64 c 2,7,-1
 367 160 l 1,8,-1
 313 222 l 1,9,-1
 237 83 l 2,10,11
 234 76 234 76 227.5 65.5 c 128,-1,12
 221 55 221 55 220 50 c 0,13,14
 220 27 220 27 262 0 c 1,15,-1
 29 0 l 1,16,17
 40 8 40 8 43 10 c 0,18,19
 50 17 50 17 55.5 22 c 128,-1,20
 61 27 61 27 64 30 c 0,21,22
 88 49 88 49 100 71 c 2,23,-1
 237 305 l 1,24,-1
 123 427 l 2,25,26
 112 440 112 440 104 445 c 0,27,28
 101 448 101 448 96.5 451.5 c 128,-1,29
 92 455 92 455 86 459 c 0,30,31
 79 464 79 464 75.5 466 c 128,-1,32
 72 468 72 468 66 472 c 0,33,34
 64 473 64 473 61 474.5 c 128,-1,35
 58 476 58 476 57 476 c 2,36,-1
 237 476 l 1,37,38
 205 453 205 453 205 428 c 0,39,40
 205 409 205 409 220 396 c 2,41,-1
 367 234 l 1,42,-1
 367 411 l 2,43,44
 367 448 367 448 353 461 c 0,45,46
 350 464 350 464 340 470 c 0,47,48
 334 474 334 474 328 476 c 2,49,-1
 526 476 l 1,50,51
 500 464 500 464 494 451 c 128,-1,52
 488 438 488 438 488 411 c 2,53,-1
 488 234 l 1,54,-1
 634 396 l 2,55,56
 650 410 650 410 650 428 c 0,57,58
 650 437 650 437 645 445.5 c 128,-1,59
 640 454 640 454 632 462 c 128,-1,60
 624 470 624 470 618 476 c 1,61,-1
 798 476 l 2,62,63
 797 476 797 476 794 474.5 c 128,-1,64
 791 473 791 473 788 472 c 0,65,66
 771 461 771 461 769 459 c 0,67,68
 763 455 763 455 758.5 451.5 c 128,-1,69
 754 448 754 448 750 445 c 0,70,71
 740 438 740 438 729 427 c 2,72,-1
 618 305 l 1,73,-1
 755 71 l 2,74,75
 764 55 764 55 789 30 c 0,76,77
 793 27 793 27 800.5 20.5 c 128,-1,78
 808 14 808 14 812 10 c 0,79,80
 815 8 815 8 826 0 c 1,81,-1
 593 0 l 1,82,83
 637 32 637 32 632 50 c 0,84,85
 632 59 632 59 626.5 68 c 128,-1,86
 621 77 621 77 618 83 c 2,87,-1
 542 222 l 1,88,-1
 488 160 l 1,89,-1
 488 64 l 2,90,91
 488 38 488 38 494 25.5 c 128,-1,92
 500 13 500 13 526 0 c 1,93,-1
 424 0 l 1,0,-1
EndSplineSet
Validated: 33
EndChar

StartChar: Aacute
Encoding: 231 231 198
AltUni2: 000437.ffffffff.0
Width: 496
Flags: W
LayerCount: 2
Fore
SplineSet
50 149 m 1,0,-1
 63 149 l 1,1,2
 73 108 73 108 110.5 70.5 c 128,-1,3
 148 33 148 33 195 30 c 0,4,5
 238 28 238 28 269 55 c 128,-1,6
 300 82 300 82 300 130 c 0,7,8
 301 201 301 201 254 223.5 c 128,-1,9
 207 246 207 246 123 248 c 1,10,-1
 123 268 l 1,11,12
 191 272 191 272 230.5 293 c 128,-1,13
 270 314 270 314 270 368 c 0,14,15
 270 407 270 407 246 430 c 128,-1,16
 222 453 222 453 184 447 c 0,17,18
 114 434 114 434 79 340 c 1,19,-1
 63 340 l 1,20,-1
 63 447 l 1,21,22
 83 457 83 457 130 473 c 128,-1,23
 177 489 177 489 228 488 c 0,24,25
 275 488 275 488 314 471 c 128,-1,26
 353 454 353 454 374.5 428 c 128,-1,27
 396 402 396 402 396 370 c 0,28,29
 396 326 396 326 360 301.5 c 128,-1,30
 324 277 324 277 286 268 c 1,31,32
 366 256 366 256 397 219 c 128,-1,33
 428 182 428 182 428 138 c 0,34,35
 428 105 428 105 408 70.5 c 128,-1,36
 388 36 388 36 342 13 c 128,-1,37
 296 -10 296 -10 226 -10 c 0,38,39
 178 -12 178 -12 114 1 c 0,40,41
 107 4 107 4 95.5 7.5 c 128,-1,42
 84 11 84 11 71 15 c 0,43,44
 66 17 66 17 61 19 c 128,-1,45
 56 21 56 21 50 21 c 1,46,-1
 50 149 l 1,0,-1
EndSplineSet
Validated: 33
EndChar

StartChar: Edieresis
Encoding: 232 232 199
AltUni2: 000438.ffffffff.0
Width: 586
Flags: W
LayerCount: 2
Fore
SplineSet
216 169 m 1,0,-1
 370 399 l 1,1,-1
 370 411 l 2,2,3
 370 439 370 439 363.5 452.5 c 128,-1,4
 357 466 357 466 331 476 c 1,5,-1
 521 476 l 1,6,7
 492 464 492 464 487 450.5 c 128,-1,8
 482 437 482 437 482 411 c 2,9,-1
 482 64 l 2,10,11
 482 30 482 30 497 15 c 0,12,13
 505 9 505 9 510 6 c 0,14,15
 515 5 515 5 517.5 3 c 128,-1,16
 520 1 520 1 521 0 c 2,17,-1
 331 0 l 2,18,19
 335 1 335 1 343 6 c 0,20,21
 353 12 353 12 357 15 c 0,22,23
 370 29 370 29 370 64 c 2,24,-1
 370 310 l 1,25,-1
 216 86 l 1,26,-1
 216 64 l 2,27,28
 216 29 216 29 228 15 c 1,29,30
 228 15 228 15 234 12 c 128,-1,31
 240 9 240 9 243 6 c 0,32,33
 252 0 252 0 252 0 c 1,34,-1
 64 0 l 2,35,36
 67 1 67 1 75 6 c 0,37,38
 85 11 85 11 89 15 c 0,39,40
 103 29 103 29 103 64 c 2,41,-1
 103 411 l 2,42,43
 103 438 103 438 96.5 451 c 128,-1,44
 90 464 90 464 64 476 c 1,45,-1
 252 476 l 1,46,47
 227 465 227 465 221.5 452 c 128,-1,48
 216 439 216 439 216 411 c 2,49,-1
 216 169 l 1,0,-1
EndSplineSet
Validated: 1
EndChar

StartChar: Egrave
Encoding: 233 233 200
AltUni2: 000439.ffffffff.0
Width: 586
Flags: W
LayerCount: 2
Fore
SplineSet
216 169 m 1,0,-1
 370 399 l 1,1,-1
 370 411 l 2,2,3
 370 439 370 439 363.5 452.5 c 128,-1,4
 357 466 357 466 331 476 c 1,5,-1
 521 476 l 1,6,7
 492 462 492 462 487 449.5 c 128,-1,8
 482 437 482 437 482 411 c 2,9,-1
 482 64 l 2,10,11
 482 39 482 39 487.5 26.5 c 128,-1,12
 493 14 493 14 521 0 c 1,13,-1
 331 0 l 1,14,15
 357 12 357 12 363.5 25 c 128,-1,16
 370 38 370 38 370 64 c 2,17,-1
 370 310 l 1,18,-1
 216 86 l 1,19,-1
 216 64 l 2,20,21
 216 39 216 39 220.5 26.5 c 128,-1,22
 225 14 225 14 254 0 c 1,23,-1
 64 0 l 1,24,25
 90 12 90 12 96.5 25 c 128,-1,26
 103 38 103 38 103 64 c 2,27,-1
 103 411 l 2,28,29
 103 438 103 438 96.5 451 c 128,-1,30
 90 464 90 464 64 476 c 1,31,-1
 254 476 l 1,32,33
 227 463 227 463 221.5 450.5 c 128,-1,34
 216 438 216 438 216 411 c 2,35,-1
 216 169 l 1,0,-1
300 558 m 0,36,37
 245 558 245 558 211.5 576.5 c 128,-1,38
 178 595 178 595 165 620 c 128,-1,39
 152 645 152 645 152 669 c 0,40,41
 153 703 153 703 176.5 721 c 128,-1,42
 200 739 200 739 225 737 c 0,43,44
 245 735 245 735 258.5 720 c 128,-1,45
 272 705 272 705 268 684 c 0,46,47
 265 657 265 657 240 645 c 0,48,49
 234 642 234 642 231.5 640.5 c 128,-1,50
 229 639 229 639 226 637 c 0,51,52
 222 625 222 625 242 609 c 128,-1,53
 262 593 262 593 300 593 c 0,54,55
 341 593 341 593 360 609 c 128,-1,56
 379 625 379 625 373 637 c 0,57,58
 372 639 372 639 369 641 c 128,-1,59
 366 643 366 643 362 645 c 0,60,61
 335 656 335 656 331 684 c 0,62,63
 330 706 330 706 342 720.5 c 128,-1,64
 354 735 354 735 374 737 c 0,65,66
 401 740 401 740 425 721.5 c 128,-1,67
 449 703 449 703 450 669 c 0,68,69
 452 629 452 629 416 593.5 c 128,-1,70
 380 558 380 558 300 558 c 0,36,37
EndSplineSet
Validated: 33
EndChar

StartChar: Iacute
Encoding: 234 234 201
AltUni2: 00043a.ffffffff.0
Width: 586
Flags: W
LayerCount: 2
Fore
SplineSet
151 0 m 1,0,-1
 64 0 l 1,1,2
 93 15 93 15 98 27 c 128,-1,3
 103 39 103 39 103 66 c 2,4,-1
 103 411 l 2,5,6
 103 437 103 437 97.5 449.5 c 128,-1,7
 92 462 92 462 64 476 c 1,8,-1
 252 476 l 1,9,10
 224 462 224 462 219 449.5 c 128,-1,11
 214 437 214 437 214 411 c 2,12,-1
 214 234 l 1,13,-1
 362 396 l 2,14,15
 375 411 375 411 378 428 c 0,16,17
 378 451 378 451 345 476 c 1,18,-1
 524 476 l 1,19,20
 524 476 524 476 516 472 c 0,21,22
 513 471 513 471 497 459 c 0,23,24
 494 457 494 457 487.5 453.5 c 128,-1,25
 481 450 481 450 476 447 c 0,26,27
 472 443 472 443 466.5 437.5 c 128,-1,28
 461 432 461 432 457 427 c 2,29,-1
 345 305 l 1,30,-1
 482 71 l 2,31,32
 497 47 497 47 516 32 c 0,33,34
 523 24 523 24 541 10 c 0,35,36
 545 8 545 8 548.5 5.5 c 128,-1,37
 552 3 552 3 555 0 c 2,38,-1
 320 0 l 1,39,40
 363 30 363 30 360 50 c 0,41,42
 359 58 359 58 353 68 c 0,43,44
 352 69 352 69 349.5 75 c 128,-1,45
 347 81 347 81 345 83 c 2,46,-1
 268 222 l 1,47,-1
 214 160 l 1,48,-1
 214 66 l 2,49,50
 214 30 214 30 228 15 c 0,51,52
 231 13 231 13 235.5 10 c 128,-1,53
 240 7 240 7 241 6 c 0,54,55
 246 5 246 5 248.5 3 c 128,-1,56
 251 1 251 1 252 0 c 2,57,-1
 151 0 l 1,0,-1
EndSplineSet
Validated: 33
EndChar

